<svg xmlns="http://www.w3.org/2000/svg" xmlns:xlink="http://www.w3.org/1999/xlink" version="1.1" id="Layer_1" x="0px" y="0px" viewBox="0 0 823 823" style="enable-background:new 0 0 823 823;" xml:space="preserve">
<style type="text/css">
	.st0{fill:#CCE9FF;}
	.st1{fill:#DBA17B;}
	.st2{fill:#FFBE55;}
	.st3{fill:#0E538C;}
	.st4{fill:#0B4870;}
	.st5{fill:#FFE3CA;}
	.st6{fill:#C68C6B;}
	.st7{fill:#FF957E;}
	.st8{fill:#FCD2B1;}
	.st9{fill:#FFD584;}
	.st10{fill:none;stroke:#FFECD3;stroke-width:0.1;stroke-miterlimit:10;}
	.st11{fill:#D3D3D3;}
	.st12{fill:#F2F2F2;}
	.st13{fill:#2A94F4;}
</style>
<g>
	<path class="st0" d="M262.8,89.9c87.1-57.4,209.5-45.7,286.5,39.5c42.1,46.6,59.2,110.7,102.9,156.3   c49.2,51.3,108,101.2,130.3,171.2c23.7,74.4,2.9,159.7-50.1,216.6c-64.5,69.2-159.3,48.4-248.9,47.3   c-366.9-4.6-639.6-249.5-292.6-551.4C219.9,144,234,108.8,262.8,89.9z"/>
	<path class="st1" d="M716.6,310.8c-1.9,0.6-11.9,8-11.9,8l-11.8,7.6l-0.5-4.3c0,0-4.8-9.6-10.7-9.2c0,0,7.1,8.7,8,14.5   c0.9,5.8,1.3,9.8,1.3,9.8h0l-7.8,7.7l13,16.7l30.5-22.8C726.7,338.8,718.5,310.2,716.6,310.8z"/>
	<polygon class="st2" points="722.7,310.8 717.4,353.3 696.2,353.8 691.1,310.8  "/>
	<polyline class="st3" points="727.3,311.4 687.3,311.4 687.3,307.2 691.1,307.2 691.1,300.6 723.6,305.4 723.7,307.8 727.3,307.8    727.3,311.9  "/>
	<path class="st1" d="M724.6,339.6c7.4,0.7-1.9-19.6-1.9-19.6s-20-1.4-20.2-0.3c-0.2,1.1-0.1,2.9,1.5,3.3c1.6,0.4,14.1,2.1,14.1,2.1   s-13,0.6-12.8,2c0.4,2.1,1.9,2.3,5.8,2.9c3.3,0.5,10.5,0.7,10.5,0.7s-13.7,0.3-13.4,1.2c0.3,0.9-0.6,3.7,4.1,3   C723,333.5,724.6,339.6,724.6,339.6z"/>
	<path class="st4" d="M634.6,421.3c0,0,20.3,143.5,10.9,174c-9.4,30.5-13.1,58-13.1,58l-47.2-13.8c0,0,15.6-71.8,18-85.6   c2.3-13.8-21.8-125.9-21.8-125.9L634.6,421.3z"/>
	<path class="st4" d="M612.3,431.6l-22.3,230.7h-45.1c0,0,14.6-244.2,12-246.3C554.3,414.1,612.3,431.6,612.3,431.6z"/>
	<path class="st4" d="M630.1,291c0,0,4.8,77.4,15.1,74.6c10.4-2.7,38.2-22.9,38.2-22.9l16.9,18.6c0,0-51.5,57.3-72.7,33.9   C606.5,371.7,630.1,291,630.1,291z"/>
	<path class="st4" d="M616.2,700.9l3.1-15.6l-32.9-13.2l-5.2,23.2l1.8,0.3c7.4,3.4,43.3,20,48.9,20.5   C638.1,716.7,616.2,700.9,616.2,700.9z"/>
	<g>
		<path class="st5" d="M538,473.8l3.6,5.2c0,0,1.7,3.5,5.9,8.8c1.1,1.4,2.4,2.6,3.9,3.5c1.8,1.1,4.3,2.5,5.9,2.9    c2,0.4,2.4,3,0.7,3.8c-1.7,0.7-7.1-0.3-12.3-4.3c-5.2-3.9-2.8,6-1.9,9.7c0.8,3.6,2.8,15,1.9,16.2c-1.3,1.7-3.4,0.5-4.1-3.1    c-0.7-3.7-3.7-14.5-5.6-13.9c-1.9,0.5,2.5,19,2.5,19s1.6,3.8-0.6,4.5c-3.9,1.2-7.2-18.8-7.4-20.7c-0.2-1.3-2.3-0.8-2,0.6    c0.3,1.5,4.8,18.3,0.9,19.6c-3.1,1-2.8-16.4-5.7-19.4c-2.9-3,1.2,13.2-1.8,14c-1.1,0.3-2,0.4-3-9.3c-1-9.9,0.6-37,0.6-37l18.8,0.2    "/>
	</g>
	<path class="st1" d="M603.3,265c-0.4-3.1,1.2-16,1.2-16s11.8-0.9,12.9-12.5c1.1-11.7,1.2-38.7,1.2-38.7l-21.1-11.2l-24.2,17.1   l-5.5,12.8L575,247l0,15.3L603.3,265z"/>
	<path class="st6" d="M604.5,249c0,0-7.9-0.2-15.3-5.7c0,0,3.2,8.7,15,8.6L604.5,249z"/>
	<path class="st3" d="M568.2,229.3c3.2,7.1,5.1,17.5,5.1,17.5c1.7,3.2,2.3-7,2.3-7s1.5-9.8,0.1-13.6c0,0-6,1.9-7.3-8.8   c-0.7-5.3,7.3-7.8,9.5-1.4l5,0.5c0,0,0.4-20,11.9-16.3c0,0,8.3,5.1,13.3,2c5-3.1,4.6-4.2,4.6-4.2s2.4,5.3,8.8,1.8   c6.4-3.5,7.2-9.6,5-12.5c-1.3-1.7-2.5-3.6-4.6-4c-2.1-0.4-4.4,0.5-5.7,2.1c1.6-2.3,0.5-5.7-1.9-7.3c-2.3-1.5-5.4-1.4-8-0.4   c-2.6,1-4.8,2.8-6.9,4.6c-1.5-4.2-6-7.2-10.4-6.8c-4.5,0.4-8.4,4-9.2,8.4c-2.4-3-7-3.7-10.5-2s-5.7,5.3-6.4,9.1   c-0.7,3.8,0.1,7.7,1.6,11.3c-2.7-1.5-6.4-0.4-8.2,2.1c-1.8,2.5-1.8,6-0.5,8.8s3.8,4.9,6.5,6.3c-2,1.6-2.7,4.8-1.4,7.1   c1.3,2.3,4.3,3.5,6.7,2.6"/>
	<path class="st2" d="M527.8,295.7c0,0,8.1-37.3,47.2-33.4c35.8,3.6,35.8,3.6,35.8,3.6s24.6,10.4,21.1,39.7   c-3.4,29.3-5.1,56.1-4.2,61.2c0.9,5.2,9.5,51.3,6.9,54.5c-25.8,31.4-91.7-18.7-91.7-18.7L527.8,295.7z"/>
	<path class="st3" d="M575,262.3l-9.1,217.9l-27.1-14.7l2.8-193.3C541.6,272.2,548.9,259.7,575,262.3z"/>
	<path class="st3" d="M518.5,477.7l9.3-182.1c2.9-11.2,9.1-19.8,17.1-27v211.5L518.5,477.7z"/>
	<path class="st3" d="M603.3,265c0,0,24.4,12.1,23.3,53c-1.2,40.9,14.7,156.5,14.7,156.5l20.4-4.1c0,0-23.6-109.6-24.6-128.8   c-1-19.6,0.7-47.3-12.5-66.4C615.1,261.5,603.3,265,603.3,265z"/>
	<path class="st4" d="M575,262.3c0,0-8,18-7.2,24.5c0.8,6.6,3.6,20.4,3.6,20.4s-5.9,3.6-5.4,6.7c0.4,3.1,5.1,52.1,5.1,52.1   L575,262.3z"/>
	<g>
		<path class="st4" d="M544.9,480.2c2.5-44,1.9-129.4,4.4-173.5"/>
	</g>
	<path class="st1" d="M616.4,684.2c-0.4-0.2,8.3-33.1,8.3-33.1l-28.9-8.4l-6.1,30.8L616.4,684.2z"/>
	<rect x="549.8" y="662.4" class="st1" width="32.9" height="25.8"/>
	<path class="st4" d="M585.9,702.2l-3-15.6h-35.5l3.7,23l1.9,0.1c8.1,0.4,47.6,2.5,53,0.9C612.2,708.7,585.9,702.2,585.9,702.2z"/>
	<g>
		<path class="st3" d="M307.9,196c2.8,9.4,5.6,18.8,8.4,28.2c0.4,1.3,0.8,2.6,0.7,3.9c-0.1,4-3.8,7.1-7.7,7.8    c-3.9,0.7-7.9-0.3-11.7-1.4c-1,4-5.8,5.7-9.9,6.5c-18.2,3.4-37.5,1-54.3-6.8c7.2-10.4,13.1-21.6,17.5-33.5    c14.3,0.6,28.6,1.3,42.9,1.9c2.5,0.1,5.1,0.2,7.5-0.6c2.4-0.9,4.5-2.9,4.7-5.4"/>
	</g>
	<path class="st7" d="M141.9,319.7l-4.2-4.9c0,0-3-2.5-7.3-8.1c-1.1-1.4-1.9-3.1-2.5-4.8c-0.7-2.1-1.5-4.9-1.4-6.6   c0.1-2.1-2.4-3.1-3.6-1.6c-1.2,1.5-1.4,7.2,1.2,13.3c2.6,6.1-6.7,1.3-10.1-0.5c-3.4-1.7-14.2-6.5-15.6-5.9c-2,0.9-1.4,3.2,2.1,4.9   c3.5,1.7,13.4,7.3,12.5,9c-1,1.7-18.2-7.2-18.2-7.2s-3.4-2.5-4.6-0.5c-2.2,3.6,16.9,11.8,18.7,12.5c1.3,0.5,0.3,2.5-1.1,1.8   c-1.4-0.6-17-9.3-19.3-5.7c-1.7,2.8,15.6,6.9,17.8,10.5c2.2,3.6-12.8-4.4-14.4-1.7c-0.6,1-0.9,1.9,8.5,5.2   c9.5,3.4,36.9,8.6,36.9,8.6l4.4-18.8"/>
	<path class="st8" d="M219.2,275.3c0,0-15.6,45.1-20.4,45.5c-32.9,3-68.7-11.2-68.7-11.2l-9,25.4c0,0,93.2,41.7,113.2,1.5   c21.3-42.6,20.2-49.3,20.2-49.3L219.2,275.3z"/>
	<path class="st4" d="M221.3,530.3C238,607,347.8,678.3,347.8,678.3l18.7-22.9c0,0-88.3-78.7-92-113.7c-3.8-35,25.5-89.9,25.5-89.9   l-30.4-12.9L221.3,530.3z"/>
	<path class="st5" d="M258.4,251c0.5-3.2-0.7-16.4-0.7-16.4s-12.1-1.3-12.8-13.3c-0.7-12,0-39.6,0-39.6l22-10.8l24.2,18.3l-3.7,59.9   L258.4,251z"/>
	<path class="st3" d="M289.4,198.6c0,0-19.8-1.9-23.2-19.8l-21.4,19.8c0,0-6.5-13.3,5.4-25.6c11.9-12.3,20-9.8,24.7-9.8   c4.3,0,26.3,4.7,32.8,29.6c0.5,1.8,0.9,6.3,1.2,8.3L289.4,198.6z"/>
	<path class="st8" d="M257.8,234.7c0,0,8.1,0.1,15.9-5.4c0,0-3.6,8.8-15.6,8.3L257.8,234.7z"/>
	<path class="st2" d="M232.9,386.1c0,4.3,1.5,10.2,1.5,10.2l85,24.5c0,0,6.1-38.4-9.4-59.8c-7.1-9.8-5.5-23.6-2.6-35.4l10-40.3   L304,247.4l-53.5,3.6c0,0-31-3.1-41.8,37.9l19.9,29.9l0.2,11.3L232.9,386.1z"/>
	<path class="st3" d="M315.8,371.1c0.9,0,16.3,34.5,2.4,55c-1.3,1.9-4.5,6.6-8.8,13.3c-20.6,31.6-67.6,105.9-69.2,116.8   c-1.9,13.2-39.9,151.7-39.9,151.7l-28.3-4.5l23.1-157.1l37.8-160.2L315.8,371.1z"/>
	<path class="st3" d="M266.7,177.4c0,0-4.4,8.5-2.5,14.9l-19.2,5C245,197.2,240.6,172.9,266.7,177.4z"/>
	<path class="st3" d="M307.9,199.3c0,0,2.2,27.6-19.1,32.5l1.4-33.3L307.9,199.3z"/>
	<polygon class="st2" points="220.7,327.9 173,348 94.9,349.7 56.9,285.2 137.2,279.8 172,342.2 220.4,323.4  "/>
	<path class="st9" d="M304,247.4"/>
	<polygon class="st2" points="212.1,280.5 198.7,313.2 228.7,328.1 231.5,299.5  "/>
	<polygon class="st5" points="269.9,245 259,249.7 261.2,271.7 275,247  "/>
	<g>
		<path class="st10" d="M223.6,315.6"/>
	</g>
	<g>
		<path class="st3" d="M169.4,703.4c0,0-24.9,6.6-18.7,8.5c6.2,1.9,49.3-2.8,49.3-2.8l1.4-4.9L169.4,703.4z"/>
		<polygon class="st3" points="200,709.1 208.8,685.4 170.6,685.4 169.4,703.4   "/>
	</g>
	<g>
		<path class="st4" d="M348.1,679.9c0,0-6.3,25-1.6,20.5c4.6-4.5,21.6-44.4,21.6-44.4l-3.6-3.6L348.1,679.9z"/>
		<polygon class="st4" points="368,656 351.5,636.8 333,670.1 348.1,679.9   "/>
	</g>
	<path class="st5" d="M292.5,213.7c-0.1-2-0.1-4.1,0.6-5.9c0.7-1.9,2.3-3.5,4.3-3.7c2.3-0.2,4.5,1.7,4.9,3.9c0.4,2.3-1,4.6-3,5.8   c-2,1.1-4.5,1.1-6.7,0.2"/>
	<path class="st3" d="M278.9,387.7c0,0-1.1-110.7,2.8-119.1c0,0,4.1-20.8,20-21.2l-7.1,0.6c0,0-14.4-1-18.6,27.3   c-4.1,28.3-3.9,113.3-3.9,113.3L278.9,387.7z"/>
	<path class="st3" d="M248.1,391.6c0,0-4.3-127.2-0.9-140.6h-4.3c0,0-3.8,10.9-3.1,41.4c0.5,18.3,0,99.2,0,99.2H248.1z"/>
	<path class="st5" d="M197.4,335.2c0,0-20.8,13.2-25.4,13.1c-4.5-0.1-17.6-0.4-16.2,1.4c1.4,1.8,16.2,4.3,16.2,4.3L197.4,335.2z"/>
	<path class="st5" d="M198.9,363c0,0,98.5,26.5,112-16.3c14.3-45.4,14.5-33.6,14.5-33.6l-30.9-29.8c0,0-16.6,52.4-21.3,53.6   c-25.9,6.6-55.3,2.4-65.7,0.5c-1.2-1-2.5-2.1-4.1-3.6c-1.3-1.2-2.4-2.7-3.2-4.3c-1-2-2.2-4.6-2.4-6.3c-0.3-2.1-2.9-2.7-3.8-1.1   c-0.9,1.6-0.3,7.3,3.3,12.9c0,0-23.5,15.1-25.4,18.7L198.9,363z"/>
	<path class="st2" d="M304,247.4c0,0,22.5,4.3,23.4,39.7c0.9,35.4-13.4,62.5-13.4,62.5l-38.2-19.9L304,247.4"/>
	<path class="st11" d="M500.2,596.8H397c-4.8,0-8.7-3.9-8.7-8.7l0,0c0-4.8,3.9-8.7,8.7-8.7h103.1c4.8,0,8.7,3.9,8.7,8.7l0,0   C508.9,592.9,505,596.8,500.2,596.8z"/>
	<g>
		
			<rect x="467.2" y="658" transform="matrix(6.123234e-17 -1 1 6.123234e-17 -230.7718 1173.9272)" class="st4" width="8.8" height="88.8"/>
		<path class="st4" d="M435.4,705c0.8,4.6-2.3,8.9-6.9,9.6c-4.6,0.8-8.9-2.3-9.6-6.9c-0.8-4.6,2.3-8.9,6.9-9.6    C430.4,697.3,434.7,700.4,435.4,705z"/>
		<rect x="466.8" y="591.1" class="st4" width="8.8" height="110.4"/>
		<path class="st4" d="M524.2,705c0.8,4.6-2.3,8.9-6.9,9.6c-4.6,0.8-8.9-2.3-9.6-6.9c-0.8-4.6,2.3-8.9,6.9-9.6    C519.2,697.3,523.5,700.4,524.2,705z"/>
	</g>
	<path class="st11" d="M527.2,596.8h-97.4c-6.6,0-11.4-6.5-9.5-13l46.5-160.4c1.2-4.3,5.1-7.3,9.5-7.3h97.4c6.6,0,11.4,6.5,9.5,13   l-46.5,160.4C535.5,593.9,531.6,596.8,527.2,596.8z"/>
	<path class="st12" d="M513.8,596.8h-84.9c-6.6,0-11.4-6.5-9.5-13l46.5-160.4c1.2-4.3,5.1-7.3,9.5-7.3h84.9c6.6,0,11.4,6.5,9.5,13   l-46.5,160.4C522.1,593.9,518.2,596.8,513.8,596.8z"/>
	<path class="st11" d="M527.2,596.8H424c-4.8,0-8.7-3.9-8.7-8.7l0,0c0-4.8,3.9-8.7,8.7-8.7h103.1c4.8,0,8.7,3.9,8.7,8.7l0,0   C535.9,592.9,532,596.8,527.2,596.8z"/>
	<polygon class="st8" points="441.9,460.6 419,521.5 424.4,533.4 455.3,528 464.1,462.9  "/>
	<path class="st13" d="M455.8,431c0,0-18.1,9.5-22.1,40.7l23.9,13.1L455.8,431z"/>
	<path class="st13" d="M485,419.1l-28.5,12L434,531.2l75.2,29.6l40.1-114.2c0,0-6.5-23.8-44.1-29.9L485,419.1z"/>
	<path class="st5" d="M561,536.6c0-1.3-0.8-9.2-1.2-10.5l-12.4-79.3c-2.4-10.9-14.6-16.4-24.3-11c-7.2,4-10.4,12.5-7.6,20.2   l14.7,68.1L561,536.6z"/>
	<path class="st5" d="M544.1,519.7l-83.9-6.5L456,528l80.8,27.3c12.4,4.2,25.1-5.6,24.2-18.7l0,0   C560.4,527.6,553.2,520.4,544.1,519.7z"/>
	<path class="st13" d="M539,433.4c0,0,10.7,4.6,15.3,32.4l-37.8,11.6c0,0-24.7-27.7,1.7-46.2L539,433.4z"/>
	<path class="st5" d="M433.9,528.9c3.1,8.2,18.6,8.6,26.9,5.5c8.2-3.1,16.7-7.8,13.6-16.1c-3.1-8.2-16.8-13.1-25.8-11.1   C437.7,509.7,430.8,520.6,433.9,528.9z"/>
	<path class="st12" d="M479.6,540.1l-59.9-7.7l0.9-6.8l59.9,7.7c1.9,0.2,3.2,1.9,2.9,3.8l0,0C483.1,539,481.4,540.3,479.6,540.1z"/>
	<path class="st12" d="M427.6,533.4l-79.4-10.2c-4.6-0.6-8.2-4.1-8.8-8.7l-8.3-57.6c-0.7-5.1,3.6-9.5,8.7-8.8l72.9,9.4   c3.1,0.4,5.5,2.8,5.9,5.8L427.6,533.4z"/>
	<path class="st4" d="M332.7,685.5l-20.6,8.5l-13,1c-6,0.4-11,4.8-12.2,10.6l-0.6,2.7l70.6,8.8l1.4-28.4L332.7,685.5z"/>
	<polygon class="st5" points="358.3,688.7 365.2,657.8 339.7,654.3 332.7,685.5  "/>
	<path class="st4" d="M509.2,560.8c0,0-2,17.1-32.7,19.4h-73.8l-34.8,97.1l-36.6-5.9l36.6-142.6l83.9,9.3L509.2,560.8z"/>
	<path class="st3" d="M273.6,629.7l-22.1-3.3l-11.7-5.9c-5.4-2.7-11.9-1.5-16,2.8l-1.9,2l56,43.8l15.8-23.6L273.6,629.7z"/>
	<polygon class="st5" points="293.9,645.6 313.1,621.2 292.9,605.1 273.6,629.7  "/>
	<path class="st3" d="M434,531.2l-56.9-17c-2.4-0.7-4.7-1.6-7.1-2.4c-4.9-1.9-17.3-4.5-26.9,10.2c-12.3,18.9-61.6,89.9-61.6,89.9   l30.1,22.2l65.7-83.7c5.5-7.6,14.3-12.1,23.7-12.1l50.8-0.1L434,531.2z"/>
	<path class="st2" d="M507.2,387.9c1-1.9,18.6-33.3,2.5-41.2c0,0-2.1-16.6-20.6-14.8c-18.5,1.8-13.5,7.2-25.3,4.5   c-11.8-2.7-22.9,3.4-22,13.3c0.9,9.9,8.4,14.1,22,11.7c13.6-2.4,24.4-0.6,24.4-0.6l11.4,3.3L507.2,387.9z"/>
	<g>
		<path class="st5" d="M509.4,421.9L508,382l-27.6,9.8l2.2,32c0.5,7.4,4.6,13.2,12,12.7l2.3-0.1    C504.3,435.7,509.9,429.3,509.4,421.9z"/>
	</g>
	<path class="st8" d="M505.6,387.5c0,0,5.2,33.3-23.2,35.2l-1.3-15.8L505.6,387.5z"/>
	<path class="st5" d="M482.2,415.3l1,0c14.2-0.7,25.1-12.7,24.4-26.9l-1.4-29c-0.2-3.7-3.3-6.5-7-6.3l-33.8,1.6   c-6.5,0.3-11.6,5.9-11.3,12.4l1.1,23.7C456,405,468,415.9,482.2,415.3z"/>
	<path class="st5" d="M501.1,379.7c0.2,4.8,4.3,8.5,9.1,8.2c4.8-0.2,8.5-4.3,8.2-9.1c-0.2-4.8-4.3-8.5-9.1-8.2   C504.6,370.8,500.9,374.9,501.1,379.7z"/>
	<path class="st2" d="M497,356.5l1.7,32.3c0.2,2.9-1,5.9-3.5,7.5c-1.5,1.1-2.7,2.5-5.4,2.1c-7.7-1.1-4.1-6.8-19.8-6   c-14.3,0.8-13.2,8.7-13.2,8.7s2.8,15.1,22.4,15.8c19.6,0.7,29.4-11.7,27.1-28.2l-1.9-34.1L497,356.5z"/>
	<path class="st2" d="M455.1,362c0,0,9.1,1.4,22.4-1.8c13.2-3.3,23.7,7.4,23.7,7.4s2.8,4.9,3.5,4.8c0.7-0.1,4.7-1.7,4.7-1.7   l-0.2-14.9l-9.7-7.6l-26.9-1.1l-15.9,3.5L455.1,362z"/>
</g>
</svg>