<svg width="2866" height="2150" viewBox="0 0 2866 2150" fill="none" xmlns="http://www.w3.org/2000/svg">
<path fill-rule="evenodd" clip-rule="evenodd" d="M2016.03 1721.1C2029.33 1766.16 2020.85 1818.74 1990.38 1855.8C1970.7 1879.74 1923.91 1901.15 1897.64 1876.23C1885.89 1865.08 1880.92 1826.92 1875.91 1809.12C1871.29 1792.75 1863.57 1762.43 1867 1748.69C1871.99 1728.67 1911.88 1733.3 1930.53 1731.54C1959.14 1728.86 1987.55 1724.77 2016.03 1721.1ZM2392.44 1743.99C2398.7 1757.78 2408.69 1766.92 2412.95 1782.22C2415.74 1792.21 2417.41 1802.23 2418.52 1812.49C2419.85 1824.91 2420.76 1824.44 2412.2 1830.25C2399.12 1839.11 2365.67 1838.43 2349.76 1841C2328.99 1844.35 2308.32 1848.3 2287.54 1851.65C2292.58 1832.3 2289.94 1811.48 2295.15 1791.75C2300.21 1772.59 2309.01 1753.66 2321.45 1737.91C2330.7 1726.2 2344.15 1712.16 2360.78 1712.09C2382.23 1711.99 2385.61 1728.97 2392.44 1743.99ZM1073.85 1329.53C1077.03 1371 1071.13 1415.16 1047.55 1450.8C1037.56 1465.89 1023.02 1474.01 1011.21 1487.01C997.552 1502.05 990.142 1520.64 968.561 1527.07C954.634 1531.22 938.294 1528.36 923.816 1530.23C899.782 1533.33 892.686 1529.96 872.422 1517.52C857.867 1508.58 841.087 1510.26 825.739 1500.46C807.333 1488.7 791.308 1471.95 773.875 1458.64C871.71 1410.7 972.573 1369.88 1073.85 1329.53ZM1336.84 1354.13C1374.29 1371.75 1394.08 1401.81 1404.78 1440.61C1301.5 1464.22 1200.98 1493.11 1099.53 1525.68C1127.86 1453.61 1159.67 1387.61 1237.17 1354.09C1252.63 1347.4 1268.52 1336.75 1286.11 1337C1303.64 1337.25 1321.48 1346.89 1336.84 1354.13ZM2278.87 1460.97C2332.1 1488.99 2305.04 1578.55 2286.44 1618.31C2262.77 1600.89 2237.95 1583.93 2214.84 1566.97C2189.57 1548.43 2166.86 1524.57 2143.81 1503.45C2156.01 1497.09 2163.95 1486.96 2175.29 1479.69C2186.52 1472.49 2197.66 1471.98 2210.24 1469.16C2234.34 1463.78 2253.83 1447.78 2278.87 1460.97ZM1863.5 1259.18C1867.75 1264.63 1872.83 1269.77 1876.83 1275.37C1886.55 1288.98 1894.96 1302.81 1906.23 1315.43C1926.2 1337.79 1955.28 1367.26 1988 1369.3L1988.95 1378.85C1979.3 1378.61 1973.59 1370.29 1965.22 1369.45C1958.65 1368.79 1949.45 1373.81 1941.39 1373.1C1916.47 1370.91 1891.99 1369.65 1866.7 1370.32C1816.77 1371.65 1767.69 1379.61 1718.61 1385.95C1727.99 1352.53 1745.49 1318.29 1773.37 1295.93C1783.01 1288.2 1792.25 1277.57 1803.13 1271.41C1809.68 1267.7 1816.62 1267.42 1823.36 1264.52C1831.16 1261.17 1841.18 1249.98 1849.24 1248.91C1857.66 1247.78 1857.7 1251.72 1863.5 1259.18ZM2263.6 1262.23C2289.79 1283.26 2309.91 1309.94 2331.45 1335.2C2350.94 1358.06 2377.36 1390.67 2384.29 1420.1C2349.72 1436.37 2290.43 1421.48 2268.13 1391.39C2240.63 1354.28 2254.11 1302.63 2263.6 1262.23ZM1664.06 1142.32C1658.91 1177.19 1642.15 1216.05 1617 1242.08C1606.15 1253.31 1596.65 1267.95 1584.33 1277.77C1568.24 1290.59 1555.29 1284.02 1536.62 1286.01C1516.56 1288.15 1503.56 1301.24 1482.19 1297.68C1466.96 1295.15 1452.94 1286.72 1438.63 1284.16C1423 1281.36 1409.35 1283.02 1393.81 1275.28C1374.59 1265.71 1359.26 1246.88 1344.31 1232.58C1352.18 1226.35 1368.07 1225.9 1378.13 1222.53C1391.43 1218.08 1404.7 1213.67 1418.07 1209.41C1445.68 1200.61 1473.22 1191.61 1500.88 1182.96C1553.58 1166.47 1609.22 1150.81 1664.06 1142.32Z" fill="#548EF3"/>
<path fill-rule="evenodd" clip-rule="evenodd" d="M2490.75 281.325L2489.02 292.886C2505.85 295.787 2506.34 285.624 2490.75 281.325ZM2417.53 261.391C2408.51 258.245 2393.76 262.857 2400.85 273.632C2410.87 288.848 2415.42 268.985 2417.53 261.391ZM1690.13 682.731C1691.48 681.376 1675.5 650.823 1673.43 645.698C1663.11 651.587 1662.41 650.163 1666.62 660.011C1670.25 668.505 1682.88 677.128 1690.13 682.731ZM747.478 691.114C742.548 690.682 732.736 687.746 728.553 689.458C722.706 691.856 724.277 697.403 723.569 705.499C740.669 704.703 743.06 706.969 747.478 691.114ZM725.306 674.338C733.664 675.839 742.02 677.339 750.376 678.84C752.162 669.265 756.888 653.431 739.265 659.212C737.61 659.755 727.425 671.223 725.306 674.338ZM1709.89 694.024C1701 702.858 1742.26 721.559 1746.51 715.57C1755.79 702.501 1715.89 695.982 1709.89 694.024ZM1913.98 589.603C1918.97 589.113 1923.96 588.621 1928.95 588.131C1927.23 580.849 1921.98 554.013 1911.06 555.452C1900.21 556.882 1912.44 583.925 1913.98 589.603ZM1932.19 633.42C1932.33 627.371 1934.81 613.961 1932.44 608.138C1930.83 604.177 1924.21 592.154 1914.71 599.967C1912.68 601.63 1911.76 625.845 1912.37 626.63C1914.96 629.924 1928.5 632.154 1932.19 633.42ZM1880.6 711.084C1870.36 703.252 1848.08 691.696 1838.22 709.407C1824.47 734.093 1871.71 717.594 1880.6 711.084ZM1822.04 713.142C1808.59 715.663 1795 715.335 1781.39 714.382C1766.13 713.313 1762.51 708.653 1758.07 723.268C1774.43 729.2 1809.28 733.315 1825.84 727.671C1824.58 722.827 1823.31 717.983 1822.04 713.142ZM1906.88 646.071C1902.17 655.723 1891.97 668.366 1889.22 678.434C1887.2 685.859 1886.41 682.148 1888.1 687.91C1888.7 689.965 1896.98 698.571 1898.43 700.651C1908.49 693.035 1920.62 685.256 1925.77 673.526C1934.01 654.744 1923.41 653.239 1906.88 646.071ZM1678.07 606.544C1643.87 617.186 1601.86 627.609 1565.66 624.441C1565.18 627.539 1627.06 645.576 1634.45 644.276C1642.01 642.946 1642.61 632.408 1651.67 626.783C1661.66 620.583 1669.91 624.274 1680.95 623.306C1679.99 617.719 1679.03 612.13 1678.07 606.544ZM1790.65 749.904C1759.17 747.889 1731.05 740.367 1703.2 726.039C1687.2 717.812 1675.72 705.878 1665.03 692.108C1656.75 681.444 1658.44 682.321 1645.44 678.704C1635.83 676.035 1624.02 677.117 1614.16 675.877C1581.14 671.725 1548.22 661.714 1516.82 651.293C1481.57 639.602 1451.21 623.114 1412.49 624.077C1346.02 625.732 1292.09 676.054 1222.75 654.92C1195.23 646.535 1166.74 635.405 1144.48 617.427C1115.55 594.047 1097.97 580.196 1057.19 588.477C1024.36 595.143 999.17 612.546 971.041 628.585C938.982 646.866 903.996 657.816 868.249 667.47C854.246 671.251 841.276 673.451 826.604 674.189C817.873 674.627 776.508 668.331 771.397 672.777C766.454 677.077 764.206 706.747 764.732 712.16C765.611 721.196 761.623 722.129 771.277 725.935C777.98 728.577 798.676 725.905 806.984 726.851C873.823 734.488 942.299 736.774 1008.07 748.295C1069.88 759.12 1131.91 767.881 1193.03 780.577C1272.53 797.095 1353.5 804.633 1433.05 820.629C1471.5 828.358 1510.28 839.248 1548.28 847.482C1582.88 854.978 1617.65 861.935 1652.45 868.727C1651.17 863.945 1643.94 846.52 1655.49 848.127C1662.8 849.144 1675.08 874.414 1678.94 880.1C1696.7 906.276 1715.62 926.145 1739.78 946.978C1764.14 967.973 1788.66 988.75 1813.38 1009.36C1833.57 1026.19 1876.95 1051.3 1875.83 1080.7C1863.53 1083.04 1839.11 1061.24 1829.9 1055.34C1811.27 1043.39 1793.4 1030.36 1776.03 1016.77C1759.68 1040.69 1798.42 1068.42 1802.82 1091.04C1792.86 1091.09 1776.22 1063.66 1770.17 1056.39C1754.11 1071.37 1736.08 1084.57 1724.52 1103.38C1854.13 1097.85 1875.37 1258.63 1968.93 1313.13C1989.66 1325.21 2015.63 1330.2 2039.33 1324.89C2064.01 1319.37 2087.74 1311.57 2109.46 1297.63C2157.96 1266.47 2193.51 1206.58 2212.49 1155.14C2222.97 1126.74 2232.86 1099.22 2237.6 1069.33C2242.85 1036.24 2237.92 1002.6 2233.64 969.613C2226.03 910.847 2194.8 851.522 2150.57 809.486C2130.75 790.648 2109.1 774.159 2090.94 753.595C2084.61 746.417 2070.15 718.932 2062.21 717.21C2047.56 714.034 2040 734.594 2029.86 717.766C2019.94 701.295 2038.87 694.867 2050.4 687.193C2062.83 678.91 2074.89 670.198 2087.04 661.549C2111.07 644.449 2134.86 627.631 2157.94 609.424C2270.47 520.647 2369.95 421.672 2470.73 320.792C2451.86 316.326 2425.03 303.488 2405.85 306.913C2386.66 310.341 2369.61 323.923 2349.38 326.173C2329.67 328.366 2310.53 324.109 2292.25 317.912C2270.71 310.606 2256.13 301.205 2238.05 319.436C2209.01 348.728 2193.03 389.431 2162.54 417.147C2131.74 445.16 2088.61 461.518 2048.5 469.969C2011.35 477.791 1959.84 474.094 1932.63 503.34C1926.5 509.921 1921.04 514.603 1920.69 524.437C1920.07 541.926 1924.04 529.393 1929.66 540.223C1938.81 557.854 1942.39 579.852 1944.46 599.339C1948.64 638.777 1943.36 681.974 1911.77 709.158C1877.74 738.433 1835.65 750.759 1790.65 749.904ZM1788.85 686.028C1811.89 697.787 1858.48 682.463 1876.9 668.128C1901.95 648.617 1903.93 614.659 1899.92 586.273C1888.27 589.095 1876.61 591.914 1864.96 594.736C1859.99 595.937 1855.02 597.139 1850.05 598.344C1850.51 602.455 1849.83 606.295 1848.03 609.859C1837.05 623.93 1831.73 616.937 1819.81 604.735C1794.3 578.612 1771.66 549.165 1761.25 514.441C1749.6 528.059 1736.43 536.842 1717.76 534.95C1709.57 534.122 1678.19 524.351 1686.29 510.026C1688.87 505.47 1714.38 511.206 1722.93 510.776C1740.79 509.873 1749.19 510.215 1755.72 493.421C1761.17 479.438 1759.24 473.691 1742.46 471.131C1721.15 467.874 1720.54 480.532 1705.35 486.466C1666.8 501.54 1693.13 441.518 1687.62 424.61C1706.57 419 1726.58 415.104 1743.34 404.412C1724.77 406.542 1707.12 412.748 1689.13 417.262C1690.66 395.126 1734.57 390.415 1750.99 383.462C1733.25 381.102 1716.39 392.782 1698.58 392.048C1681.94 391.361 1658.6 384.369 1642.55 379.044C1626.04 373.571 1613.1 358.318 1597.17 371.594C1586.73 380.298 1572.72 404.013 1569.37 416.633C1579.76 415.133 1604.24 413.114 1607.12 424.908C1610.83 440.057 1580.25 431.239 1570.83 433.72C1556.53 437.488 1560.91 441.646 1555.72 455.784C1550.61 469.704 1541.44 480.843 1526.92 486.617C1543.06 495.298 1547.5 495.142 1544.25 511.202C1541.05 526.994 1543.16 544.734 1544.72 562.31C1554.32 558.379 1564.67 557.111 1574.97 556.079C1576.98 568.828 1556.95 574.225 1546.63 574.969C1552.05 591.747 1552.25 591.22 1570.78 591.168C1581.15 591.138 1591.57 590.543 1601.92 590.04C1623 589.016 1643.45 585.255 1664.25 581.913C1672.18 580.635 1683.42 576.3 1691.32 577.17C1705.8 578.763 1702.98 580.326 1700.59 592.666C1697.35 609.396 1701 622.059 1705.2 640.215C1680.42 631.767 1700.32 657.62 1712.02 662.94C1735.05 673.417 1763.24 684.632 1788.85 686.028ZM433.531 1697.11C451.072 1705.87 467.644 1714.11 483.627 1725.32C499.528 1736.46 516.49 1755.2 536.62 1758.8C560.696 1763.11 566.495 1750.61 572.453 1732.16C579.149 1711.4 585.277 1701.98 604.309 1690.59C637.991 1670.45 677.441 1657.17 714.251 1642.67C728.329 1637.13 729.389 1638.19 725.223 1623.92C722.708 1615.31 719.639 1606.84 716.34 1598.48C710.249 1583.04 703.573 1566.69 693.375 1553.21C635.01 1591.54 565.397 1635.97 493.545 1645.19C464.37 1648.93 435.618 1655.5 407.001 1657.99C392.834 1659.22 381.226 1662.81 368.746 1668.9C354.771 1675.72 331.655 1678.12 321.591 1689.34C359.372 1689.08 396.175 1693.91 433.531 1697.11ZM1864.97 1747.35C1853.27 1752.17 1869.07 1779.82 1872.45 1791.32C1877.52 1808.62 1882.31 1825.98 1887.42 1843.26C1898.25 1879.85 1908.45 1916.59 1918.72 1953.32C1986.42 1916.57 2058.86 1895.54 2134.04 1877.96C2208.95 1860.44 2285.46 1847.98 2361.99 1835.99C2403.82 1829.43 2447.69 1820.48 2486.41 1803.44C2510.49 1792.84 2505.79 1783.06 2505.39 1759.6C2505.02 1737.57 2501.56 1715.12 2498.19 1693.31C2491.81 1652.11 2485.07 1607.18 2468.43 1568.46C2452.22 1530.74 2430.53 1494.47 2409.67 1458.94C2384.91 1416.77 2363.83 1371.37 2331.54 1333.94C2297.88 1294.93 2261.76 1259.55 2225.25 1223.24C2203.4 1264.69 2172.22 1314.96 2131.91 1341.05C2087.56 1369.75 2017.81 1384.51 1967.38 1360.49C1916.59 1336.29 1886.57 1286.66 1854.94 1243.41C1824.46 1201.73 1797.98 1156.64 1743.96 1141.77C1686.83 1126.04 1626.68 1147.45 1570.98 1160.87C1507.47 1176.16 1445.33 1198.1 1383.6 1218.83C1276.44 1254.82 1170.12 1287.76 1065.66 1330.65C937.099 1383.44 808.361 1435.82 684.097 1497.62C710.982 1536.07 731.82 1571.11 747.004 1615.33C758.829 1649.76 766.053 1686.22 768.818 1723.45C783.283 1709.06 794.332 1691.94 808.932 1677.37C825.444 1660.89 844.832 1648.21 864.259 1635.28C899.425 1611.89 935.469 1590.71 974.258 1572.93C1062.3 1532.54 1155.86 1504.73 1248.95 1475.95C1270.04 1469.43 1294.86 1461.85 1316.72 1458.24C1335.3 1455.18 1351.79 1449.79 1370.7 1445.32C1413.58 1435.19 1456.93 1425.89 1500.18 1418.55C1583.27 1404.45 1668.06 1389.42 1752.3 1379.68C1809.43 1373.07 1869.04 1362.35 1927.73 1368.07C1937.65 1369.04 1947.37 1371 1957.36 1370.69C1960.14 1370.6 1963.45 1366.48 1966.33 1366.77C1971.88 1367.31 1977.81 1373.51 1983.47 1375.36C1996.24 1379.54 2014.79 1376.95 2021.75 1387.46C2027.32 1395.89 2025.28 1402.56 2016.98 1408.11C2026.97 1420.79 2046.51 1432.48 2059.9 1442.46C2071.93 1451.42 2083.27 1461.07 2095.41 1469.72C2108.44 1479 2124.23 1487.77 2137.88 1497.24C2155.68 1509.6 2170.9 1525.44 2187.72 1539.3C2217.9 1564.19 2248.19 1585.87 2280 1609.19C2297.13 1621.76 2313.46 1633.59 2332.07 1643.87C2342.24 1649.49 2365.31 1664.89 2353.27 1678.87C2341.26 1692.82 2317.17 1672.19 2304.04 1670.71C2288.94 1668.99 2268.58 1678.43 2253.51 1680.64C2213.65 1686.5 2173.66 1691.65 2133.79 1697.98C2088.27 1705.2 2043.24 1714.96 1997.51 1720.96C1973.89 1724.06 1950.28 1727.05 1926.54 1729.19C1914.29 1730.29 1896.98 1728.63 1885.48 1732.54C1876.77 1730.01 1872.98 1732.48 1874.11 1739.96C1871.98 1743.46 1868.93 1745.92 1864.97 1747.35ZM603.739 705.59C628.641 705.431 653.344 706.866 678.276 706.65C687.875 706.567 696.136 708.506 700.02 701.878C704.767 693.775 702.579 672.614 703.391 663.339C674.277 665.67 647.561 666.394 618.498 663.848C587.369 661.124 557.158 652.243 525.911 650.319C532.57 652.844 540.191 666.594 535.849 673.285C531.525 679.945 524.464 673.933 517.619 670.918C491.185 659.274 469.169 642.073 439.477 649.593C466.815 663.695 492.755 686.308 521.304 694.729C548.225 702.669 575.382 705.376 603.739 705.59ZM2453.31 247.107C2465.43 249.371 2489.07 261.469 2499.95 255.374C2513.23 247.929 2510.43 217.74 2510.92 205.989C2512.4 169.875 2515.15 120.181 2486.75 90.9073C2481.6 125.609 2492.74 161.895 2491.94 196.983C2491.34 223.313 2481.39 208.935 2477.88 190.299C2474.66 173.25 2475.01 156.432 2470.62 139.47C2462.57 153.206 2460.69 171.846 2455.01 187.011C2447.84 206.134 2437.7 223.48 2427.49 241.206C2436.12 243.084 2444.71 245.065 2453.31 247.107ZM721.984 721.64C721.837 731.754 720.396 741.257 733.052 742.185C749.809 743.413 744.312 726.338 743.249 715.563C737.224 716.379 723.416 714.7 721.984 721.64ZM2446.3 263.608C2435.8 262.309 2434.2 259.935 2427.54 267.279C2423.31 271.94 2422.9 280.394 2426.57 283.33C2442.49 296.067 2445 270.757 2446.3 263.608ZM2456.12 287.057C2464.3 288.664 2472.3 293.016 2476.9 284.909C2483.63 273.02 2467.53 272.025 2458.71 268.495C2457.85 274.681 2456.99 280.869 2456.12 287.057ZM1942.32 1405.73C1851.92 1403.59 1762.85 1417.76 1674.11 1433.36C1595.62 1447.15 1517.7 1458.64 1440.93 1475.95C1286.22 1510.84 1131.25 1549.88 987.651 1617.03C952.764 1633.34 917.924 1649.65 885.765 1669.49C868.482 1680.15 850.877 1690.69 834.511 1702.72C825.511 1709.33 816.196 1715.86 807.758 1723.11C800.029 1729.75 795.641 1738.91 788.698 1745.4C785.429 1748.46 771.347 1759.76 767.169 1761.03C758.197 1763.76 761.751 1763.98 752.679 1757.78C733.721 1744.82 729.919 1727.54 724.205 1706.76C720.184 1692.12 723.271 1687.28 710.057 1687.78C703.333 1688.03 693.215 1694.86 686.984 1697.45C666.858 1705.81 645.111 1712.46 625.796 1722.43C610.182 1730.49 597.687 1740.85 590.998 1756.81C583.1 1775.65 578.509 1791.03 554.547 1793.15C511.802 1796.91 487.241 1754.29 450.692 1739.95C411.601 1724.61 361.711 1727.63 320.437 1727.14C305.405 1726.96 289.036 1728.41 274.697 1730.43C254.437 1733.29 230.467 1744.3 209.439 1737.3C185.239 1729.25 185.603 1694.87 201.638 1679.9C218.404 1664.26 243.282 1662.11 264.726 1656.92C308.077 1646.42 347.507 1622.5 391.76 1615.15C435.778 1607.84 482.417 1606.25 525.328 1592.93C547.195 1586.14 568.442 1580.84 589.22 1571.29C615.107 1559.39 642.988 1551.64 668.558 1539.95C659.759 1524.49 657.376 1510.14 656.841 1492.82C656.485 1481.26 654.605 1481.25 662.628 1476.41C664.217 1477.23 665.806 1478.06 667.397 1478.88C672.439 1482.46 676.03 1480.83 678.178 1473.97C713.667 1452.44 746.47 1429.31 784.339 1410.61C847.85 1379.25 915.088 1353.91 978.583 1324.03C1099.21 1267.27 1233.57 1234.51 1360.48 1192.93C1437.25 1167.77 1515.86 1147.17 1594.52 1128.61C1608.31 1125.36 1622.05 1122.67 1636.07 1120.51C1659.81 1116.86 1654.19 1116.64 1666.17 1098.37C1681.54 1074.93 1705.93 1049.92 1730.68 1035.4C1745.95 1026.44 1752.46 1027.78 1751.99 1008.19C1751.62 993.212 1747.52 993.362 1735.27 983.336C1721.42 971.995 1708.56 959.409 1696.86 946.034C1683.52 930.77 1677.54 913.471 1666.37 897.783C1652.87 878.818 1611.11 882.037 1587.74 878.735C1551.13 873.567 1513.91 869.869 1477.85 861.885C1405.03 845.765 1331.83 840.126 1258.1 828.857C1183.98 817.527 1109.89 807.196 1035.77 796.933C1009.16 793.25 982.209 790.084 955.747 785.517C918.7 779.122 879.717 778.474 842.131 772.492C822.78 769.411 799.08 758.481 779.612 759.413C758.721 760.416 777.402 760.179 763.66 767.364C757.492 770.593 750.356 773.479 743.249 773.852C732.052 774.441 720.768 769.644 713.918 761.096C702.501 746.846 708.006 735.927 684.738 734.129C669.42 732.949 651.545 738.859 635.98 739.637C620.73 740.4 604.873 742.613 589.615 742.163C559.104 741.263 522.744 738.582 495.037 725.537C465.676 711.716 439.472 693.279 408.585 681.527C393.084 675.628 371.033 673.124 360.642 658.86C351.968 646.953 349.285 622.736 362.586 612.971C382.988 597.994 422.548 620.659 445.124 614.998C456.666 612.104 447.137 608.617 455.867 604.583C461.276 602.085 460.464 601.71 466.882 600.803C482.702 598.563 508.617 609.646 524.703 612.279C556.443 617.467 587.908 625.387 619.622 630.238C637.729 633.009 656.139 633.704 674.288 636.65C690.094 639.217 703.084 645.409 714.551 632.712C719.389 627.357 717.911 621.836 725.663 619.044C732.615 616.542 752.585 620.132 759.302 622.708C766.639 625.52 768.278 629.579 774.18 632.783C774.33 638.854 776.88 640.67 781.835 638.229C786.449 637.882 791.046 638.127 795.624 638.964C835.91 639.133 876.004 626.63 912.645 611.866C973.364 587.402 1048.75 518.149 1118.4 555.82C1135.53 565.087 1146.78 580.543 1163.46 590.583C1178.28 599.499 1197.23 607.483 1213.9 612.512C1247.2 622.56 1280.3 621.303 1313.29 610.898C1353.51 598.209 1385.9 584.921 1429.25 586.379C1469.41 587.729 1501.47 615.459 1540.81 616.566C1531.19 601.128 1529.41 583.392 1528.4 565.877C1527.74 554.424 1534.13 524.44 1527.2 515.17C1519.55 504.928 1459.81 500.787 1493.13 470.726C1504.03 460.881 1524.16 464.447 1535.44 453.578C1546.82 442.608 1547.05 425.454 1553.12 411.759C1559.98 396.264 1571.31 383.465 1582.92 371.1C1587.83 365.863 1591.15 362.542 1593.95 356.247C1597.2 348.945 1595.04 342.774 1600.23 335.079C1617.75 309.106 1648.32 318.148 1674.93 321.608C1691.06 323.705 1710.6 321.706 1726.25 326.107C1738.83 329.647 1755.19 340.374 1765.43 348.248C1787.98 365.594 1793.22 397.599 1794.95 423.824C1795.97 439.177 1792.98 453.646 1792.74 468.945C1792.48 484.958 1785.53 492.212 1773.03 502.833C1772.8 499.878 1771.35 497.896 1768.69 496.886C1763.25 503.583 1764.64 506.198 1772.88 504.732C1773.19 508.737 1774.62 512.335 1777.17 515.533C1783.98 523.096 1789.84 531.456 1796.47 539.17C1810.98 556.033 1827.91 570.668 1839.07 589.807C1850.78 576.186 1865.67 573.951 1879.64 564.556C1893.22 555.417 1883.08 552.695 1888.11 539.484C1890.14 534.191 1895.44 533.257 1897.31 529.159C1899.07 525.271 1896.92 522.821 1898.01 518.552C1903.45 497.353 1901.19 484.219 1918.12 467.603C1940.76 445.377 1968.66 439.502 1999.78 435.282C2030.83 431.069 2052.89 429.568 2080.49 417.297C2090.07 413.042 2099.13 411.098 2108.22 406.268C2120.52 399.736 2131.97 392.846 2142.65 384.031C2167.49 363.544 2182.93 334.999 2203.01 310.382C2219.09 290.681 2238.47 265.458 2267.48 270.661C2300.48 276.58 2329.56 296.64 2364.69 285.823C2377.72 281.813 2376.31 284.278 2381.48 271.642C2383.2 267.433 2384.31 263.193 2385.98 259.056C2392.25 243.571 2404.24 241.632 2411.68 229.024C2429.24 199.261 2438.86 162.144 2448.86 129.479C2453.51 114.31 2462.5 101.153 2467.99 86.608C2470.28 80.5258 2469.24 53.4374 2476.36 51.0615C2499.34 43.4051 2517.92 103.573 2522.11 114.952C2533.06 144.69 2542.7 178.251 2538.38 210.091C2536.6 223.21 2535.19 238.41 2531.68 251.256C2528.49 262.919 2527.8 262.151 2529.62 272.723C2531.48 283.473 2533.68 289.918 2532.09 301.188C2531.65 304.335 2530.21 315.962 2528.86 317.572C2522.57 325.062 2521.71 319.827 2513.88 322.82C2501.21 327.661 2498.08 331.822 2489.11 343.177C2466.68 371.561 2443.27 400.032 2419.04 426.978C2376.52 474.251 2331.81 516.628 2284.09 558.669C2237.25 599.933 2188.29 641.797 2135.12 675.504C2122.2 683.696 2100.96 690.883 2090.56 701.631C2079.17 713.403 2096.44 718.509 2108.11 726.859C2131.31 743.443 2155.17 760.426 2175.4 779.763C2218.53 820.987 2243.16 881.724 2258.27 936.881C2266.13 965.585 2267.74 998.489 2270.72 1028.22C2274.21 1063.09 2269.89 1101.25 2258.89 1134.42C2254.72 1147 2249.81 1159.32 2245.77 1171.96C2243.9 1177.77 2234.75 1195.84 2237.24 1202.55C2241.34 1213.65 2268.29 1227.12 2277.71 1234.83C2290.57 1245.37 2303.73 1256.27 2314.51 1268.83C2360.37 1322.28 2397.88 1378.38 2431.57 1439.87C2465.83 1502.41 2498.17 1558.84 2511.69 1629.14C2515.22 1647.5 2518.37 1665.89 2522.08 1684.23C2526.07 1703.97 2522.21 1732.43 2530.2 1750.46C2535.14 1761.62 2544.38 1765.13 2540.62 1780.54C2537.36 1793.88 2520.82 1817.55 2511.82 1828.05C2491.35 1851.95 2453.97 1861.36 2424.46 1870.03C2388.65 1880.55 2350.34 1885.4 2313.45 1891.38C2180.6 1912.93 2050.4 1936.46 1927.43 1991.69C1931.56 1997.72 1934.9 2010.76 1926.51 2014.91C1915.35 2020.43 1909.88 2004.04 1906.04 1996.8C1894.87 1975.73 1891.55 1948.47 1884.87 1925.38C1868.6 1869.05 1856.24 1812.13 1842.99 1755.18C1797.77 1764.71 1751.98 1769.76 1706.99 1778.59C1686.24 1782.67 1665.21 1783.05 1644.32 1785.62C1621.88 1788.38 1620.44 1795.44 1622.21 1816.86C1626.12 1864.08 1644.97 1909.39 1655.72 1955.31C1660.94 1977.58 1670.07 1998.79 1675.04 2020.96C1676.65 2028.18 1674.9 2047.61 1679.99 2052.99C1679.77 2052.76 1697.12 2056.21 1699.86 2056.9C1698.39 2029 1701.65 2001.63 1700.26 1973.79C1698.82 1945.02 1694.89 1907.3 1701.32 1879.43C1707.17 1854.1 1729.47 1827.32 1754.1 1816.63C1775.54 1807.31 1818.11 1792.37 1841.27 1806.18C1845.34 1808.61 1855.14 1816.14 1852.86 1821.97C1849.77 1829.84 1815.49 1835.89 1808.53 1838.32C1781.28 1847.87 1752.46 1864.61 1737.2 1888.87C1723.46 1910.71 1728.95 1944.45 1729.41 1969.48C1729.67 1983.71 1731.51 1996.93 1729.79 2011.11C1727.35 2031.17 1726.08 2038.44 1734.28 2055.76C1743.9 2076.05 1737.96 2105.7 1709.17 2098.41C1691.95 2094.04 1691.26 2084.64 1680.89 2074.42C1676.96 2070.55 1672.56 2072.26 1668.71 2067.38C1663.56 2060.84 1663.59 2046.37 1660.98 2038.11C1652.64 2011.68 1640.83 1985.98 1632.01 1959.39C1620.15 1923.64 1610.44 1887.44 1601.94 1850.84C1595.33 1822.38 1588.17 1793.56 1601.9 1765.87C1614.09 1741.28 1643.96 1743.11 1668.72 1742.23C1726.06 1740.18 1785.33 1727.75 1843.84 1724.74C1848.05 1724.53 1856.83 1725.97 1860.6 1724.21C1865.82 1721.79 1867.79 1714.75 1874.54 1710.24C1887.43 1701.64 1912.94 1698.64 1927.84 1696C1961.64 1690 1995.26 1685.12 2028.85 1678.87C2067.47 1671.67 2105.74 1663.07 2144.41 1656.53C2181.42 1650.26 2218.82 1649.08 2256.27 1644.82C2196.84 1606.49 2144.51 1559.75 2087.33 1518.22C2060.81 1498.96 2036.25 1480.01 2012.45 1457.74C2002.54 1448.47 1992.74 1439.45 1983.74 1429.34C1978.97 1423.99 1974.76 1413.75 1968.69 1410.01C1961.07 1405.31 1952.38 1406.56 1942.32 1405.73Z" fill="white"/>
<path fill-rule="evenodd" clip-rule="evenodd" d="M1724.19 326.386C1704.54 324.673 1682.01 324.548 1662.93 320.173C1679.78 321.631 1708.77 320.682 1724.19 326.386Z" fill="white"/>
<path fill-rule="evenodd" clip-rule="evenodd" d="M643.751 633.624C635.385 632.886 627.02 632.149 618.659 631.412C627.198 630.169 635.544 631.107 643.751 633.624Z" fill="white"/>
<path fill-rule="evenodd" clip-rule="evenodd" d="M1158.83 815.69C1164.42 816.17 1170 816.651 1175.56 817.137C1169.96 816.658 1164.39 816.174 1158.83 815.69Z" fill="white"/>
<path fill-rule="evenodd" clip-rule="evenodd" d="M1728.3 1971.32C1728.55 1964.78 1728.79 1958.24 1729.04 1951.71C1728.8 1958.26 1728.55 1964.79 1728.3 1971.32Z" fill="white"/>
<path fill-rule="evenodd" clip-rule="evenodd" d="M1697.63 2022.03C1697.53 2026.71 1697.43 2031.39 1697.33 2036.05C1697.43 2031.37 1697.53 2026.7 1697.63 2022.03Z" fill="white"/>
<path fill-rule="evenodd" clip-rule="evenodd" d="M1822.59 1803.19C1816.97 1803.19 1811.35 1803.2 1805.73 1803.21C1811.36 1803.2 1816.97 1803.19 1822.59 1803.19Z" fill="white"/>
<path fill-rule="evenodd" clip-rule="evenodd" d="M1022.96 795.14C1026.67 795.612 1030.39 796.083 1034.07 796.554C1030.35 796.082 1026.65 795.613 1022.96 795.14Z" fill="white"/>
<path fill-rule="evenodd" clip-rule="evenodd" d="M1651.77 319.237C1647.12 318.85 1642.47 318.46 1637.83 318.073C1642.47 318.46 1647.12 318.85 1651.77 319.237Z" fill="white"/>
<path fill-rule="evenodd" clip-rule="evenodd" d="M1698.45 1949.03C1698.31 1953.71 1698.18 1958.39 1698.04 1963.05C1698.18 1958.37 1698.31 1953.7 1698.45 1949.03Z" fill="white"/>
<path fill-rule="evenodd" clip-rule="evenodd" d="M1000.64 793.335C1004.36 793.711 1008.09 794.088 1011.78 794.456C1008.04 794.078 1004.34 793.706 1000.64 793.335Z" fill="white"/>
<path fill-rule="evenodd" clip-rule="evenodd" d="M1058.94 801.291C1062.67 801.637 1066.4 801.983 1070.09 802.325C1066.35 801.978 1062.65 801.634 1058.94 801.291Z" fill="white"/>
<path fill-rule="evenodd" clip-rule="evenodd" d="M1667.81 1741.96C1663.12 1741.99 1658.43 1742.02 1653.75 1742.04C1658.44 1742.01 1663.12 1741.99 1667.81 1741.96Z" fill="white"/>
<path fill-rule="evenodd" clip-rule="evenodd" d="M1505.4 868.512C1508.19 868.74 1510.99 868.968 1513.76 869.202C1510.95 868.976 1508.18 868.744 1505.4 868.512Z" fill="white"/>
<path fill-rule="evenodd" clip-rule="evenodd" d="M1700.28 1996.97C1699.96 2000.69 1699.63 2004.42 1699.31 2008.12C1699.64 2004.4 1699.96 2000.68 1700.28 1996.97Z" fill="white"/>
<path fill-rule="evenodd" clip-rule="evenodd" d="M1941.54 1406.88C1944.34 1407.12 1947.14 1407.35 1949.91 1407.59C1947.1 1407.36 1944.32 1407.12 1941.54 1406.88Z" fill="white"/>
<path fill-rule="evenodd" clip-rule="evenodd" d="M1078.41 546.628C1073.72 546.664 1069.03 546.701 1064.35 546.738C1069.04 546.701 1073.72 546.665 1078.41 546.628Z" fill="white"/>
<path fill-rule="evenodd" clip-rule="evenodd" d="M530.426 612.307C526.741 611.613 523.058 610.923 519.37 610.229C523.055 610.922 526.741 611.613 530.426 612.307Z" fill="white"/>
<path fill-rule="evenodd" clip-rule="evenodd" d="M594.046 623.722L583.029 621.193L594.046 623.722Z" fill="white"/>
<path fill-rule="evenodd" clip-rule="evenodd" d="M445.802 616.171C442.118 615.458 438.434 614.748 434.75 614.035C438.431 614.748 442.118 615.458 445.802 616.171Z" fill="white"/>
<path fill-rule="evenodd" clip-rule="evenodd" d="M1902.28 1406.13C1904.14 1406.37 1906 1406.61 1907.83 1406.84C1905.96 1406.6 1904.12 1406.36 1902.28 1406.13Z" fill="white"/>
<path fill-rule="evenodd" clip-rule="evenodd" d="M1516.88 512.417C1518.73 512.703 1520.59 512.989 1522.42 513.275C1520.56 512.986 1518.72 512.701 1516.88 512.417Z" fill="white"/>
<path fill-rule="evenodd" clip-rule="evenodd" d="M2144.42 1657.04C2140.66 1657.26 2136.89 1657.48 2133.13 1657.71C2136.89 1657.48 2140.66 1657.26 2144.42 1657.04Z" fill="white"/>
<path fill-rule="evenodd" clip-rule="evenodd" d="M2267.88 1096.8C2268.12 1094.01 2268.36 1091.22 2268.61 1088.43C2268.37 1091.23 2268.12 1094.01 2267.88 1096.8Z" fill="white"/>
<path fill-rule="evenodd" clip-rule="evenodd" d="M1602.74 879.825C1604.61 879.985 1606.47 880.143 1608.32 880.302C1606.44 880.14 1604.59 879.984 1602.74 879.825Z" fill="white"/>
<path fill-rule="evenodd" clip-rule="evenodd" d="M842.189 773.978C844.061 774.103 845.929 774.227 847.775 774.355C845.898 774.233 844.045 774.104 842.189 773.978Z" fill="white"/>
<path fill-rule="evenodd" clip-rule="evenodd" d="M550.881 699.642C559.518 700.403 567.564 700.703 575.844 703.341C567.731 702.721 558.131 703.66 550.881 699.642Z" fill="white"/>
<path fill-rule="evenodd" clip-rule="evenodd" d="M640.425 703.774C646.458 702.029 656.533 702.767 662.758 705.408C655.314 704.861 647.867 704.319 640.425 703.774Z" fill="white"/>
<path fill-rule="evenodd" clip-rule="evenodd" d="M1788.16 687.216C1794.67 687.763 1801.17 688.313 1807.68 688.859C1800.99 690.452 1794.44 690.497 1788.16 687.216Z" fill="white"/>
<path fill-rule="evenodd" clip-rule="evenodd" d="M2446.2 262.604C2441.56 262.015 2436.92 261.426 2432.31 260.835C2436.96 261.424 2441.58 262.014 2446.2 262.604Z" fill="white"/>
<path fill-rule="evenodd" clip-rule="evenodd" d="M415.982 1695.86C421.839 1693.13 427.292 1695.03 432.714 1697.3C427.133 1696.82 421.56 1696.34 415.982 1695.86Z" fill="white"/>
<path fill-rule="evenodd" clip-rule="evenodd" d="M764.955 703.934C764.865 708.616 764.779 713.298 764.689 717.962C764.778 713.277 764.866 708.604 764.955 703.934Z" fill="white"/>
<path fill-rule="evenodd" clip-rule="evenodd" d="M589.773 704.697C594.455 704.682 599.142 704.668 603.824 704.653C599.14 704.668 594.455 704.682 589.773 704.697Z" fill="white"/>
<path fill-rule="evenodd" clip-rule="evenodd" d="M1791.09 750.045C1787.35 749.805 1783.62 749.568 1779.92 749.323C1783.66 749.561 1787.38 749.801 1791.09 750.045Z" fill="white"/>
<path fill-rule="evenodd" clip-rule="evenodd" d="M756.095 1638.95C756.09 1643.63 756.079 1648.32 756.072 1653C756.077 1648.31 756.088 1643.63 756.095 1638.95Z" fill="white"/>
<path fill-rule="evenodd" clip-rule="evenodd" d="M1563.17 850.392C1567.78 851.245 1572.39 852.095 1576.99 852.948C1572.38 852.095 1567.77 851.245 1563.17 850.392Z" fill="white"/>
<path fill-rule="evenodd" clip-rule="evenodd" d="M610.233 663.507C606.493 663.303 602.754 663.103 599.047 662.91C602.798 663.118 606.517 663.311 610.233 663.507Z" fill="white"/>
<path fill-rule="evenodd" clip-rule="evenodd" d="M1532.77 844.578C1537.38 845.423 1541.99 846.267 1546.6 847.112C1541.89 846.893 1536.89 848.378 1532.77 844.578Z" fill="white"/>
<path fill-rule="evenodd" clip-rule="evenodd" d="M654.839 667.462C652.031 667.312 649.226 667.16 646.45 667.007C649.264 667.157 652.053 667.309 654.839 667.462Z" fill="white"/>
<path fill-rule="evenodd" clip-rule="evenodd" d="M1458.44 827.152C1463.05 828.019 1467.65 828.889 1472.26 829.756C1467.65 828.886 1463.05 828.019 1458.44 827.152Z" fill="white"/>
<path fill-rule="evenodd" clip-rule="evenodd" d="M2455.24 287.692C2459.85 288.573 2464.46 289.454 2469.06 290.337C2464.45 289.454 2459.85 288.573 2455.24 287.692Z" fill="white"/>
<path fill-rule="evenodd" clip-rule="evenodd" d="M1289.53 798.938C1294.17 799.398 1298.82 799.858 1303.46 800.314C1298.81 799.855 1294.17 799.398 1289.53 798.938Z" fill="white"/>
<path fill-rule="evenodd" clip-rule="evenodd" d="M2453.08 248.201C2457.69 249.057 2462.3 249.91 2466.9 250.765C2462.29 249.91 2457.69 249.057 2453.08 248.201Z" fill="white"/>
<path fill-rule="evenodd" clip-rule="evenodd" d="M765.064 724.235C769.721 724.55 774.378 724.864 779.029 725.176C774.2 727.634 769.559 727.059 765.064 724.235Z" fill="white"/>
<path fill-rule="evenodd" clip-rule="evenodd" d="M1687.38 441.813C1687.72 438.093 1688.07 434.37 1688.42 430.664C1688.07 434.392 1687.72 438.104 1687.38 441.813Z" fill="white"/>
<path fill-rule="evenodd" clip-rule="evenodd" d="M1686.16 455.758C1686.5 452.036 1686.85 448.313 1687.19 444.608C1686.85 448.335 1686.5 452.047 1686.16 455.758Z" fill="white"/>
<path fill-rule="evenodd" clip-rule="evenodd" d="M1701.17 1135.63C1698.37 1135.45 1695.56 1135.27 1692.79 1135.09C1695.61 1135.27 1698.39 1135.45 1701.17 1135.63Z" fill="white"/>
<path fill-rule="evenodd" clip-rule="evenodd" d="M1944.84 616.093C1944.42 619.807 1943.98 623.521 1943.56 627.221C1943.99 623.503 1944.42 619.797 1944.84 616.093Z" fill="white"/>
<path fill-rule="evenodd" clip-rule="evenodd" d="M2004.81 1325.98C2009.49 1325.93 2014.18 1325.88 2018.87 1325.83C2014.18 1325.88 2009.49 1325.93 2004.81 1325.98Z" fill="white"/>
<path fill-rule="evenodd" clip-rule="evenodd" d="M1691.08 576.531C1695 574.506 1698.72 574.716 1702.23 577.493C1698.51 577.173 1694.79 576.851 1691.08 576.531Z" fill="white"/>
<path fill-rule="evenodd" clip-rule="evenodd" d="M1722.68 536.427C1720.82 536.136 1718.97 535.844 1717.14 535.554C1719 535.85 1720.84 536.137 1722.68 536.427Z" fill="white"/>
<path fill-rule="evenodd" clip-rule="evenodd" d="M1740.64 1102C1744.32 1102.76 1748 1103.51 1751.68 1104.26C1748 1103.51 1744.32 1102.76 1740.64 1102Z" fill="white"/>
<path fill-rule="evenodd" clip-rule="evenodd" d="M1613.57 1398.46C1617.32 1398.37 1621.07 1398.29 1624.83 1398.2C1621.07 1398.29 1617.32 1398.38 1613.57 1398.46Z" fill="white"/>
<path fill-rule="evenodd" clip-rule="evenodd" d="M1533.54 1413.97C1537.3 1413.86 1541.05 1413.75 1544.81 1413.65C1541.05 1413.75 1537.3 1413.86 1533.54 1413.97Z" fill="white"/>
<path fill-rule="evenodd" clip-rule="evenodd" d="M1499.34 1419.53C1503.1 1419.34 1506.87 1419.16 1510.63 1418.97L1499.34 1419.53Z" fill="white"/>
<path fill-rule="evenodd" clip-rule="evenodd" d="M1465.15 1424.93L1476.43 1424.44C1472.67 1424.61 1468.91 1424.77 1465.15 1424.93Z" fill="white"/>
<path fill-rule="evenodd" clip-rule="evenodd" d="M2186.29 1692.27C2183.48 1692.14 2180.67 1692.01 2177.9 1691.88C2180.72 1692.01 2183.51 1692.14 2186.29 1692.27Z" fill="white"/>
<path fill-rule="evenodd" clip-rule="evenodd" d="M1612.87 860.399C1616.55 861.143 1620.23 861.889 1623.91 862.636C1620.23 861.889 1616.55 861.143 1612.87 860.399Z" fill="white"/>
<path fill-rule="evenodd" clip-rule="evenodd" d="M2306.06 323.04C2304.19 322.935 2302.31 322.83 2300.47 322.727C2302.34 322.835 2304.2 322.936 2306.06 323.04Z" fill="white"/>
<path fill-rule="evenodd" clip-rule="evenodd" d="M640.88 666.454C639.016 666.241 637.155 666.03 635.316 665.818C637.187 666.03 639.032 666.242 640.88 666.454Z" fill="white"/>
<path fill-rule="evenodd" clip-rule="evenodd" d="M1428.26 818.934C1431.94 819.692 1435.62 820.45 1439.29 821.207C1435.61 820.45 1431.94 819.692 1428.26 818.934Z" fill="white"/>
<path fill-rule="evenodd" clip-rule="evenodd" d="M1007.37 748.493C1011.06 749.176 1014.74 749.861 1018.43 750.543C1014.74 749.861 1011.05 749.175 1007.37 748.493Z" fill="white"/>
<path fill-rule="evenodd" clip-rule="evenodd" d="M721.309 722.596C721.296 725.41 721.286 728.222 721.272 731.024C721.285 728.208 721.297 725.401 721.309 722.596Z" fill="white"/>
<path fill-rule="evenodd" clip-rule="evenodd" d="M682.269 707.196C686.024 707.083 689.779 706.973 693.536 706.858C689.781 706.974 686.024 707.083 682.269 707.196Z" fill="white"/>
<path fill-rule="evenodd" clip-rule="evenodd" d="M784.677 724.851C788.545 723.271 792.342 722.597 795.837 725.741C792.116 725.443 788.395 725.149 784.677 724.851Z" fill="white"/>
<path fill-rule="evenodd" clip-rule="evenodd" d="M2073.76 950.904C2087.24 952.984 2093.61 956.026 2097.26 969.093C2098.95 975.155 2094.07 986.554 2095.71 990.377C2097.9 995.452 2101.16 992.766 2104.98 997.579C2118.9 1015.17 2126.17 1050.21 2098.98 1062.35C2088.79 1049.94 2092.34 1035.54 2099.32 1022.72C2084.64 1019.33 2077.02 1018.82 2072.49 1004.12C2071.95 1002.36 2070.84 980.765 2070.4 980.297C2067.36 977.127 2055.07 980.328 2050.86 977.964C2041.55 972.735 2037.16 955.239 2039.5 945.395C2042.72 931.821 2057.07 924.886 2067.97 917.272C2032.99 918.131 2000.82 944.556 1965.83 946.325C1956.11 946.814 1953.67 951.144 1950.29 940.169C1947.29 930.419 1950.53 931.685 1957.13 926.836C1970.22 917.237 1990.28 910.907 2005.73 905.433C2028.16 897.477 2066.86 878.843 2091.15 889.262C2103.27 894.46 2111.88 910.402 2108.16 922.857C2104.53 935.007 2083.6 943.597 2073.76 950.904Z" fill="white"/>
<path fill-rule="evenodd" clip-rule="evenodd" d="M2087.77 769.988C2097.78 785.595 2102.17 802.081 2091.34 818.556C2106.74 817.296 2123.88 814.482 2133.92 828.421C2148.42 848.568 2133.43 855.169 2116.53 856.316C2102.95 857.239 2076.01 866.006 2064.11 856.851C2044.56 841.805 2064.02 813.32 2071.55 798.909C2059.13 799.301 2027.77 802.973 2033.18 779.711C2037.08 762.944 2075.57 767.188 2087.77 769.988Z" fill="white"/>
<path fill-rule="evenodd" clip-rule="evenodd" d="M1927.48 871.089L1915.36 885.364C1921.5 886.736 1929.83 881.527 1935.24 879.337C1932.66 876.587 1930.07 873.838 1927.48 871.089ZM1909.07 851.862C1894.67 849.84 1879.12 868.664 1875.8 847.629C1873.86 835.302 1885.4 819.515 1898.97 817.618C1922.64 814.312 1955.73 867.988 1961.64 886.492C1967.09 903.544 1961.28 901.187 1948.76 907.504C1937.92 912.973 1923.83 925.663 1909.76 921.82C1896.9 918.304 1892.93 897.694 1892.99 886.953C1893.08 870.398 1903.03 865.068 1909.07 851.862Z" fill="white"/>
<path fill-rule="evenodd" clip-rule="evenodd" d="M1982.39 851.797C1984.56 858.452 2000.28 889.567 1986.33 889.493C1978.58 889.453 1963.96 844.549 1961.87 839.416C1959 832.367 1952.96 822.645 1954.02 814.659C1955.86 800.849 1955.09 805.208 1964.45 806.711C1982.69 809.645 1997.76 837.409 2015 844.448C2007.86 817.941 1997.15 788.884 2004.48 761.82C2025.01 780.796 2025.9 819.888 2031.52 845.857C2033.24 853.76 2037.31 869.95 2028.67 875.308C2018.88 881.369 1988.99 856.003 1982.39 851.797Z" fill="white"/>
<path fill-rule="evenodd" clip-rule="evenodd" d="M1851.37 908.961C1858.17 894.675 1865.49 877.957 1840.36 883.247C1844.03 891.818 1847.7 900.388 1851.37 908.961ZM1843.23 849.2C1864.78 847.486 1877.05 875.781 1879.28 892.226C1881.06 905.342 1867.42 951.12 1849.02 937.302C1842.16 932.153 1838.3 918.08 1833.82 910.963C1827.67 901.22 1819.07 891.93 1814.41 881.453C1804.53 859.259 1822.24 849.258 1843.23 849.2Z" fill="white"/>
<path fill-rule="evenodd" clip-rule="evenodd" d="M1844.19 849.655C1839.5 849.717 1834.81 849.782 1830.12 849.844C1834.81 849.782 1839.5 849.718 1844.19 849.655Z" fill="white"/>
<path fill-rule="evenodd" clip-rule="evenodd" d="M2089.83 771.475C2086.16 770.634 2082.49 769.793 2078.82 768.951C2082.49 769.792 2086.16 770.633 2089.83 771.475Z" fill="white"/>
<path fill-rule="evenodd" clip-rule="evenodd" d="M2119.38 819.139C2115.66 818.803 2111.95 818.469 2108.23 818.13C2112.16 816.102 2115.87 816.472 2119.38 819.139Z" fill="white"/>
<path fill-rule="evenodd" clip-rule="evenodd" d="M1603.54 454.148C1621.7 467.187 1581.5 516.018 1565.58 476.427C1561.13 465.378 1562.52 451.655 1574.24 454.52C1579.52 455.81 1580.25 463.771 1587.57 464.069C1594.84 464.366 1598.41 458.12 1603.54 454.148Z" fill="white"/>
<path fill-rule="evenodd" clip-rule="evenodd" d="M1709.03 499.912C1709.32 490.146 1728.07 470.753 1738.75 483.572C1749.48 496.432 1717.14 499.608 1709.03 499.912Z" fill="white"/>
</svg>
