<svg xmlns="http://www.w3.org/2000/svg" xmlns:xlink="http://www.w3.org/1999/xlink" version="1.1" id="Layer_1" x="0px" y="0px" viewBox="0 0 1080 1080" style="enable-background:new 0 0 1080 1080;" xml:space="preserve">
<style type="text/css">
	.st0{opacity:0.31;fill:#DCE6EF;}
	.st1{opacity:0.77;fill:#FFBE55;}
	.st2{fill:#0B4870;}
	.st3{fill:#FFBE55;}
	.st4{fill:#F2F2F2;}
	.st5{fill:#D3D3D3;}
	.st6{fill:#FAB9AF;}
	.st7{fill:#E8948B;}
</style>
<g>
	<path class="st0" d="M899,745.11c-1.51,0.02-10.8-12.4-12.58-14.12c-14.55-14.08-23.28-29.55-29.84-46.38   c-5-12.83-8.73-26.46-12.8-40.84c-2.75-9.7-7.18-20.54-16.78-23.6c-9.34-2.97-19.4,3.19-25.14,11.13   c-5.75,7.94-8.64,17.57-13.55,26.05c-8.91,15.37-24.68,21.81-37.72,8.3c-18.62-19.3-27.01-45.62-38.82-69.16   c-8.57-17.09-15.75-37.1-26.55-52.86c-16.47-24.02-39.06-44.51-69.09-44.51c-19.04,2.88-35.81,19.75-47.17,40.82   c-11.35,21.07-17.98,46.14-23.62,71.14c-4.73,20.97-8.88,42.17-12.72,63.48c-7.14-25.68-14.57-51.17-22.61-76.22   c-8.71-27.13-18.33-54.16-31.69-75.87c-13.36-21.71-31.05-37.72-48.81-37.61c-27.37,5.3-45.03,32.32-56.61,62.26   c-7.59,19.63-11.27,43.41-16.65,64.15c-7.4,28.57-11.28,59.65-25.5,84.66c-9.95,17.5-25.25,13.04-35.56-2.69   c-5.69-8.68-9.7-19-16.07-26.92c-6.37-7.92-16.42-13.08-24.5-8.09c-8.31,5.13-10.8,18.12-11.92,29.51   c-1.66,16.91-3.11,32.89-5.84,48.21c-0.59,3.34-1.25,6.64-1.98,9.91h285.76c-0.2,1.22-0.4,2.45-0.59,3.67   C520.05,749.53,899,745.11,899,745.11z"/>
	<path class="st1" d="M784.66,706.27c-0.74,14.73-16.77,40.48-31.5,39.74c-14.73-0.74-22.59-27.7-21.84-42.43   c0.74-14.73,16.43-88.45,31.16-87.7C777.2,616.62,785.4,691.54,784.66,706.27z"/>
	<g>
		<path class="st2" d="M754.34,745.22c-0.01,0-0.02,0-0.02,0c-0.21-0.01-0.38-0.2-0.36-0.41l7.43-119.38    c0.01-0.21,0.18-0.39,0.41-0.36c0.21,0.01,0.38,0.2,0.36,0.41l-7.43,119.38C754.71,745.06,754.54,745.22,754.34,745.22z"/>
	</g>
	<path class="st1" d="M750.94,703.2c-3.35,7.37-5.91,15.1-7.45,23.16c-0.78,4.08-1.28,8.51,0.57,12.24   c2.02,4.07,6.5,6.44,10.98,7.18c10.95,1.8,21.9-4.91,28.32-13.96c6.42-9.05,9.2-20.12,11.75-30.91c2.01-8.5,3.98-17.13,7.77-25.05   c1.62-3.4,11.13-16.51,6.63-19.91c-6.15-4.83-23.95,0.42-35.35,12.88C764.76,679.07,756.68,690.6,750.94,703.2z"/>
	<g>
		<path class="st2" d="M755.04,746.16c-0.03,0-0.06,0-0.1-0.01c-0.21-0.05-0.33-0.27-0.28-0.47c0.13-0.52,13.62-51.91,45.25-81.17    c0.16-0.14,0.4-0.14,0.55,0.02c0.15,0.16,0.14,0.4-0.02,0.55c-31.47,29.1-44.89,80.28-45.02,80.79    C755.38,746.05,755.22,746.16,755.04,746.16z"/>
	</g>
	<path class="st1" d="M828.37,691.07c-1.13,2.03-3.25,3.41-5.18,4.49c-2.37,1.34-4.9,2.51-7.35,3.65c-3.14,1.46-6.38,2.97-9.38,4.85   c-2.18,1.37-4.12,2.92-5.75,4.58c2.57-5.84,5.58-10.94,9.12-15.5c4.66-6,9.44-9.04,14.23-9.04c0.11,0,0.22,0,0.33,0.01   c1.48,0.04,2.63,0.41,3.42,1.09C829.44,686.59,829.37,689.27,828.37,691.07z"/>
	<path class="st1" d="M833.71,724.34c-1.89,1.35-4.4,1.69-6.6,1.85c-2.72,0.19-5.51,0.17-8.2,0.16c-3.46-0.02-7.04-0.05-10.55,0.37   c-2.56,0.31-4.98,0.88-7.16,1.68c4.82-4.18,9.72-7.51,14.87-10.11c6.78-3.43,12.4-4.13,16.73-2.08c0.1,0.05,0.2,0.1,0.3,0.15   c1.32,0.67,2.2,1.49,2.63,2.45C836.59,720.75,835.38,723.15,833.71,724.34z"/>
	<path class="st1" d="M821.11,740.72c-1.57-0.22-2.98-1.22-4.15-2.18c-1.44-1.18-2.82-2.49-4.15-3.77   c-1.71-1.63-3.48-3.32-5.42-4.76c-1.42-1.05-2.89-1.9-4.35-2.52c4.36,0.18,8.35,0.82,12.14,1.94c4.98,1.47,8.1,3.76,9.29,6.8   c0.03,0.07,0.05,0.14,0.08,0.21c0.34,0.95,0.39,1.77,0.16,2.45C824.23,740.28,822.5,740.91,821.11,740.72z"/>
	<g>
		<path class="st2" d="M785.27,746.46c-0.2-0.02-0.39-0.17-0.39-0.39c0-0.32,0.59-32,38.77-58.55c0.18-0.12,0.42-0.08,0.54,0.1    c0.12,0.18,0.08,0.42-0.1,0.54c-37.85,26.32-38.44,57.6-38.44,57.91C785.66,746.28,785.49,746.46,785.27,746.46z"/>
	</g>
	<g>
		<path class="st2" d="M785.27,746.46c-0.06,0-0.11-0.01-0.17-0.04c-0.2-0.09-0.28-0.32-0.19-0.52    c0.12-0.25,12.28-25.52,44.17-25.52c0.22,0,0.39,0.17,0.39,0.39s-0.17,0.39-0.39,0.39c-31.38,0-43.35,24.82-43.46,25.07    C785.56,746.37,785.42,746.46,785.27,746.46z"/>
	</g>
	<g>
		<path class="st2" d="M821.83,737.51c-0.08,0-0.16-0.03-0.23-0.08c-12.62-9.52-18.83-9.24-18.88-9.23    c-0.22,0.02-0.4-0.15-0.42-0.36c-0.01-0.21,0.15-0.4,0.36-0.42c0.26-0.03,6.49-0.35,19.41,9.39c0.17,0.13,0.21,0.37,0.08,0.55    C822.07,737.45,821.95,737.51,821.83,737.51z"/>
	</g>
	<g>
		<path class="st3" d="M333.35,699.96c-5.55-6.41-12.58-11.93-14.8-20.02c-1.62-5.91-0.34-12.16,0.29-18.25s0.41-12.83-3.53-17.51    c-3.25-3.86-8.38-5.54-13.31-6.6c-4.93-1.06-10.08-1.73-14.46-4.24c-7.11-4.08-5.69-11.01-9.51-17.09    c-4.28-6.82-14.25-15.53-22.79-11c-9.04,4.8-7.61,19.37-1.6,25.8c3.99,4.27,9.1,8.36,9.69,14.18c0.88,8.75-9.14,16.63-6.39,24.99    c2.04,6.17,9.81,8.29,13.66,13.53c3.8,5.19,3.03,12.45,0.8,18.48c-2.24,6.03-5.76,11.6-7.15,17.87    c-2.85,12.84,7.23,21.71,18.71,24.58c10.55,2.63,33.3,1.39,33.3,1.39c8.12-2.84,17.12-9.97,21.59-17.77    c3.37-5.89,3.84-13.35,1.23-19.62C337.73,705.46,335.67,702.63,333.35,699.96z"/>
		<g>
			<path class="st2" d="M308.43,746.13c-0.2,0-0.38-0.16-0.39-0.37c-4.17-65.77-42.62-125.85-43.01-126.45     c-0.12-0.18-0.07-0.42,0.12-0.54c0.18-0.12,0.42-0.07,0.54,0.12c0.39,0.6,38.95,60.86,43.14,126.82c0.01,0.21-0.15,0.4-0.36,0.41     C308.45,746.13,308.44,746.13,308.43,746.13z"/>
		</g>
		<path class="st3" d="M230.76,700.04c0.6-0.51,1.47-0.79,2.59-0.82c0.08,0,0.17,0,0.25,0c3.61,0,7.23,2.3,10.76,6.83    c2.68,3.45,4.95,7.31,6.89,11.72c-1.23-1.26-2.7-2.43-4.35-3.46c-2.26-1.42-4.72-2.56-7.09-3.67c-1.85-0.86-3.76-1.75-5.55-2.76    c-1.46-0.82-3.06-1.87-3.92-3.4C229.58,703.12,229.53,701.09,230.76,700.04z"/>
		<path class="st3" d="M224.78,725.45c0.32-0.72,0.99-1.34,1.99-1.85c0.07-0.04,0.15-0.07,0.22-0.11c3.27-1.55,7.52-1.02,12.65,1.57    c3.9,1.97,7.6,4.49,11.25,7.65c-1.65-0.61-3.48-1.04-5.41-1.27c-2.66-0.32-5.36-0.3-7.98-0.28c-2.04,0.01-4.15,0.03-6.2-0.12    c-1.67-0.12-3.56-0.38-4.99-1.4C225.03,728.74,224.12,726.92,224.78,725.45z"/>
		<path class="st3" d="M233.1,740.65c-0.18-0.51-0.14-1.13,0.12-1.85c0.02-0.05,0.04-0.11,0.06-0.16c0.9-2.3,3.26-4.03,7.03-5.14    c2.86-0.85,5.88-1.33,9.18-1.47c-1.11,0.47-2.22,1.11-3.29,1.91c-1.47,1.09-2.81,2.36-4.1,3.6c-1.01,0.96-2.05,1.96-3.14,2.85    c-0.88,0.72-1.95,1.48-3.14,1.65C234.77,742.17,233.47,741.69,233.1,740.65z"/>
		<g>
			<path class="st2" d="M262.92,746.46c-0.21,0-0.39-0.17-0.39-0.39c0-0.24-0.47-23.86-29.02-43.71c-0.18-0.12-0.22-0.37-0.1-0.54     c0.12-0.18,0.37-0.22,0.54-0.1c28.91,20.1,29.36,44.11,29.36,44.35C263.32,746.28,263.14,746.46,262.92,746.46     C262.93,746.46,262.93,746.46,262.92,746.46z"/>
		</g>
		<g>
			<path class="st2" d="M262.93,746.46c-0.15,0-0.29-0.08-0.35-0.22c-0.09-0.19-9.12-18.9-32.78-18.9c-0.22,0-0.39-0.17-0.39-0.39     s0.17-0.39,0.39-0.39c24.17,0,33.39,19.16,33.48,19.35c0.09,0.2,0.01,0.43-0.19,0.52C263.04,746.44,262.98,746.46,262.93,746.46z     "/>
		</g>
		<g>
			<path class="st2" d="M235.28,739.69c-0.12,0-0.23-0.05-0.31-0.16c-0.13-0.17-0.1-0.42,0.08-0.55c9.79-7.39,14.54-7.13,14.74-7.12     c0.21,0.02,0.38,0.2,0.36,0.42c-0.02,0.21-0.2,0.39-0.42,0.36l0,0c-0.05,0-4.71-0.2-14.21,6.96     C235.44,739.67,235.36,739.69,235.28,739.69z"/>
		</g>
	</g>
	<g>
		<path class="st3" d="M648.76,729.96H374.58c-6.04,0-10.95-4.91-10.95-10.95v-369c0-6.04,4.91-10.95,10.95-10.95h81.95v3h-81.95    c-4.38,0-7.95,3.57-7.95,7.95v369c0,4.38,3.57,7.95,7.95,7.95h274.18c4.38,0,7.95-3.57,7.95-7.95v-369c0-4.38-3.57-7.95-7.95-7.95    h-81.93v-3h81.93c6.04,0,10.95,4.91,10.95,10.95v369C659.71,725.04,654.8,729.96,648.76,729.96z"/>
	</g>
	<path class="st4" d="M637.32,710.56h-251.3c-2.13,0-3.86-1.73-3.86-3.86V362.32c0-2.13,1.73-3.86,3.86-3.86h251.3   c2.13,0,3.86,1.73,3.86,3.86V706.7C641.18,708.83,639.45,710.56,637.32,710.56z"/>
	<g>
		<path class="st3" d="M568.13,368.68H455.21v-36.95h32.69c0.22-12.92,10.8-23.37,23.77-23.37s23.55,10.45,23.77,23.37h32.69V368.68    z M458.21,365.68h106.92v-30.95h-32.82l0.1-1.98c0.01-0.2,0.03-0.41,0.03-0.62c0-11.45-9.32-20.77-20.77-20.77    s-20.77,9.32-20.77,20.77c0,0.21,0.02,0.42,0.03,0.62l0.1,1.98h-32.82V365.68z"/>
	</g>
	<g>
		<path class="st3" d="M511.67,346.14c-7.72,0-14.01-6.28-14.01-14.01s6.28-14.01,14.01-14.01s14.01,6.28,14.01,14.01    S519.39,346.14,511.67,346.14z M511.67,321.13c-6.07,0-11.01,4.94-11.01,11.01s4.94,11.01,11.01,11.01s11.01-4.94,11.01-11.01    S517.74,321.13,511.67,321.13z"/>
	</g>
	<path class="st5" d="M906,787.86H174c-11.6,0-21-9.4-21-21v0c0-11.6,9.4-21,21-21h732c11.6,0,21,9.4,21,21v0   C927,778.46,917.6,787.86,906,787.86z"/>
	<g>
		<g>
			<g>
				<path class="st2" d="M458.08,456.21h-43.27v-43.27h43.27V456.21z M415.81,455.21h41.27v-41.27h-41.27V455.21z"/>
			</g>
			<g>
				<g>
					<g>
						<polygon class="st2" points="437.87,446.67 423.57,435.44 426.04,432.3 437.6,441.37 462.63,417.26 465.4,420.14       "/>
					</g>
				</g>
			</g>
			<g>
				<g>
					<path class="st2" d="M615.6,425.44H477.87c-0.9,0-1.63-0.73-1.63-1.63l0,0c0-0.9,0.73-1.63,1.63-1.63H615.6       c0.9,0,1.63,0.73,1.63,1.63l0,0C617.23,424.71,616.5,425.44,615.6,425.44z"/>
				</g>
				<g>
					<path class="st2" d="M615.6,432.62H477.87c-0.9,0-1.63-0.73-1.63-1.63l0,0c0-0.9,0.73-1.63,1.63-1.63H615.6       c0.9,0,1.63,0.73,1.63,1.63l0,0C617.23,431.89,616.5,432.62,615.6,432.62z"/>
				</g>
				<g>
					<path class="st2" d="M615.6,439.79H477.87c-0.9,0-1.63-0.73-1.63-1.63l0,0c0-0.9,0.73-1.63,1.63-1.63H615.6       c0.9,0,1.63,0.73,1.63,1.63l0,0C617.23,439.06,616.5,439.79,615.6,439.79z"/>
				</g>
				<g>
					<path class="st2" d="M615.6,446.97H477.87c-0.9,0-1.63-0.73-1.63-1.63l0,0c0-0.9,0.73-1.63,1.63-1.63H615.6       c0.9,0,1.63,0.73,1.63,1.63l0,0C617.23,446.24,616.5,446.97,615.6,446.97z"/>
				</g>
			</g>
		</g>
		<g>
			<g>
				<path class="st2" d="M458.08,524.26h-43.27v-43.27h43.27V524.26z M415.81,523.26h41.27v-41.27h-41.27V523.26z"/>
			</g>
			<g>
				<g>
					<g>
						<polygon class="st2" points="437.87,514.72 423.57,503.49 426.04,500.35 437.6,509.42 462.63,485.31 465.4,488.19       "/>
					</g>
				</g>
			</g>
			<g>
				<g>
					<path class="st2" d="M615.6,493.49H477.87c-0.9,0-1.63-0.73-1.63-1.63l0,0c0-0.9,0.73-1.63,1.63-1.63H615.6       c0.9,0,1.63,0.73,1.63,1.63l0,0C617.23,492.76,616.5,493.49,615.6,493.49z"/>
				</g>
				<g>
					<path class="st2" d="M615.6,500.67H477.87c-0.9,0-1.63-0.73-1.63-1.63l0,0c0-0.9,0.73-1.63,1.63-1.63H615.6       c0.9,0,1.63,0.73,1.63,1.63l0,0C617.23,499.94,616.5,500.67,615.6,500.67z"/>
				</g>
				<g>
					<path class="st2" d="M615.6,507.84H477.87c-0.9,0-1.63-0.73-1.63-1.63l0,0c0-0.9,0.73-1.63,1.63-1.63H615.6       c0.9,0,1.63,0.73,1.63,1.63l0,0C617.23,507.11,616.5,507.84,615.6,507.84z"/>
				</g>
				<g>
					<path class="st2" d="M615.6,515.02H477.87c-0.9,0-1.63-0.73-1.63-1.63l0,0c0-0.9,0.73-1.63,1.63-1.63H615.6       c0.9,0,1.63,0.73,1.63,1.63l0,0C617.23,514.29,616.5,515.02,615.6,515.02z"/>
				</g>
			</g>
		</g>
		<g>
			<g>
				<path class="st2" d="M458.08,592.31h-43.27v-43.27h43.27V592.31z M415.81,591.31h41.27v-41.27h-41.27V591.31z"/>
			</g>
			<g>
				<g>
					<g>
						<polygon class="st2" points="437.87,582.77 423.57,571.54 426.04,568.4 437.6,577.47 462.63,553.36 465.4,556.24       "/>
					</g>
				</g>
			</g>
			<g>
				<g>
					<path class="st2" d="M615.6,561.54H477.87c-0.9,0-1.63-0.73-1.63-1.63l0,0c0-0.9,0.73-1.63,1.63-1.63H615.6       c0.9,0,1.63,0.73,1.63,1.63l0,0C617.23,560.81,616.5,561.54,615.6,561.54z"/>
				</g>
				<g>
					<path class="st2" d="M615.6,568.72H477.87c-0.9,0-1.63-0.73-1.63-1.63l0,0c0-0.9,0.73-1.63,1.63-1.63H615.6       c0.9,0,1.63,0.73,1.63,1.63l0,0C617.23,567.99,616.5,568.72,615.6,568.72z"/>
				</g>
				<g>
					<path class="st2" d="M615.6,575.89H477.87c-0.9,0-1.63-0.73-1.63-1.63l0,0c0-0.9,0.73-1.63,1.63-1.63H615.6       c0.9,0,1.63,0.73,1.63,1.63l0,0C617.23,575.16,616.5,575.89,615.6,575.89z"/>
				</g>
				<g>
					<path class="st2" d="M615.6,583.07H477.87c-0.9,0-1.63-0.73-1.63-1.63l0,0c0-0.9,0.73-1.63,1.63-1.63H615.6       c0.9,0,1.63,0.73,1.63,1.63l0,0C617.23,582.34,616.5,583.07,615.6,583.07z"/>
				</g>
			</g>
		</g>
		<g>
			<g>
				<path class="st2" d="M458.08,660.36h-43.27v-43.27h43.27V660.36z M415.81,659.36h41.27v-41.27h-41.27V659.36z"/>
			</g>
			<g>
				<g>
					<g>
						<polygon class="st2" points="437.87,650.82 423.57,639.59 426.04,636.45 437.6,645.52 462.63,621.41 465.4,624.29       "/>
					</g>
				</g>
			</g>
			<g>
				<g>
					<path class="st2" d="M615.6,629.59H477.87c-0.9,0-1.63-0.73-1.63-1.63l0,0c0-0.9,0.73-1.63,1.63-1.63H615.6       c0.9,0,1.63,0.73,1.63,1.63l0,0C617.23,628.86,616.5,629.59,615.6,629.59z"/>
				</g>
				<g>
					<path class="st2" d="M615.6,636.77H477.87c-0.9,0-1.63-0.73-1.63-1.63l0,0c0-0.9,0.73-1.63,1.63-1.63H615.6       c0.9,0,1.63,0.73,1.63,1.63l0,0C617.23,636.04,616.5,636.77,615.6,636.77z"/>
				</g>
				<g>
					<path class="st2" d="M615.6,643.94H477.87c-0.9,0-1.63-0.73-1.63-1.63l0,0c0-0.9,0.73-1.63,1.63-1.63H615.6       c0.9,0,1.63,0.73,1.63,1.63l0,0C617.23,643.21,616.5,643.94,615.6,643.94z"/>
				</g>
				<g>
					<path class="st2" d="M615.6,651.12H477.87c-0.9,0-1.63-0.73-1.63-1.63l0,0c0-0.9,0.73-1.63,1.63-1.63H615.6       c0.9,0,1.63,0.73,1.63,1.63l0,0C617.23,650.39,616.5,651.12,615.6,651.12z"/>
				</g>
			</g>
		</g>
	</g>
	<g>
		<g>
			<path class="st6" d="M622.57,581.32c2.24-1.59,4.3-3.43,5.25-3.97c0.4-0.22,1.64-0.5,1.99-0.61c1.04-0.31,2.7-0.63,3.42-1.44     l3.08-3.38c1.46-1.66,3.37-2.21,5.02-0.75l0,0c1.79,1.58,1.26,3.83-0.52,5.43l-2.11,2.4c-1.42,1.28-2.13,3.08-2.92,4.82     c-1.6,3.55-5.23,6.22-8.33,8.09c-1.95,1.17-4.9,0.34-8.77-0.98c-1.9-0.65-4.65-2.22-2.28-3.11c1.99-0.74,7.97,0.87,10.61-4.64     c0.13-0.27,0.41-0.99,0.14-1.24c-0.8-0.75-2.57,0.95-3.75,1.49c-1.66,0.76-2.99,0.5-3.4-0.11     C619.56,582.68,620.97,582.46,622.57,581.32z"/>
			<path class="st3" d="M706.73,460.43c0,0-4.94,59.3-22.67,79.31c-10.68,12.06-36.81,32.74-42.86,37.48     c-0.77,0.6-1.85,0.63-2.65,0.07c-0.51-0.36-1.09-0.8-1.59-1.24c-0.51-0.45-1.1-1.1-1.63-1.72c-0.88-1.03-0.84-2.56,0.08-3.55     c6.78-7.37,33.38-36.58,36.62-44.26c3.71-8.81,10.1-60.82,15.97-68.35C693.87,450.62,705.12,448.99,706.73,460.43z"/>
			<polygon class="st6" points="684.34,558.39 699.46,452.19 740.23,446.59 761.44,557.63    "/>
			<path class="st6" d="M715.86,722.96l-0.04,11.97c-0.01,2.44,0.32,4.86,0.98,7.2l1.04,3.69c0.85,3.03-1.42,6.03-4.57,6.02     c-8.15-0.03-22.09-0.01-25.68,0c-0.59,0-1.16-0.4-1.21-0.98c-0.3-3.49,9.79-5.84,17.4-8.78c5.79-2.24,5.48-12.65,4.77-18.73     c-0.27-2.3,1.65-4.25,3.95-4.06l0,0C714.4,719.45,715.87,721.05,715.86,722.96z"/>
			<path class="st6" d="M771.9,719.6l4.12,13.69c0.18,0.61,0.45,1.18,0.81,1.7l2.92,4.34c1.86,2.76,0.52,6.52-2.66,7.49     c0,0-5.9,2.07-11.97,4.07c-6.22,2.04-14.05,0.34-14.05-1.31c0-3.65,3.4-0.75,9.1-4.56c1.91-1.28,3.88-2.61,5.64-3.99     c4.9-3.85,0.62-13.59-2.38-19.08c-1.08-1.97,0.07-4.42,2.27-4.89l1.42-0.3C769.2,716.33,771.28,717.56,771.9,719.6z"/>
			<path class="st2" d="M729.77,559.42l-45.19-3.79c0,0-4.55,32.89,6.87,92.42c5.36,27.92,16.52,81.27,16.52,81.27     c2.77,1.21,5.58,1.51,8.44,0.8c0,0,0.85-23.53,1.37-48.88c0.5-24.3,0.63-50.27,2.18-58.77     C723.12,605.11,729.77,559.42,729.77,559.42z"/>
			<path class="st2" d="M720.44,559.99c-4.67,25.04-15.09,62.48,4.99,97.65c20.07,35.17,41.16,71.74,41.16,71.74     c2.72,0.11,5.18-0.87,7.47-2.61c0,0-3.52-15.94-8.61-34.56c-5.82-21.3-13.19-46.35-11.09-59.41c3.94-24.48,8.46-57.08,7.09-72.92     C760.07,544.04,722.89,546.83,720.44,559.99z"/>
			<path class="st4" d="M682.78,555.69l16.68-103.5l40.78-5.6l21.91,109.29c0.41,2.05-0.92,4.05-2.98,4.44     c-7.59,1.44-25.9,4.44-46.4,4.44c-15.3,0-23.9-2.97-27.81-4.86C683.38,559.14,682.5,557.43,682.78,555.69z"/>
			<path class="st6" d="M763.49,595.75c0.62-2.67,0.96-5.42,1.31-6.45c0.15-0.43,0.9-1.46,1.09-1.78c0.58-0.92,1.61-2.26,1.61-3.34     l0.08-4.57c0-2.21,1.07-3.88,3.27-3.88l0,0c2.39,0,3.48,2.04,3.2,4.42v3.2c-0.22,1.9,0.44,3.72,1,5.55     c1.14,3.72,0.19,8.12-0.9,11.58c-0.68,2.17-3.45,3.5-7.22,5.06c-1.85,0.77-4.96,1.41-3.77-0.82c1-1.87,6.55-4.61,4.89-10.5     c-0.08-0.29-0.34-1.02-0.71-1.03c-1.1-0.03-1.3,2.41-1.83,3.6c-0.74,1.67-1.91,2.35-2.63,2.17     C762.13,598.76,763.04,597.66,763.49,595.75z"/>
			<path class="st3" d="M727.5,453.04c0,7.46,1.36,14.84,3.9,21.85c4.98,13.71,12.46,39.63,8.01,62.47     c-6.39,32.89-14.62,46.18-3.96,53.85c10.66,7.66,31.1-5.12,31.69-9.39c0.59-4.26-3.98-56.63-9.15-79.32     c-5.18-22.69-19.68-55.31-19.68-55.31l-6.14,0.66C729.51,448.13,727.5,450.37,727.5,453.04L727.5,453.04z"/>
			<path class="st3" d="M746.66,449.41c0,0,35.52,47.75,35.45,74.48c-0.04,16.11-5.96,48.9-7.36,56.46c-0.18,0.96-0.96,1.7-1.94,1.8     c-0.62,0.07-1.35,0.12-2.01,0.12c-0.67,0-1.55-0.1-2.36-0.21c-1.34-0.19-2.32-1.36-2.29-2.72c0.21-10.01,0.85-49.51-1.81-57.42     c-3.05-9.07-32.65-52.29-33.23-61.83C730.52,450.56,737.89,441.89,746.66,449.41z"/>
			<path class="st3" d="M710.52,450.67c0,0-7.07,15.28-4.61,37.24c2.47,21.96,8.18,88.83-11.8,98.93     c-6.33,3.2-20.78-10.96-20.78-16.22s4.82-22.84,9.39-38.83c4.57-15.99,15.58-79.45,15.58-79.45L710.52,450.67z"/>
			<g>
				<path class="st6" d="M716.21,403.3c9.1,0,12.5,6.48,12.67,18.46c0.07,4.49-1.95,8.93-3.58,11.77c-1.21,2.11-1.54,4.61-0.85,6.94      l2,6.76c1.36,6.27-1.62,9.72-6.02,10.97c-2.18,0.62-4.79,0.14-6.69-1.09c-2.26-1.46-2.45-4.61-2.03-7.27l0.52-1.93      c0.7-2.6-0.81-5.4-3.44-5.97c-7.01-1.53-8.01-8.84-9.89-20.18C696.94,409.94,707.11,403.3,716.21,403.3z"/>
				<path class="st2" d="M695.02,398.04l5.22,1.59c1.92,0.58,3.96,0.6,5.89,0.04l10.42-3.02c6.31,0,16.74,3.56,15.42,12.67      l-1.16,6.44c-0.46,2.57-2.61,4.5-5.22,4.72c0,0,0,0,0,0c-0.24,0.89-1.05,1.51-1.97,1.51c-1.13,0-2.04-0.91-2.04-2.04l0,0      c0-2.91-2.04-5.38-4.87-6.02c-3.48-0.78-7.19-0.97-11.08,0.08c-7.24,1.95-14.88-2.54-15.6-10.01c-0.05-0.47-0.07-0.95-0.07-1.44      C689.95,399.54,692.44,397.33,695.02,398.04z"/>
				<path class="st6" d="M723.87,421.98c0,2.78,1.03,5.03,3.71,5.03c2.68,0,4.39-3.82,4.39-6.6c0-2.78-1.72-3.46-4.39-3.46      C724.9,416.95,723.87,419.21,723.87,421.98z"/>
			</g>
		</g>
		<path class="st7" d="M724.97,434.18c0,0-6.8,9.34-15.25,8.08c0,0,1.76,0.84,2.18,2.2C711.9,444.46,719.93,443.87,724.97,434.18z"/>
	</g>
	<path class="st4" d="M743,303.94c0,6.49-4.28,11.76-9.57,11.76H619.96c-5.28,0-9.57-5.26-9.57-11.76l0,0   c0-6.49,4.28-11.76,9.57-11.76h113.47C738.72,292.19,743,297.45,743,303.94L743,303.94z"/>
	<path class="st4" d="M336.83,366.9c0,6.49-5.26,11.76-11.76,11.76H185.65c-6.49,0-11.76-5.26-11.76-11.76l0,0   c0-6.49,5.26-11.76,11.76-11.76h139.43C331.57,355.14,336.83,360.4,336.83,366.9L336.83,366.9z"/>
	<path class="st4" d="M393.83,303.9c0,6.49-4.36,11.76-9.73,11.76H268.73c-5.37,0-9.73-5.26-9.73-11.76l0,0   c0-6.49,4.36-11.76,9.73-11.76H384.1C389.47,292.14,393.83,297.4,393.83,303.9L393.83,303.9z"/>
	<path class="st4" d="M867.22,354.86c0,6.49-5.26,11.76-11.76,11.76H716.04c-6.49,0-11.76-5.26-11.76-11.76l0,0   c0-6.49,5.26-11.76,11.76-11.76h139.43C861.96,343.11,867.22,348.37,867.22,354.86L867.22,354.86z"/>
</g>
<path class="st2" d="M717.07,743.07c0,0-6.32,2.79-12.21-1.55c0,0-14.54,2.33-18.71,6.63c-4.17,4.3-1.15,6.43,4.09,6.34  c5.23-0.09,25.45-0.3,25.45-0.3S720.88,751.02,717.07,743.07z"/>
<path class="st2" d="M777.83,736.01c0,0-3.08,4.05-9.98,1.65c0,0-15.34,7.01-18.05,12.35c-2.71,5.34,0.8,6.48,5.78,4.85  s24.22-7.81,24.22-7.81S783.82,742.47,777.83,736.01z"/>
</svg>