<svg width="2500" height="846" viewBox="0 0 2500 846" fill="none" xmlns="http://www.w3.org/2000/svg">
<g clip-path="url(#clip0)">
<path d="M101.978 -1.52588e-05H2398.02C2454.03 -1.52588e-05 2499.54 45.5148 2499.54 101.52V744.48C2499.54 800.485 2454.03 846 2398.02 846H101.978C45.9728 846 0.458008 800.485 0.458008 744.48V101.52C0.458008 45.5148 45.9728 -1.52588e-05 101.978 -1.52588e-05Z" fill="black"/>
<path d="M547.482 403.711C546.974 343.138 597.057 313.697 599.257 312.343C570.831 271.058 526.839 265.306 511.442 264.798C474.556 260.906 438.686 286.963 419.905 286.963C400.785 286.963 371.683 265.306 340.55 265.813C300.45 266.49 262.718 289.67 242.245 325.879C199.776 399.481 231.416 507.769 272.193 567.328C292.666 596.43 316.354 629.086 347.656 627.901C378.112 626.717 389.618 608.443 426.334 608.443C462.882 608.443 473.541 627.901 505.351 627.224C538.176 626.717 558.649 597.953 578.445 568.512C601.964 535.18 611.439 502.186 611.778 500.494C610.932 500.155 548.158 476.129 547.482 403.711" fill="white"/>
<path d="M487.416 225.713C503.828 205.24 514.995 177.322 511.95 148.896C488.262 149.911 458.482 165.308 441.393 185.443C426.334 203.209 412.798 232.142 416.182 259.384C442.916 261.414 470.326 245.848 487.416 225.713" fill="white"/>
<path d="M989.432 623.671H946.794L923.444 550.238H842.228L820.063 623.671H778.609L858.979 373.763H908.724L989.432 623.671ZM916.507 519.444L895.357 454.302C893.157 447.534 888.927 431.968 882.836 407.264H881.99C879.452 417.924 875.56 433.66 870.146 454.302L849.334 519.444H916.507Z" fill="white"/>
<path d="M1196.03 531.457C1196.03 562.082 1187.73 586.278 1170.98 604.044C1156.09 619.949 1137.48 627.732 1115.49 627.732C1091.63 627.732 1074.54 619.272 1064.05 602.183V696.766H1023.95V502.693C1023.95 483.404 1023.44 463.777 1022.43 443.473H1057.62L1059.82 472.068H1060.5C1073.86 450.58 1094.17 439.751 1121.24 439.751C1142.56 439.751 1160.15 448.211 1174.37 464.962C1188.92 481.882 1196.03 503.878 1196.03 531.457V531.457ZM1155.25 532.811C1155.25 515.214 1151.36 500.832 1143.4 489.496C1134.77 477.652 1123.1 471.73 1108.55 471.73C1098.74 471.73 1089.77 475.114 1081.65 481.543C1073.69 488.142 1068.28 496.602 1065.91 507.262C1064.73 512.168 1064.05 516.229 1064.05 519.444V549.562C1064.05 562.59 1068.11 573.757 1076.06 582.725C1084.01 591.692 1094.51 596.261 1107.36 596.261C1122.42 596.261 1134.1 590.339 1142.56 578.833C1151.02 567.158 1155.25 551.93 1155.25 532.811V532.811Z" fill="white"/>
<path d="M1403.13 531.457C1403.13 562.082 1394.84 586.278 1378.08 604.044C1363.19 619.949 1344.58 627.732 1322.59 627.732C1298.73 627.732 1281.64 619.272 1271.15 602.183V696.766H1231.05V502.693C1231.05 483.404 1230.54 463.777 1229.53 443.473H1264.72L1266.92 472.068H1267.6C1280.96 450.58 1301.27 439.751 1328.34 439.751C1349.66 439.751 1367.26 448.211 1381.47 464.962C1396.02 481.882 1403.13 503.878 1403.13 531.457ZM1362.35 532.811C1362.35 515.214 1358.46 500.832 1350.5 489.496C1341.88 477.652 1330.2 471.73 1315.65 471.73C1305.84 471.73 1296.87 475.114 1288.75 481.543C1280.79 488.142 1275.55 496.602 1273.01 507.262C1271.83 512.168 1271.15 516.229 1271.15 519.444V549.562C1271.15 562.59 1275.21 573.757 1283.16 582.725C1291.12 591.692 1301.61 596.261 1314.47 596.261C1329.52 596.261 1341.37 590.339 1349.66 578.833C1358.29 567.158 1362.35 551.93 1362.35 532.811V532.811Z" fill="white"/>
<path d="M1634.93 553.622C1634.93 574.942 1627.49 592.2 1612.76 605.567C1596.52 620.118 1573.85 627.394 1544.75 627.394C1517.84 627.394 1496.36 622.148 1480.11 611.827L1489.42 578.495C1507.01 588.816 1526.3 594.061 1547.28 594.061C1562.34 594.061 1574.19 590.677 1582.48 583.909C1590.94 577.141 1595.17 568.004 1595.17 556.668C1595.17 546.516 1591.61 538.056 1584.85 531.119C1577.91 524.182 1566.4 517.752 1550.33 511.83C1506.17 495.418 1484.34 471.56 1484.34 440.258C1484.34 419.785 1492.13 403.034 1507.52 389.837C1522.92 376.808 1543.39 370.21 1568.94 370.21C1591.61 370.21 1610.57 374.101 1625.62 382.054L1615.47 414.54C1601.26 406.926 1585.35 403.034 1567.42 403.034C1553.38 403.034 1542.21 406.588 1534.26 413.356C1527.66 419.616 1524.27 427.061 1524.27 436.028C1524.27 445.842 1528.16 454.133 1535.78 460.393C1542.38 466.315 1554.56 472.745 1572.16 479.682C1593.65 488.311 1609.38 498.463 1619.53 510.138C1629.85 521.813 1634.93 536.364 1634.93 553.622" fill="white"/>
<path d="M1767.58 473.591H1723.42V561.067C1723.42 583.232 1731.2 594.4 1746.77 594.4C1753.88 594.4 1759.8 593.723 1764.54 592.538L1765.72 622.994C1757.77 625.871 1747.45 627.394 1734.59 627.394C1718.68 627.394 1706.5 622.487 1697.53 612.842C1688.57 603.198 1684.17 586.955 1684.17 564.282V473.422H1657.94V443.473H1684.17V410.479L1723.42 398.635V443.473H1767.58V473.591" fill="white"/>
<path d="M1966.22 532.134C1966.22 559.883 1958.27 582.556 1942.54 600.322C1925.95 618.595 1903.96 627.732 1876.55 627.732C1850.15 627.732 1829 618.934 1813.27 601.506C1797.53 584.078 1789.75 561.913 1789.75 535.18C1789.75 507.262 1797.87 484.42 1813.94 466.654C1830.19 448.888 1852.01 439.92 1879.42 439.92C1905.82 439.92 1927.14 448.718 1943.21 466.315C1958.61 483.235 1966.22 505.231 1966.22 532.134V532.134ZM1924.77 532.98C1924.77 516.398 1921.22 502.355 1914.11 490.511C1905.65 476.129 1893.64 469.022 1878.07 469.022C1862 469.022 1849.64 476.129 1841.35 490.511C1834.08 502.355 1830.69 516.737 1830.69 533.826C1830.69 550.408 1834.25 564.62 1841.35 576.295C1849.98 590.677 1862.17 597.784 1877.73 597.784C1892.96 597.784 1904.97 590.508 1913.77 575.957C1921.05 563.774 1924.77 549.562 1924.77 532.98V532.98Z" fill="white"/>
<path d="M2096.51 478.667C2092.62 477.99 2088.39 477.652 2083.82 477.652C2069.77 477.652 2058.78 482.897 2051.16 493.556C2044.56 502.862 2041.18 514.876 2041.18 529.088V623.671H2001.08V500.155C2001.08 479.344 2000.74 460.393 1999.89 443.473H2034.75L2036.27 477.99H2037.46C2041.69 466.146 2048.29 456.502 2057.42 449.395C2066.39 442.966 2076.03 439.751 2086.36 439.751C2090.08 439.751 2093.46 440.089 2096.34 440.428L2096.51 478.667" fill="white"/>
<path d="M2275.52 525.028C2275.52 532.134 2275.01 538.225 2274 543.132H2153.87C2154.37 560.898 2160.13 574.603 2171.29 583.909C2181.45 592.2 2194.47 596.43 2210.55 596.43C2228.31 596.43 2244.56 593.554 2259.11 587.97L2265.37 615.719C2248.28 623.164 2228.15 626.886 2204.96 626.886C2177.05 626.886 2155.05 618.595 2139.15 602.183C2123.24 585.77 2115.29 563.605 2115.29 536.026C2115.29 508.954 2122.73 486.281 2137.62 468.176C2153.19 448.888 2174.17 439.243 2200.57 439.243C2226.45 439.243 2246.25 448.888 2259.45 468.176C2270.11 483.743 2275.52 502.524 2275.52 525.028V525.028ZM2237.28 514.706C2237.62 502.862 2234.91 492.541 2229.5 483.912C2222.56 472.745 2211.9 467.161 2197.69 467.161C2184.66 467.161 2174 472.576 2165.88 483.404C2159.28 492.034 2155.22 502.524 2154.04 514.537L2237.28 514.706V514.706Z" fill="white"/>
<path d="M897.218 284.425H876.237L864.732 248.386H824.801L813.803 284.425H793.499L832.922 161.586H857.287L897.218 284.425ZM861.179 233.158L850.857 201.01C849.842 197.795 847.812 190.012 844.597 177.829H844.259C842.905 183.074 841.213 190.688 838.337 201.01L828.185 233.158H861.179Z" fill="white"/>
<path d="M996.031 195.764L962.529 284.425H943.41L910.923 195.764H932.073L947.132 242.633C949.67 250.416 951.87 257.861 953.562 264.967H954.069C955.592 258.538 957.792 251.093 960.499 242.633L975.389 195.764H996.031" fill="white"/>
<path d="M1067.43 284.425L1065.91 274.273H1065.4C1059.31 282.395 1050.68 286.456 1039.52 286.456C1023.61 286.456 1012.44 275.288 1012.44 260.399C1012.44 238.572 1031.39 227.236 1064.22 227.236V225.544C1064.22 213.869 1057.96 208.116 1045.78 208.116C1036.98 208.116 1029.36 210.316 1022.6 214.715L1018.53 201.856C1026.66 196.78 1036.98 194.242 1048.99 194.242C1072.17 194.242 1083.85 206.424 1083.85 230.958V263.614C1083.85 272.581 1084.18 279.518 1085.2 284.764L1067.43 284.425V284.425ZM1064.73 240.264C1042.9 240.264 1031.9 245.509 1031.9 258.199C1031.9 267.505 1037.48 272.074 1045.44 272.074C1055.42 272.074 1064.73 264.46 1064.73 253.969V240.264Z" fill="white"/>
<path d="M1127.67 181.213C1121.07 181.213 1115.99 176.137 1115.99 169.369C1115.99 162.601 1121.24 157.694 1128.01 157.694C1134.77 157.694 1140.19 162.601 1140.02 169.369C1140.02 176.476 1134.94 181.213 1127.67 181.213V181.213ZM1118.19 195.764H1137.82V284.256H1118.19V195.764V195.764Z" fill="white"/>
<path d="M1172.84 155.156H1192.47V284.256H1172.84V155.156Z" fill="white"/>
<path d="M1276.06 284.425L1274.53 274.273H1274.03C1267.94 282.395 1259.31 286.456 1248.14 286.456C1232.23 286.456 1221.07 275.288 1221.07 260.399C1221.07 238.572 1240.02 227.236 1272.84 227.236V225.544C1272.84 213.869 1266.58 208.116 1254.4 208.116C1245.6 208.116 1237.99 210.316 1231.22 214.715L1227.16 201.686C1235.28 196.61 1245.6 194.072 1257.61 194.072C1280.79 194.072 1292.47 206.255 1292.47 230.789V263.444C1292.47 272.412 1292.81 279.349 1293.65 284.594H1276.06V284.425V284.425ZM1273.35 240.264C1251.52 240.264 1240.52 245.509 1240.52 258.199C1240.52 267.505 1246.11 272.074 1254.06 272.074C1264.04 272.074 1273.35 264.46 1273.35 253.969V240.264Z" fill="white"/>
<path d="M1372.33 286.456C1359.81 286.456 1350.5 281.21 1344.41 270.72H1344.08L1342.89 284.425H1326.14C1326.65 277.319 1326.82 269.366 1326.82 260.568V155.156H1346.61V208.793H1346.95C1352.87 198.979 1362.18 194.072 1375.21 194.072C1396.53 194.072 1411.42 212.346 1411.42 238.91C1411.42 266.321 1394.84 286.456 1372.33 286.456V286.456ZM1368.27 209.47C1356.93 209.47 1346.61 219.283 1346.61 232.988V248.555C1346.61 260.737 1355.92 270.72 1367.93 270.72C1382.65 270.72 1391.45 258.707 1391.45 239.587C1391.45 221.652 1382.31 209.47 1368.27 209.47V209.47Z" fill="white"/>
<path d="M1440.52 155.156H1460.15V284.256H1440.52V155.156Z" fill="white"/>
<path d="M1567.25 244.832H1508.2C1508.54 261.583 1519.71 271.058 1536.12 271.058C1544.92 271.058 1552.87 269.536 1559.97 266.828L1563.02 280.534C1554.73 284.256 1544.92 285.948 1533.41 285.948C1505.66 285.948 1489.25 268.52 1489.25 241.279C1489.25 214.207 1506 193.734 1531.21 193.734C1553.71 193.734 1568.1 210.485 1568.1 235.865C1568.1 239.418 1567.93 242.464 1567.25 244.832V244.832ZM1549.32 230.789C1549.32 217.084 1542.38 207.439 1529.86 207.439C1518.52 207.439 1509.72 217.253 1508.37 230.789H1549.32Z" fill="white"/>
<path d="M1686.54 286.456C1660.65 286.456 1643.9 267.167 1643.9 240.941C1643.9 213.53 1660.99 194.072 1688.06 194.072C1713.61 194.072 1730.7 212.515 1730.7 239.418C1730.7 266.998 1713.1 286.456 1686.54 286.456ZM1687.38 208.454C1673.17 208.454 1664.03 221.821 1664.03 240.264C1664.03 258.538 1673.34 271.735 1687.21 271.735C1701.09 271.735 1710.39 257.522 1710.39 239.756C1710.22 221.821 1701.26 208.454 1687.38 208.454V208.454Z" fill="white"/>
<path d="M1836.45 284.425H1816.82V233.496C1816.82 217.76 1810.73 209.977 1798.89 209.977C1787.21 209.977 1779.26 219.96 1779.26 231.635V284.256H1759.63V221.144C1759.63 213.361 1759.46 204.901 1758.95 195.764H1776.21L1777.06 209.47H1777.57C1782.81 199.994 1793.64 193.903 1805.65 193.903C1824.27 193.903 1836.45 208.116 1836.45 231.296V284.425Z" fill="white"/>
<path d="M1965.21 210.654H1943.55V253.631C1943.55 264.629 1947.44 270.043 1955.06 270.043C1958.44 270.043 1961.49 269.705 1963.85 269.197L1964.36 284.087C1960.47 285.61 1955.39 286.286 1949.13 286.286C1933.57 286.286 1924.43 277.657 1924.43 255.323V210.654H1911.57V195.934H1924.43V179.69L1943.72 173.768V195.764H1965.38V210.654" fill="white"/>
<path d="M2069.44 284.425H2049.81V233.834C2049.81 217.93 2043.72 209.977 2031.87 209.977C2021.72 209.977 2012.25 216.914 2012.25 230.958V284.256H1992.62V155.156H2012.25V208.285H2012.58C2018.84 198.641 2027.64 193.903 2039.15 193.903C2057.93 193.903 2069.44 208.454 2069.44 231.635V284.425" fill="white"/>
<path d="M2169.94 244.832H2110.89C2111.23 261.583 2122.4 271.058 2138.81 271.058C2147.61 271.058 2155.56 269.536 2162.67 266.828L2165.71 280.534C2157.42 284.256 2147.61 285.948 2136.1 285.948C2108.35 285.948 2091.94 268.52 2091.94 241.279C2091.94 214.207 2108.69 193.734 2133.9 193.734C2156.4 193.734 2170.79 210.485 2170.79 235.865C2170.79 239.418 2170.62 242.464 2169.94 244.832V244.832ZM2152.01 230.789C2152.01 217.084 2145.07 207.439 2132.55 207.439C2121.21 207.439 2112.24 217.253 2111.06 230.789H2152.01Z" fill="white"/>
</g>
<defs>
<clipPath id="clip0">
<rect width="2500" height="846" fill="white"/>
</clipPath>
</defs>
</svg>
