<svg width="160" height="41" viewBox="0 0 160 41" fill="none" xmlns="http://www.w3.org/2000/svg">
<g clip-path="url(#clip0)">
<path opacity="0.56" d="M15.4836 3.41667C15.4836 1.52896 17.0234 0 18.9245 0H20.6449C32.0471 0 41.2901 9.17802 41.2901 20.5V37.5833C41.2901 39.471 39.7503 41 37.8493 41H36.1288C24.7267 41 15.4836 31.822 15.4836 20.5V3.41667Z" fill="#4A6CF7"/>
<path opacity="0.88" d="M17.2043 40.9999C26.706 40.9999 34.4086 33.3514 34.4086 23.9166C34.4086 14.4817 26.706 6.83325 17.2043 6.83325C7.70263 6.83325 0 14.4817 0 23.9166C0 33.3514 7.70263 40.9999 17.2043 40.9999Z" fill="#4A6CF7"/>
<path d="M64.8183 32.5732H70.5586L62.4996 10.25H56.2244L48.1719 32.5732H53.8463L55.1805 28.63H63.4837L64.8183 32.5732ZM62.0902 24.4325H56.6076L59.3289 16.2601L62.0902 24.4325ZM81.1543 25.9271L77.0652 14.8291H71.008L78.208 31.969L74.1457 41H79.9848L91.0824 14.8291H85.2166L81.1543 25.9271ZM98.4609 24.3371C98.4609 21.2844 99.9538 20.394 102.524 20.394H104.01V14.6383C101.632 14.6383 99.6962 15.9103 98.4609 17.7864V14.8291H93.0377V32.5732H98.4609V24.3371ZM123.913 23.7011C123.913 18.0726 119.923 14.5747 114.718 14.5747C109.552 14.5747 105.522 18.0726 105.522 23.7011C105.522 29.3296 109.46 32.8275 114.658 32.8275C119.857 32.8275 123.913 29.3296 123.913 23.7011ZM111.045 23.7011C111.045 20.6802 112.756 19.281 114.718 19.281C116.62 19.281 118.397 20.6802 118.397 23.7011C118.397 26.6903 116.594 28.1213 114.658 28.1213C112.69 28.1213 111.045 26.6903 111.045 23.7011ZM135.658 24.4007C135.658 30.1564 139.397 32.7958 143.968 32.7958C148.532 32.7958 152.304 30.1564 152.304 24.4007V10.409H149.418V24.4325C149.418 28.5029 147.264 30.2518 143.994 30.2518C140.731 30.2518 138.544 28.5029 138.544 24.4325V10.409H135.658V24.4007ZM157.12 32.5732H160V10.409H157.12V32.5732Z" fill="#2D2D2D"/>
</g>
<defs>
<clipPath id="clip0">
<rect width="160" height="41" fill="white"/>
</clipPath>
</defs>
</svg>
