<svg width="2500" height="846" viewBox="0 0 2500 846" fill="none" xmlns="http://www.w3.org/2000/svg">
<path d="M101.52 0H2397.56C2453.57 0 2499.08 45.5148 2499.08 101.52V744.48C2499.08 800.485 2453.57 846 2397.56 846H101.52C45.5148 846 0 800.485 0 744.48V101.52C0 45.5148 45.5148 0 101.52 0Z" fill="white"/>
<path d="M277.423 181.022C272.415 182.319 268.875 186.648 268.875 194.092C268.875 215.942 268.875 421.982 268.875 421.982C268.875 421.982 268.875 644.645 268.875 654.479C268.875 659.886 271.264 663.512 274.938 664.858L519.632 421.582L277.423 181.022Z" fill="#4DB6AC"/>
<path d="M587 354.615L486.277 296.464C486.277 296.464 301.432 189.727 290.568 183.459C285.863 180.743 281.231 180.027 277.424 181.021L519.645 421.581L587 354.615Z" fill="#DCE775"/>
<path d="M286.056 663.099C292.507 659.365 471.375 556.096 587.544 489.021L519.632 421.581L274.938 664.857C277.945 665.961 281.8 665.548 286.056 663.099Z" fill="#D32F2F"/>
<path d="M685.95 411.736C676.298 406.534 587.737 355.039 587.737 355.039L586.998 354.615L519.631 421.581L587.543 489.02C641.281 457.993 681.645 434.7 685.259 432.603C696.705 426.007 695.601 416.937 685.95 411.736Z" fill="#FBC02D"/>
<path d="M961.876 245.845C961.876 260.441 957.559 272.06 948.949 280.75C939.134 291.062 926.376 296.217 910.676 296.217C895.652 296.217 882.87 290.989 872.355 280.532C861.816 270.051 856.559 257.076 856.559 241.609C856.559 226.117 861.816 213.167 872.355 202.685C882.87 192.228 895.652 187 910.676 187C918.128 187 925.267 188.452 932.043 191.381C938.844 194.31 944.271 198.183 948.346 203.073L939.182 212.247C932.285 203.993 922.807 199.853 910.676 199.853C899.703 199.853 890.225 203.702 882.219 211.448C874.236 219.194 870.233 229.239 870.233 241.609C870.233 253.978 874.236 264.023 882.219 271.769C890.225 279.491 899.703 283.364 910.676 283.364C922.3 283.364 931.995 279.467 939.761 271.697C944.801 266.613 947.719 259.57 948.491 250.516H910.676V237.954H961.152C961.634 240.689 961.876 243.303 961.876 245.845Z" fill="black"/>
<path d="M961.279 245.809H960.659C960.659 260.123 956.463 271.444 948.046 279.893C938.461 289.97 926.063 294.997 910.66 294.997C895.924 294.997 883.478 289.898 873.202 279.654C862.901 269.41 857.775 256.796 857.775 241.621C857.775 226.446 862.901 213.808 873.202 203.587C883.478 193.343 895.924 188.245 910.66 188.221C917.956 188.221 924.918 189.657 931.547 192.505C938.175 195.377 943.492 199.159 947.426 203.898L947.903 203.515L947.474 203.061L938.414 212.156L938.843 212.587L939.32 212.204C932.381 203.874 922.772 199.71 910.66 199.71C899.668 199.71 890.131 203.611 882.119 211.366C874.084 219.121 870.054 229.27 870.054 241.621C870.054 253.971 874.084 264.096 882.119 271.875C890.131 279.63 899.668 283.532 910.66 283.508C922.295 283.532 932.071 279.606 939.844 271.803C944.947 266.657 947.879 259.524 948.666 250.477L948.714 249.807H911.256V238.629H960.564V238.006L959.944 238.126C960.445 240.783 960.659 243.344 960.659 245.809H961.876C961.876 243.272 961.661 240.639 961.16 237.911L961.065 237.408H910.04V251.027H948.046V250.429L947.45 250.381C946.687 259.213 943.85 266.035 938.986 270.942C931.427 278.505 922.033 282.287 910.66 282.287C899.954 282.287 890.774 278.553 882.954 270.989C875.181 263.45 871.294 253.708 871.27 241.621C871.294 229.533 875.181 219.792 882.954 212.252C890.774 204.688 899.954 200.954 910.66 200.954C922.51 200.954 931.666 204.952 938.39 212.994L938.819 213.497L948.738 203.539L948.356 203.109C944.279 198.202 938.819 194.324 932.047 191.38C925.252 188.484 918.123 187 910.66 187C895.662 187 882.834 192.242 872.343 202.702C861.828 213.161 856.535 226.182 856.559 241.621C856.535 257.059 861.828 270.08 872.343 280.54C882.834 290.976 895.662 296.217 910.66 296.217C926.301 296.217 939.129 291.071 948.929 280.731L948.499 280.324L948.905 280.755C957.584 272.043 961.899 260.362 961.876 245.809H961.279Z" fill="black"/>
<path d="M1041.84 202.613H993.923V235.409H1037.11V247.809H993.923V280.605H1041.84V293.292H980.404V189.925H1041.84V202.613Z" fill="black"/>
<path d="M1041.24 202.35V201.747H993.636V235.969H1036.01V247.248H993.636V281.47H1040.62V293.038H981.622V190.179H1040.62V202.35H1041.24V201.747V202.35H1041.84V188.95H980.404V294.267H1041.84V280.241H994.855V248.477H1037.23V234.74H994.855V202.976H1041.84V202.35H1041.24Z" fill="black"/>
<path d="M1098.31 293.292H1084.81V202.613H1055.49V189.925H1127.65V202.613H1098.31V293.292Z" fill="black"/>
<path d="M1098.2 293.64V293.038H1085.56V201.747H1056.73V190.179H1126.43V201.747H1097.61V293.64H1098.2V293.038V293.64H1098.83V202.976H1127.65V188.95H1055.49V202.976H1084.34V294.267H1098.83V293.64H1098.2Z" fill="black"/>
<path d="M1178.36 293.292V189.925H1192.01V293.292H1178.36Z" fill="black"/>
<path d="M1178.95 293.64H1179.53V190.179H1190.86V293.038H1178.95V293.64H1179.53H1178.95V294.267H1192.01V188.95H1178.36V294.267H1178.95V293.64Z" fill="black"/>
<path d="M1251.22 293.292H1238.09V202.613H1209.57V189.925H1279.78V202.613H1251.22V293.292Z" fill="black"/>
<path d="M1251.48 293.64V293.038H1238.5V201.747H1208.89V190.179H1280.47V201.747H1250.87V293.64H1251.48V293.038V293.64H1252.12V202.976H1281.73V188.95H1207.61V202.976H1237.22V294.267H1252.12V293.64H1251.48Z" fill="black"/>
<path d="M1349.45 271.6C1357.04 279.443 1366.32 283.364 1377.28 283.364C1388.24 283.364 1397.54 279.443 1405.11 271.6C1412.7 263.781 1416.5 253.76 1416.5 241.609C1416.5 229.433 1412.7 219.436 1405.11 211.593C1397.54 203.775 1388.24 199.853 1377.28 199.853C1366.32 199.853 1357.04 203.775 1349.45 211.593C1341.88 219.436 1338.06 229.433 1338.06 241.609C1338.06 253.76 1341.88 263.781 1349.45 271.6ZM1414.86 280.362C1404.78 290.94 1392.25 296.217 1377.28 296.217C1362.31 296.217 1349.78 290.94 1339.72 280.362C1329.64 269.809 1324.63 256.883 1324.63 241.609C1324.63 226.335 1329.64 213.409 1339.72 202.855C1349.78 192.277 1362.31 187 1377.28 187C1392.18 187 1404.66 192.301 1414.79 202.903C1424.9 213.53 1429.95 226.407 1429.95 241.609C1429.95 256.883 1424.9 269.809 1414.86 280.362Z" fill="black"/>
<path d="M1348.76 271.277L1348.32 271.708C1356.2 279.582 1365.88 283.532 1377.29 283.508C1388.68 283.532 1398.41 279.582 1406.26 271.708C1414.17 263.857 1418.13 253.78 1418.13 241.621C1418.13 229.461 1414.17 219.385 1406.26 211.51C1398.41 203.659 1388.68 199.71 1377.29 199.71C1365.88 199.71 1356.2 203.659 1348.32 211.51C1340.44 219.385 1336.48 229.461 1336.48 241.621C1336.48 253.78 1340.44 263.857 1348.3 271.708L1348.76 271.277L1349.2 270.87C1341.56 263.234 1337.72 253.517 1337.72 241.621C1337.72 229.725 1341.56 220.007 1349.2 212.372C1356.88 204.736 1366.18 200.954 1377.29 200.954C1388.41 200.954 1397.72 204.736 1405.39 212.372C1413.05 220.007 1416.89 229.725 1416.89 241.621C1416.89 253.517 1413.05 263.234 1405.39 270.87C1397.72 278.505 1388.41 282.287 1377.29 282.287C1366.18 282.287 1356.88 278.505 1349.2 270.87L1348.76 271.277ZM1415.82 279.941L1415.36 279.51C1405.14 289.851 1392.49 294.997 1377.29 294.997C1362.06 294.997 1349.44 289.851 1339.22 279.51C1329.01 269.17 1323.95 256.604 1323.92 241.621C1323.95 226.637 1329.01 214.047 1339.22 203.731C1349.44 193.391 1362.09 188.245 1377.29 188.221C1392.42 188.245 1405.02 193.415 1415.29 203.779C1425.55 214.167 1430.66 226.733 1430.66 241.621C1430.66 256.58 1425.58 269.17 1415.36 279.51L1415.82 279.941L1416.26 280.372C1426.67 269.841 1431.9 256.868 1431.9 241.621C1431.9 226.47 1426.67 213.52 1416.19 202.941C1405.7 192.338 1392.71 187 1377.29 187C1361.8 187 1348.76 192.314 1338.35 202.869C1327.91 213.401 1322.68 226.374 1322.68 241.621C1322.68 256.868 1327.91 269.841 1338.35 280.372C1348.76 290.928 1361.8 296.217 1377.29 296.217C1392.79 296.217 1405.82 290.928 1416.26 280.372L1415.82 279.941Z" fill="black"/>
<path d="M1450.43 293.292V189.925H1466.44L1516.25 270.335H1516.82L1516.25 250.418V189.925H1529.42V293.292H1515.68L1463.57 208.981H1463L1463.57 228.897V293.292H1450.43Z" fill="black"/>
<path d="M1449.1 293.64H1449.7V190.179H1464.92L1515.17 271.155H1516.7L1516.13 250.477V190.179H1528.2V293.038H1515.27L1462.7 208.134H1461.17L1461.76 228.812V293.038H1449.1V293.64H1449.7H1449.1V294.267H1462.99V228.812L1462.41 208.736L1461.79 208.76V209.387H1462.03L1514.6 294.267H1529.42V188.95H1514.88V250.477L1515.46 270.553L1516.08 270.529V269.926H1515.84L1465.59 188.95H1448.48V294.267H1449.1V293.64Z" fill="black"/>
<path d="M1991.68 587.511H2023.96V371.311H1991.68V587.511ZM2282.43 449.2L2245.44 542.921H2244.31L2205.93 449.2H2171.15L2228.74 580.183L2195.9 653.051H2229.58L2318.32 449.2H2282.43ZM2099.36 562.958C2088.78 562.958 2074.05 557.672 2074.05 544.579C2074.05 527.905 2092.38 521.515 2108.25 521.515C2122.45 521.515 2129.11 524.566 2137.74 528.746C2135.24 548.759 2118.01 562.958 2099.36 562.958ZM2103.25 444.467C2079.86 444.467 2055.66 454.75 2045.66 477.573L2074.31 489.514C2080.44 477.573 2091.83 473.681 2103.8 473.681C2120.51 473.681 2137.48 483.676 2137.74 501.478V503.712C2131.9 500.373 2119.38 495.352 2104.09 495.352C2073.2 495.352 2041.77 512.337 2041.77 544.026C2041.77 572.952 2067.08 591.595 2095.46 591.595C2117.17 591.595 2129.11 581.865 2136.63 570.453H2137.74V587.151H2168.91V504.265C2168.91 465.873 2140.26 444.467 2103.25 444.467ZM1903.76 475.507H1857.85V401.414H1903.76C1927.89 401.414 1941.59 421.379 1941.59 438.461C1941.59 455.206 1927.89 475.507 1903.76 475.507ZM1902.91 371.311H1825.57V587.511H1857.85V505.61H1902.91C1938.7 505.61 1973.87 479.711 1973.87 438.461C1973.87 397.21 1938.7 371.311 1902.91 371.311ZM1481.12 562.982C1458.81 562.982 1440.14 544.314 1440.14 518.68C1440.14 492.781 1458.81 473.825 1481.12 473.825C1503.14 473.825 1520.42 492.781 1520.42 518.68C1520.42 544.314 1503.14 562.982 1481.12 562.982ZM1518.18 461.308H1517.08C1509.82 452.659 1495.9 444.875 1478.33 444.875C1441.53 444.875 1407.81 477.189 1407.81 518.68C1407.81 559.93 1441.53 591.956 1478.33 591.956C1495.9 591.956 1509.82 584.148 1517.08 575.234H1518.18V585.829C1518.18 613.962 1503.14 629.026 1478.88 629.026C1459.1 629.026 1446.84 614.803 1441.82 602.839L1413.68 614.515C1421.75 634.023 1443.22 658 1478.88 658C1516.79 658 1548.85 635.705 1548.85 581.385V449.32H1518.18V461.308ZM1571.13 587.511H1603.48V371.311H1571.13V587.511ZM1651.14 516.181C1650.3 487.76 1673.16 473.273 1689.6 473.273C1702.41 473.273 1713.28 479.687 1716.91 488.889L1651.14 516.181ZM1751.47 491.676C1745.34 475.243 1726.66 444.875 1688.47 444.875C1650.57 444.875 1619.08 474.666 1619.08 518.415C1619.08 559.642 1650.3 591.956 1692.1 591.956C1725.82 591.956 1745.34 571.342 1753.42 559.378L1728.35 542.657C1719.98 554.909 1708.54 562.982 1692.1 562.982C1675.66 562.982 1663.96 555.462 1656.43 540.711L1754.81 500.036L1751.47 491.676ZM967.629 467.435V498.643H1042.33C1040.1 516.181 1034.26 529.01 1025.31 537.924C1014.45 548.783 997.457 560.747 967.629 560.747C921.65 560.747 885.693 523.701 885.693 477.741C885.693 431.782 921.65 394.711 967.629 394.711C992.434 394.711 1010.56 404.466 1023.92 417.007L1045.96 395C1027.28 377.173 1002.48 363.503 967.629 363.503C904.633 363.503 851.683 414.772 851.683 477.741C851.683 540.711 904.633 591.956 967.629 591.956C1001.64 591.956 1027.28 580.808 1047.33 559.93C1067.95 539.317 1074.37 510.343 1074.37 486.919C1074.37 479.687 1073.82 473.008 1072.71 467.435H967.629ZM1159.29 562.982C1137.01 562.982 1117.78 544.603 1117.78 518.415C1117.78 491.94 1137.01 473.825 1159.29 473.825C1181.59 473.825 1200.82 491.94 1200.82 518.415C1200.82 544.603 1181.59 562.982 1159.29 562.982ZM1159.29 444.875C1118.6 444.875 1085.43 475.795 1085.43 518.415C1085.43 560.747 1118.6 591.956 1159.29 591.956C1199.98 591.956 1233.15 560.747 1233.15 518.415C1233.15 475.795 1199.98 444.875 1159.29 444.875ZM1320.42 562.982C1298.11 562.982 1278.89 544.603 1278.89 518.415C1278.89 491.94 1298.11 473.825 1320.42 473.825C1342.72 473.825 1361.95 491.94 1361.95 518.415C1361.95 544.603 1342.72 562.982 1320.42 562.982ZM1320.42 444.875C1279.73 444.875 1246.56 475.795 1246.56 518.415C1246.56 560.747 1279.73 591.956 1320.42 591.956C1361.11 591.956 1394.28 560.747 1394.28 518.415C1394.28 475.795 1361.11 444.875 1320.42 444.875Z" fill="black"/>
</svg>
