<svg width="813" height="787" viewBox="0 0 813 787" fill="none" xmlns="http://www.w3.org/2000/svg">
<path fill-rule="evenodd" clip-rule="evenodd" d="M560.219 664.771C521.434 673.248 482.648 681.724 443.862 690.202C438.402 691.395 432.942 692.587 427.481 693.781C429.106 643.734 430.731 593.686 432.355 543.639C432.589 536.411 432.824 529.182 433.059 521.954C424.072 529.82 414.638 537.361 406.039 545.646C395.032 556.25 384.447 567.227 373.117 577.516C353.627 595.214 333.152 612.379 310.583 626.044C286.06 640.892 257.772 650.444 229.297 653.742C218.808 654.957 209.312 654.66 198.921 653.578C189.879 652.636 180.839 651.694 171.796 650.752C168.155 650.373 164.512 649.993 160.87 649.614C159.99 649.522 157.127 649.729 156.425 649.136C155.15 648.062 154.485 643.184 153.984 641.633C151.891 635.181 149.812 628.727 147.746 622.268C142.131 604.712 136.594 587.131 131.248 569.492C126.67 554.391 121.856 539.226 118.437 523.809C118.036 522.002 117.158 519.636 117.307 517.768C117.522 515.038 116.229 515.613 119.828 515.574C128.287 515.481 137.232 517.537 145.699 518.138C154.419 518.756 163.156 519.124 171.897 519.212C218.187 519.683 271.465 514.667 308.965 484.695C321.537 474.648 334.167 463.032 343.909 450.113C357.647 431.897 365.135 407.643 366.96 385.167C369.011 359.911 364.752 333.862 358.548 309.414C357.292 304.466 357.576 302.615 358.654 297.438C359.55 293.14 360.445 288.842 361.34 284.544C361.589 283.352 361.857 278.337 362.843 277.602C364.57 276.317 372.894 277.728 374.916 277.754L399.997 278.067C416.15 278.269 432.301 278.471 448.454 278.673C456.842 278.778 465.222 280.089 473.558 280.956C491.427 282.813 509.297 284.67 527.166 286.527C530.747 286.9 534.328 287.272 537.91 287.644C535.614 307.981 533.32 328.317 531.023 348.653C529.312 363.818 535.281 378.853 538.461 393.677C545.627 427.073 552.607 460.955 555.264 495.061C557.765 527.172 557.738 559.629 558.553 591.816C559.169 616.133 559.729 640.451 560.219 664.771Z" fill="#155BD5"/>
<path fill-rule="evenodd" clip-rule="evenodd" d="M310.849 51.0028C310.849 49.1358 311.406 47.8285 312.454 46.2812C314.874 48.3838 318.665 58.8101 322.698 52.0789C323.5 50.7403 323.537 45.754 326.289 47.3098C327.582 48.0402 327.228 51.5592 327.137 52.7521C326.81 56.9982 324.881 62.9223 319.404 62.6803C313.813 62.434 310.698 55.6477 310.849 51.0028Z" fill="black"/>
<path fill-rule="evenodd" clip-rule="evenodd" d="M314.223 41.6751C304.925 43.3898 308.636 35.0263 315.445 34.3323C317.97 34.0749 322.323 34.2099 321.725 37.9373C321.196 41.234 316.679 41.2213 314.223 41.6751Z" fill="black"/>
<path fill-rule="evenodd" clip-rule="evenodd" d="M288.463 69.2366C285.536 69.5142 280.713 65.3872 285.574 64.8842C287.818 64.6525 292.532 68.849 288.463 69.2366Z" fill="black"/>
<path fill-rule="evenodd" clip-rule="evenodd" d="M798.914 118.141C796.674 119.855 789.962 114.34 787.767 113.366C779.222 109.57 769.399 107.471 760.217 105.834C742.039 102.595 723.407 100.771 704.951 100.19C693.693 99.8346 683.036 100.228 671.901 101.428C669.129 101.727 650.375 104.856 649.916 99.7151C649.109 90.6882 698.719 91.1168 703.443 91.1321C724.922 91.2056 744.321 93.5898 765.185 98.2693C770.828 99.5354 805.534 113.072 798.914 118.141Z" fill="black"/>
<path fill-rule="evenodd" clip-rule="evenodd" d="M205.823 267.289C194.527 270.63 181.638 270.175 171.039 264.791C169.219 263.866 164.793 261.901 167.138 259.591C169.66 257.107 176.725 261.321 179.475 261.861C192.826 264.48 209.753 259.289 219.21 249.554C223.904 244.724 226.552 238.619 227.67 232.042C228.307 228.292 228.634 224.325 228.405 220.523C228.163 216.495 226.516 212.165 227.618 208.156C232.543 211.076 232.601 218.766 232.951 223.731C233.394 229.992 233.355 236.012 231.597 242.112C227.978 254.672 218.262 263.609 205.823 267.289Z" fill="black"/>
<path fill-rule="evenodd" clip-rule="evenodd" d="M3.98727 601.836C4.34622 602.795 4.68399 603.692 5.07862 604.746C6.60137 601.949 6.60137 601.949 3.98727 601.836ZM18.1859 674.912C23.8366 677.522 30.1316 670.509 33.1392 666.603C38.1534 660.09 40.384 652.584 42.3605 644.743C44.5476 636.068 47.0737 627.493 49.1059 618.778C50.0099 614.892 50.875 610.994 51.8905 607.135C52.7322 603.941 55.8668 598.251 54.547 594.935C52.3164 589.327 41.3583 587.783 42.1052 580.263C42.7908 573.352 54.8491 580.733 57.7441 582.198C64.3579 585.549 60.9189 581.32 57.724 578.871C55.3028 577.014 44.0415 568.974 49.9364 564.92C53.7622 562.287 62.0838 570.302 65.2542 571.779C68.584 573.329 69.7968 572.922 72.4956 570.19C74.4164 568.246 77.2713 565.786 78.755 563.557C82.4214 558.044 77.5098 547.239 76.7551 540.925C76.5868 539.519 77.6447 531.817 76.6626 530.905C75.3717 529.707 69.8448 530.55 67.8137 530.245C60.5299 529.15 53.3442 528.324 46.0492 527.413C41.2301 526.811 26.8966 523.182 24.0595 528.179C21.8077 532.143 22.529 539.75 22.5279 543.988C22.5245 552.907 22.4967 561.637 21.6528 570.585C19.809 590.127 18.4256 609.658 16.6487 629.201C15.7858 638.687 14.0011 648.062 13.106 657.547C12.5508 663.427 11.6735 671.903 18.1859 674.912ZM127.907 530.593C133.256 543.973 137.682 557.758 142.311 571.396C144.451 577.702 146.425 584.069 148.597 590.362C150.677 596.392 154.023 601.822 155.739 607.988C158.978 619.631 161.704 631.195 165.541 642.641C166.094 644.29 165.769 647.939 166.76 649.104C167.979 650.536 173.373 650.322 175.284 650.563C183.098 651.547 190.992 652.304 198.877 651.975C191.499 642.674 183.224 634.135 174.742 625.817C167.314 618.534 157.283 610.262 156.073 599.164C154.465 584.417 169.852 587.381 179.425 588.274C192.78 589.521 207.917 594.935 221.283 591.934C212.019 579.406 197.978 570.065 186.349 559.868C181.813 555.89 177.042 551.518 174.725 545.797C173.546 542.88 172.96 539.517 173.76 536.421C174.732 532.661 176.89 531.978 180.019 530.201C161.465 530.201 142.701 529.539 125.026 523.168C124.324 526.129 126.912 528.107 127.907 530.593ZM210.858 648.776C214.098 653.182 219.935 651.982 224.74 651.704C231.794 651.296 238.829 650.438 245.754 649.025C252.745 647.597 259.758 645.685 266.427 643.124C267.83 642.585 272.195 641.355 272.709 639.667C273.175 638.139 270.482 635.006 269.895 633.839C268.025 630.113 267.097 623.474 271.322 620.816C274.81 618.622 279.962 620.82 283.481 621.857C288.692 623.393 294.909 626.495 300.201 624.136C306.954 621.124 313.642 616.795 319.991 613.003C308.522 602.581 297.257 591.954 285.496 581.855C274.722 572.602 261.745 561.954 255.012 549.208C252.476 544.408 250.834 537.605 253.944 532.606C256.732 528.123 262.355 527.965 267.095 528.376C281.174 529.596 295.045 533.093 308.896 535.702C313.558 536.581 343.555 543.538 343.635 535.97C343.652 534.337 340.545 530.618 339.75 529.321C337.949 526.377 336.108 523.464 334.161 520.613C329.624 513.969 324.692 507.611 319.801 501.229C317.333 498.008 314.179 491.298 309.455 492.013C307.3 492.338 305.142 494.737 303.404 495.978C300.408 498.116 297.303 500.096 294.116 501.936C281.229 509.368 266.999 513.142 252.661 516.648C249.411 517.442 233.884 519.042 232.359 522.247C231.598 523.849 233.351 527.632 233.397 529.364C233.465 531.973 232.89 534.68 231.457 536.89C227.297 543.302 218.201 542.965 211.502 542.775C202.992 542.533 194.279 542.114 185.809 543.152C194.236 550.951 202.98 558.393 211.776 565.765C217.976 570.96 224.884 575.881 229.755 582.421C233.926 588.019 237.029 597.546 231.703 603.577C226.002 610.031 213.151 607.173 205.921 606.073C197.491 604.79 189.136 603.219 180.78 601.546C177.948 600.979 175.024 600.325 172.13 600.173C168.669 599.991 167.4 599.795 169.798 603.007C175.755 610.986 184.716 616.723 190.989 624.515C193.943 628.185 197.387 631.107 200.493 634.629C204.363 639.017 207.4 644.075 210.858 648.776ZM326.817 605.17C330.889 609.312 335.485 603.423 338.786 600.725C343.734 596.678 348.565 592.49 353.587 588.532C363.099 581.037 373 574.084 381.943 565.886C384.762 563.301 389.394 560.408 390.251 556.448C391.342 551.397 388.719 546.88 391.4 541.802C396.481 532.181 406.988 540.051 413.84 534.514C417.36 531.67 419.84 527.543 422.614 524.021C425.916 519.83 430.132 515.763 432.033 510.715C434.011 505.465 434.27 502.952 430.589 498.514C426.623 493.733 421.812 489.366 418.629 483.986C416.438 480.279 414.648 474.83 418.093 471.243C420.875 468.345 425.693 469.125 429.294 469.347C434.537 469.672 439.754 470.162 444.907 471.202C448.981 472.024 456.759 474.176 460.669 471.941C469.892 466.668 453.31 453.087 449.637 449.058C441.43 440.054 432.826 431.426 424.291 422.735C416.4 414.699 408.431 406.656 401.021 398.168C395.506 391.85 389.043 382.933 392 374.014C394.398 366.784 402.469 366.556 408.891 367.058C418.297 367.795 427.658 369.335 437.022 370.453C444.003 371.286 457.437 373.908 463.392 368.359C469.548 362.626 456.406 345.59 453.009 340.487C445.83 329.703 437.558 319.694 428.989 309.998C424.827 305.288 420.586 300.651 416.341 296.017C412.656 291.991 409.278 286.919 405.045 283.462C400.414 279.682 393.499 280.126 387.825 279.557C381.857 278.957 375.511 278.073 369.511 278.094C364.048 278.113 365.399 283.375 365.168 287.936C365.112 289.029 363.641 298.722 365.298 298.875C365.48 296.716 365.661 294.558 365.842 292.399C370.508 294.314 373.97 298.436 377.587 301.786C381.197 305.128 386.098 308.531 387.622 313.446C391.921 327.32 374.765 322.399 367.576 320.99C369.193 336.749 373.223 352.067 375.445 367.719C376.376 374.278 375.997 380.215 375.27 386.737C374.856 390.455 374.905 394.207 374.452 397.923C374.093 400.87 372.72 404.24 373.269 407.202C374.271 412.625 381.117 418.317 384.158 422.905C388.194 428.992 391.756 435.588 393.622 442.693C396.994 455.52 391.25 464.742 377.831 465.976C371.778 466.533 365.081 465.598 359.085 464.743C353.931 464.008 347.348 460.186 342.648 463.643C340.722 465.057 339.397 467.564 337.709 469.293C335.261 471.799 332.511 474.036 329.809 476.258C327.261 478.353 320.293 482.076 320.98 485.286C321.497 487.707 325.697 491.164 327.12 492.955C328.986 495.303 330.838 497.662 332.639 500.062C337.213 506.156 341.574 512.448 345.52 518.967C350.295 526.855 356.999 540.949 348.922 549.125C344.245 553.859 336.477 553.024 330.512 552.092C322.381 550.821 314.304 549.187 306.318 547.217C298.322 545.246 290.26 543.872 282.169 542.37C275.257 541.09 267.22 538.641 260.311 541.176C280.498 564.679 305.167 583.148 326.817 605.17ZM444.585 496.46C447.18 493.425 449.839 490.054 452.137 486.773C454.252 483.75 454.08 482.433 450.512 481.491C448.291 480.906 445.825 481.478 443.56 481.214C441.201 480.938 438.848 480.18 436.538 479.659C433.944 479.075 431.033 478.186 428.355 478.193C425.339 478.201 425.041 477.926 426.557 480.64C428.636 484.358 432.662 487.609 435.529 490.707C437.333 492.657 441.65 499.893 444.585 496.46ZM441.248 539.078C442.614 542.082 452.454 539.88 454.037 537.813C457.497 533.293 448.644 522.771 446.318 518.963C442.806 521.291 441.591 524.368 441.381 528.429C441.236 531.243 440.084 536.52 441.248 539.078ZM437.543 688.345C443.422 688.926 451.125 685.535 456.511 683.673C463.969 681.095 471.724 679.255 479.418 677.538C494.873 674.089 510.847 673.608 526.346 670.298C516.497 657.482 504.588 646.44 494.579 633.761C490.949 629.164 485.613 622.574 487.297 616.268C488.948 610.085 495.334 611.451 500.077 612.877C506.438 614.789 512.585 617.451 518.804 619.768C521.745 620.864 534.881 627.173 537.31 623.082C538.949 620.321 529.624 610.036 528.265 608.258C523.185 601.616 517.673 595.323 512.118 589.079C501.753 577.427 489.989 565.506 481.972 552.063C475.963 541.985 473.951 526.078 490.178 526.714C496.877 526.977 503.704 529.054 510.24 530.42C516.278 531.682 525.203 534.472 531.364 532.914C537.853 531.273 530.391 521.588 528.349 518.393C524.034 511.642 518.966 505.334 514.213 498.886C509.098 491.95 503.645 485.164 498.864 477.996C495.888 473.535 491.064 465.753 493.767 460.113C496.869 453.642 507.525 457.643 512.742 458.624C522.626 460.485 532.321 463.581 542.473 463.581C542.371 458.486 537.15 454.006 534.147 450.391C529.638 444.963 524.996 439.707 520.065 434.656C516.598 431.103 512.807 425.318 508.75 422.579C504.6 419.78 502.148 428.632 500.516 431.922C488.624 455.92 475.624 479.448 459.589 500.975C456.36 505.309 451.622 508.808 454.33 514.342C457.148 520.097 460.864 525.133 461.948 531.628C462.748 536.425 462.328 543.094 458.634 546.74C455.055 550.271 449.797 549.47 445.376 550.851C440.68 552.319 442.005 556.482 441.963 560.649C441.891 567.937 441.802 575.221 441.846 582.51C441.885 588.987 441.974 595.463 442.052 601.94C442.133 608.789 443.802 613.643 445.671 620.093C446.644 623.451 446.979 626.923 445.903 630.298C444.978 633.199 443.458 633.754 441.675 635.807C438.202 639.801 439.312 647.393 438.887 652.472C438.581 656.112 433.496 687.946 437.543 688.345ZM452.011 766.221C453.489 768.078 458.795 767.485 460.866 767.621C464.799 767.878 468.739 767.879 472.673 768.092C481.066 768.548 489.35 769.715 497.769 769.864C504.688 769.985 511.857 770.321 518.507 770.794C521.784 771.027 525.466 769.607 528.653 770.273C531.795 770.93 532.994 771.847 536.395 771.575C544.866 770.897 553.532 771.75 562.018 771.959C569.868 772.152 577.785 771.557 585.647 771.453C594.493 771.336 603.358 771.66 612.202 771.75C621.665 771.847 631.326 771.285 640.669 773.083C639.804 769.108 639.863 764.423 636.652 761.45C633.362 758.405 627.909 757.712 623.675 757.216C617.512 756.492 611.398 756.327 605.247 756.064C601.404 755.902 597.706 754.599 593.885 754.164C588.406 753.539 582.509 753.9 576.988 753.811C575.094 753.781 573.835 753.08 572.099 752.815C570.059 752.504 568.065 753.026 565.842 752.483C561.231 751.357 556.528 750.178 552.053 748.674C549.322 747.756 549.435 746.978 547.195 749.108C545.793 750.443 544.931 752.971 543.747 754.542C541.792 757.135 538.291 760.238 535.276 757.116C532.08 753.808 535.505 750.097 534.795 746.663C534.246 744.012 529.21 741.684 526.695 742.684C523.213 744.067 522.182 751.258 518.456 752.072C513.768 753.095 515.033 746.002 515.67 743.361C517.331 736.45 516.737 736.225 511.219 731.623C507.011 728.115 505.837 726.745 500.617 729.368C495.358 732.009 489.613 733.158 483.751 733.79C476.827 734.537 470.367 733.756 463.592 732.371C460.402 731.719 454.188 729.272 452.104 732.621C449.755 736.395 452.171 745.639 452.257 750.007C452.322 753.262 452.519 756.612 452.209 759.86C452.048 761.538 450.817 764.719 452.011 766.221ZM536.95 667.63C541.819 667.207 546.587 665.917 551.441 665.329C553.21 665.116 557.008 665.179 558.471 663.928C560.26 662.396 559.422 662.547 559.057 660.32C557.32 649.734 556.657 639.483 556.913 628.726C557.105 620.675 558.676 608.151 553.879 601.149C548.227 592.899 539.637 586.794 533.904 578.517C530.803 574.041 526.476 562.024 536.293 562.346C540.199 562.473 544.371 564.95 548.163 565.867C553.529 567.165 553.857 565.862 553.382 560.998C552.268 549.582 552.599 538.117 551.434 526.697C550.237 514.957 548.953 503.209 547.635 491.479C546.993 485.78 546.701 479.746 545.595 474.132C544.52 468.674 539.22 471.611 534.583 471.389C522.303 470.8 510.366 463.269 498.024 464.448C508.313 483.755 525.861 498.42 535.843 517.982C539.294 524.742 542.505 535.317 533.999 539.832C524.516 544.862 510.045 538.488 500.289 536.868C496.875 536.302 483.314 532.338 482.684 537.62C482.344 540.464 487.864 547.115 489.244 549.169C492.388 553.853 496.009 558.198 499.41 562.692C506.203 571.668 514.284 579.48 521.329 588.266C527.474 595.93 535.014 603.439 539.967 611.94C544.615 619.919 545.511 634.297 532.44 632.726C519.06 631.117 507.422 620.678 493.783 620.371C500.753 629.559 508.709 637.924 516.447 646.455C520.17 650.56 523.824 654.721 527.354 658.995C529.613 661.73 532.715 667.998 536.95 667.63ZM555.211 584.359C554.916 580.537 555.841 578.402 552.372 576.309C550.136 574.96 544.854 572.863 542.404 573.791C543.329 574.866 553.92 587.53 555.052 586.51C555.334 585.821 555.387 585.104 555.211 584.359ZM536.748 408.609C536.111 401.259 534.632 393.992 534.313 386.615C534.098 381.628 534.809 374.992 531.431 370.832C527.345 378.48 524.597 386.752 520.513 394.404C518.765 397.678 516.818 400.841 515.01 404.08C513.776 406.294 510.155 411.05 510.44 413.69C510.925 418.197 519.886 424.658 522.787 427.876C528.97 434.735 535.023 441.715 541.339 448.453C540.486 435.099 537.901 421.933 536.748 408.609ZM536.924 289.187C535.217 286.79 523.316 287.923 520.746 287.694C512.662 286.979 503.878 286.342 496.053 284.17C508.475 299.543 519.638 316.184 526.937 334.641C529.706 327.1 531.528 319.25 533.22 311.408C534.08 307.419 534.819 303.414 535.46 299.384C535.75 297.562 538.028 290.739 536.924 289.187ZM498.991 401.68C502.318 403.341 512.409 378.499 512.856 375.746C508.07 376.839 489.019 377.732 487.9 383.77C487.377 386.591 490.633 389.995 492.057 392.035C493.799 394.533 496.238 400.308 498.991 401.68ZM468.758 376.394C461.711 385.224 448.56 383.439 438.724 382.185C432.062 381.333 425.463 380.189 418.821 379.21C412.267 378.242 404.318 376.454 397.961 379.154C408.269 393.646 421.538 405.629 434.066 418.127C440.488 424.536 446.693 431.156 452.868 437.802C458.924 444.322 463.755 452.527 470.179 458.569C475.631 448.607 480.791 438.497 486.048 428.433C488.256 424.205 491.097 420.399 493.364 416.221C495.861 411.617 496.244 409.499 493.058 405.327C488.316 399.116 481.65 390.704 482.603 382.363C483.715 372.624 495.285 371.554 502.86 369.454C506.667 368.398 511.037 367.598 514.517 365.676C518.938 363.232 519.138 359.198 520.6 354.821C522.371 349.522 523.994 346.081 522.125 340.508C520.569 335.871 518.241 331.268 516.091 326.886C511.57 317.675 505.918 309.194 499.924 300.889C495.984 295.431 491.338 284.541 484.292 283.083C479.292 282.049 472.984 282.474 467.855 282.19C461.876 281.86 455.89 281.674 449.908 281.415C437.511 280.879 424.235 279.706 411.898 281.342C426.427 297.052 441.113 312.369 454.036 329.48C462.36 340.499 480.116 362.157 468.758 376.394ZM524.358 257.544C517.622 245.048 511.365 232.69 502.241 221.778C494.351 212.34 487.194 202.492 479.005 193.276C461.827 173.941 439.532 159.652 418.746 144.628C414.044 141.229 408.027 139.376 402.867 136.411C396.481 132.743 389.64 129.682 382.73 127.147C370.194 122.549 355.801 120.202 342.45 121.136C327.696 122.166 316.566 127.38 307.406 138.889C298.425 150.17 297.034 162.623 296.791 176.802C296.676 183.539 296.593 190.316 296.658 197.054C296.723 203.724 297.589 207.939 301.673 213.077C305.035 217.305 312.118 219.44 316.95 221.394C323.525 224.052 329.678 227.016 335.812 230.592C338.465 232.139 344.767 237.962 348.04 237.344C352.862 236.433 354.044 227.873 354.523 224.074C356.319 209.865 356.127 195.333 355.257 181.054C354.812 173.742 351.411 162.756 353.338 155.357C354.137 152.283 355.964 151.193 358.221 153.907C361.011 157.265 361.698 165.144 362.418 169.193C364.958 183.455 364.79 197.792 364.872 212.213C364.906 217.943 368.104 220.914 370.201 226.02C372.882 232.548 375.077 239.36 376.398 246.296C377.166 250.321 377.708 254.423 377.65 258.53C377.619 260.786 376.507 264.373 377.373 266.516C379.054 270.673 389.491 268.349 392.989 268.271C408.582 267.924 424.131 267.093 439.747 266.892C471.364 266.486 503.205 271.183 534.167 277.147C530.96 270.583 527.826 263.978 524.358 257.544ZM510.77 190.828C513.247 191.233 521.569 195.783 523.007 192.898C524.234 190.433 518.161 181.604 517.254 179.253C515.147 173.792 514.636 167.696 513.396 161.996C512.614 158.405 512.54 151.306 510.597 148.105C508.425 144.527 503.362 146.324 499.767 146.431C493.637 146.614 487.445 146.611 481.311 146.589C475.073 146.567 468.838 146.404 462.599 146.423C456.222 146.442 449.923 145.384 443.594 145.384C444.304 147.676 447.272 148.795 449.136 149.873C452.006 151.537 454.423 153.512 456.94 155.683C462.837 160.766 468.717 164.83 473.662 170.894C478.132 176.377 484.373 182.24 489.92 186.648C492.891 189.007 494.922 188.818 498.521 188.787C502.827 188.75 506.569 190.141 510.77 190.828ZM526.046 178.612C527.594 183.359 527.74 184.753 532.763 184.416C539.22 183.981 545.692 183.576 552.16 183.108C566.915 182.04 581.682 179.835 596.439 179.091C609.02 178.456 622.606 176.937 635.108 178.248C640.944 178.859 647.163 177.682 653.113 177.915C660.297 178.197 667.548 178.167 674.422 180.379C680.15 182.224 684.935 183.222 689.028 187.993C693.152 192.799 695.967 198.856 698.708 204.51C704.023 215.473 708.183 229.787 717.533 238.089C719.894 240.186 723.927 243.747 727.363 243.352C733.016 242.702 731.282 235.214 730.785 231.415C729.112 218.615 724.088 207.553 720.338 195.329C719.217 191.675 716.997 182.022 722.801 180.677C726.979 179.709 733.542 188.9 735.942 191.369C741.228 196.806 746.402 202.081 752.311 206.867C757.189 210.818 762.093 215.184 768.835 214.336C765.609 205.632 762.048 197.205 756.763 189.525C752.226 182.933 744.58 176.999 741.745 169.416C739.61 163.706 741.5 155.916 748.142 160.94C753.91 165.303 758.903 170.64 764.799 174.925C772.536 180.545 781.318 185.205 790.49 187.985C793.525 188.904 798.909 190.685 801.817 188.491C806.155 185.219 801.73 178.393 799.296 175.385C776.461 147.183 738.488 137.069 703.839 134.943C694.808 134.388 685.415 135.279 676.347 135.407C667.743 135.526 659.759 136.58 651.256 137.839C633.606 140.45 615.919 142.574 598.344 145.183C593.64 145.881 588.059 147.264 583.374 147.083C581.445 147.008 580.443 146.49 578.519 147.006C576.876 147.446 575.695 148.326 573.864 148.622C563.45 150.302 552.851 150.957 542.299 151.092C537.222 151.155 532.096 151.059 527.057 150.394C524.091 150.003 521.053 148.769 520.217 152.294C519.586 154.952 521.689 159.987 522.412 162.547C523.888 167.78 524.394 173.544 526.046 178.612ZM337.262 87.4484C339.037 87.5153 341.962 87.7819 342.538 85.5632C343.625 81.3836 338.04 83.9347 337.005 81.3033C335.852 78.374 339.785 77.6155 341.519 77.1426C345.055 76.1766 344.146 76.3829 344.242 72.7108C344.331 69.3231 345.424 66.2377 346.799 63.1691C348.708 58.9057 348.807 59.121 344.523 58.6313C337.315 57.8081 335.742 51.4399 333.075 45.6138C331.43 42.0186 329.607 38.5116 328.584 34.671C327.961 32.3408 328.048 28.6375 325.771 27.3246C322.697 25.551 315.538 27.3848 312.298 27.8109C306.885 28.5226 301.192 29.3302 296.014 31.1473C291.574 32.7056 289.884 36.3197 285.881 36.96C283.294 37.3727 267.72 36.3967 269.766 41.1698C271.04 44.1436 277.053 42.4448 279.269 42.3555C282.1 42.2429 285.55 41.8212 288.356 42.3745C291.159 42.9289 291.422 43.9785 292.517 46.7705C289.89 46.64 280.061 45.171 277.914 47.1041C276.009 48.8185 277.415 50.6981 279.332 51.3284C283.071 52.5587 288.124 50.1716 292.048 51.1978C294.84 51.9285 294.646 52.0278 295.797 54.8332C296.396 56.2967 297.08 57.7936 297.334 59.3675C298.776 68.2578 290.625 61.3564 287.236 59.3876C281.037 55.7858 274.316 56.4584 275.52 65.1122C275.918 67.9756 277.461 70.481 279.443 72.5457C282.237 75.456 282.96 76.0048 283.104 80.402C283.228 84.1856 282.822 88.2337 284.161 91.8668C285.637 95.868 288.781 99.2779 291.237 102.694C294.187 106.796 297.239 110.849 300.084 115.025C301.31 116.824 303.06 121.353 305.423 121.953C307.646 122.517 311.094 118.947 312.936 117.925C317.401 115.449 322.304 113.837 326.894 111.621C323.048 108.201 319.625 104.321 315.859 100.885C312.917 98.2026 311.395 97.6917 312.365 93.1618C314.541 82.9999 329.826 87.1695 337.262 87.4484ZM279.44 300.991C267.287 312.762 249.215 320.121 232.776 323.084C215.555 326.187 195.918 328.486 179.142 322.485C161.941 316.331 145.858 307.483 131.296 296.473C129.505 295.119 109.448 275.53 107.832 277.075C113.791 286 120.043 294.704 126.359 303.375C129.463 307.635 140.194 322.298 134.023 327.602C129.937 331.116 122.985 325.455 119.63 323.185C111.552 317.72 102.554 314.778 92.7362 314.778C97.2722 323.107 104.168 330.482 107.857 339.28C109.599 343.438 108.712 343.136 104.774 342.006C99.8473 340.593 94.259 338.958 89.1178 338.726C86.7266 338.618 81.8718 339.67 81.4672 342.793C81.0804 345.781 87.4222 351.418 89.1924 353.557C95.6792 361.403 102.291 368.848 110.31 375.174C125.705 387.316 143.979 395.144 162.579 400.959C181.581 406.899 201.89 408.688 221.315 403.907C230.94 401.538 239.769 398.324 248.389 393.528C252.292 391.357 256.397 390.373 260.15 387.821C264.05 385.171 268.001 382.526 271.982 380.003C280.179 374.807 285.26 369.58 290.98 361.771C293.281 358.631 296.438 356.303 298.63 353.211C301.046 349.805 303.531 346.334 305.784 342.749C316.171 326.215 326.349 308.441 332.404 289.8C335.526 280.189 337.647 270.303 340.266 260.551C341.168 257.196 344.495 250.742 343.8 247.334C343.13 244.047 337.93 242.713 335.355 241.319C327.837 237.25 320.294 233.639 312.959 229.313C302.826 223.335 304.621 235.592 303.964 242.668C302.014 263.707 294.946 285.971 279.44 300.991ZM365.15 309.033C367.288 310.866 372.698 312.004 375.432 311.167C372.737 307.149 368.581 304.513 365.085 301.281C364.704 303.503 363.014 307.203 365.15 309.033ZM352.102 451.981C357.023 452.34 362.159 453.818 367.038 453.857C371.39 453.891 376.897 454.246 381.127 453.311C392.794 450.731 385.896 440.172 381.836 433.281C379.589 429.47 376.75 426.06 374.409 422.316C373.844 421.413 372.276 417.729 371.023 417.605C369.18 417.422 368.607 420.445 367.718 422.295C365.315 427.304 363.093 432.48 360.365 437.324C357.622 442.196 353.791 446.566 352.102 451.981ZM225.89 526.119C224.882 520.515 208.489 526.207 204.78 526.875C203.717 527.067 190.874 528.632 190.99 529.749C195.24 530.063 227.144 533.094 225.89 526.119ZM2.97842 651.236C0.466877 652.329 0.556058 644.336 0.440123 643.275C0.206025 641.138 -0.0882706 637.29 0.997501 635.413C1.79455 634.036 2.02865 634.736 2.45671 634.373C5.96262 631.399 1.72878 630.128 0.940648 627.757C0.697632 627.029 0.675336 625.021 1.03763 624.413C2.07212 622.67 2.35973 623.974 3.58931 623.243C4.41422 622.753 6.08747 623.963 5.60367 621.731C5.20459 619.888 3.79554 621.019 3.0899 620.442C0.406681 618.249 0.679795 615.371 1.11009 611.866C1.51809 608.537 1.9116 604.974 2.89147 601.822C3.39422 600.204 4.0798 600.934 4.02517 599.023C3.99619 598.026 2.48124 597.041 2.43108 595.787C2.37088 594.229 3.8156 591.728 3.89698 590.085C4.00399 587.928 4.02406 586.054 3.78327 584.015C3.63613 582.766 3.30504 582.312 3.23593 580.792C3.17239 579.359 3.48563 577.682 3.51573 576.189C3.60045 571.952 4.16563 567.693 4.91029 563.64C5.34727 563.004 5.69062 562.322 5.94367 561.59C5.76977 560.83 5.47881 560.119 5.07193 559.454C4.95934 557.516 4.99613 555.624 5.01954 553.659C5.06301 550.014 4.3674 546.553 4.15449 542.959C4.09206 541.892 3.6718 540.112 4.41311 539.126C4.97829 538.374 6.95475 538.559 7.17213 537.836C7.79639 535.767 5.92695 537.002 5.52229 535.954C5.1979 535.114 5.36288 534.009 5.30937 533.164C5.15888 530.88 8.44629 515.359 11.2934 517.377C10.1586 516.573 12.3847 511.229 13.1071 510.324C15.7914 506.961 17.3944 510.77 19.5715 513.135C22.6182 516.446 25.2702 514.316 29.2276 513.569C34.1269 512.645 39.5112 512.971 44.4774 513.078C49.5685 513.189 54.732 513.475 59.803 513.924C65.2631 514.407 70.5515 516.057 76.0662 515.974C84.2396 515.851 92.52 516.042 100.687 515.75C102.321 515.691 106.276 515.861 106.962 513.783C107.219 513.002 105.744 511.363 105.522 510.501C105.094 508.848 105.064 506.678 105.793 505.059C107.995 500.176 112.577 504.162 115.804 505.937C120.666 508.61 125.706 510.885 131.077 512.331C152.498 518.093 177.77 517.772 199.643 515.051C221.855 512.288 243.813 505.6 265.47 500.122C285.243 495.12 303.494 484.029 318.671 470.458C334.144 456.625 346.354 437.439 353.997 418.179C362.511 396.721 356.318 375.118 356.1 353.171C355.993 342.226 353.559 331.544 352.892 320.634C352.246 310.053 353.151 300.123 356.324 289.766C357.134 287.128 358.271 284.477 358.861 281.778C359.407 279.278 358.44 277.272 358.761 274.915C359.45 269.869 365.027 270.381 367.466 266.63C369.675 263.233 367.4 257.947 366.617 254.305C365.258 247.98 363.568 241.732 362.013 235.454C360.407 239.192 358.907 242.921 357.938 246.882C357.688 247.898 357.666 249.689 356.971 250.59C356.469 251.243 355.202 251.158 354.805 251.759C353.466 253.787 353.62 255.821 353.388 258.429C352.937 263.487 352.119 268.49 351.287 273.495C348.492 290.312 346.363 306.886 339.757 322.76C327.582 352.014 311.136 379.235 286.815 399.986C275.793 409.39 261.777 415.237 248.436 420.192C232.524 426.102 217.388 429.304 200.306 427.77C184.185 426.324 168.074 421.317 153.306 414.827C138.762 408.433 125.106 402.805 112.688 392.504C99.4181 381.496 86.1659 368.21 77.0383 353.479C73.7096 348.106 67.7836 337.022 69.2361 330.294C71.0989 321.666 84.3522 327.356 89.1389 329.143C85.1113 322.55 74.3305 310.811 79.6903 302.589C87.5147 290.59 107.993 302.742 116.378 307.189C112.057 298.398 105.452 291.013 100.77 282.435C98.4516 278.185 92.0406 260.902 101.459 259.966C104.311 259.683 107.338 262.939 109.353 264.571C113.263 267.741 117.143 270.947 121.021 274.156C129.498 281.17 138.445 287.135 148.208 292.214C167.745 302.378 186.644 307.776 208.835 305.614C227.742 303.774 248.591 298.027 263.294 285.561C272.123 278.077 279.142 269.796 283.677 259.04C288.686 247.161 291.878 234.114 295.382 221.721C289.951 220.322 286.145 221.133 287.193 214.672C288.449 206.927 288.173 199.091 288.219 191.231C288.314 174.936 288.615 158.461 293.712 142.825C294.619 140.042 295.419 137.174 296.982 134.668C298.909 131.579 300.698 131.119 298.217 127.75C293.441 121.265 288.479 115.721 284.937 108.269C283.094 104.392 281.384 100.595 279.113 96.9723C275.389 91.0313 270.52 86.672 265.741 81.5252C260.255 75.6188 255.958 70.0471 253.137 62.4596C251.82 58.918 250.024 55.3942 249.343 51.653C248.531 47.1922 249.374 42.6288 249.758 38.1658C251.033 23.3602 256.004 11.4124 270.561 5.62756C282.389 0.92585 295.988 -1.09873 308.39 2.53659C323.395 6.936 330.506 20.1019 337.651 32.8428C339.668 36.4357 340.907 40.2372 342.736 43.8837C344.608 47.6216 346.553 47.6272 350.004 49.1443C356.844 52.1493 356.264 60.8177 353.295 66.5155C349.521 73.756 350.285 82.1443 347.033 89.7027C343.702 97.443 338.533 99.5992 330.651 101.334C333.656 103.721 336.396 106.842 340.226 107.863C344.876 109.101 350.509 107.919 355.322 107.988C365.315 108.128 375.42 109.482 384.916 112.677C394.241 115.814 402.599 120.833 411.269 125.325C415.231 127.379 418.927 130.308 423.455 130.904C427.848 131.483 432.274 130.4 436.693 130.967C446.381 132.213 457.002 130.643 466.884 130.427C477.525 130.195 488.204 130.344 498.825 129.565C503.413 129.229 507.945 128.746 512.547 129.147C516.731 129.509 519.226 128.524 522.843 131.388C525.248 133.291 527.164 137.949 529.998 138.584C533.019 139.261 538.969 137.367 541.952 136.917C551.982 135.405 562.09 133.405 572.057 131.561C576.728 130.696 581.13 129.121 585.841 128.308C590.703 127.468 595.751 127.195 600.554 126.114C608.326 124.365 616.719 123.713 624.822 122.596C634.312 121.287 644.072 118.528 653.637 118.178C693.676 116.717 738.554 114.34 774.055 136.54C782.39 141.753 790.956 148.409 797.377 155.866C803.277 162.716 810.52 171.778 812.025 180.906C813.37 189.053 812.389 203.327 801.494 203.426C790.87 203.523 779.955 197.18 770.814 192.483C774.718 201.843 786.583 221.891 776.284 230.98C765.655 240.36 746.085 220.007 739.066 213.473C740.452 223.474 750.358 259.82 731.613 260.383C713.318 260.932 702.703 238.379 696.185 224.99C692.745 217.922 690.177 209.617 684.591 203.864C678.974 198.081 671.186 198.273 663.583 197.533C645.104 195.736 626.725 195.642 608.139 195.197C584.614 194.635 561.511 198.511 537.956 196.322C538.252 200.864 536.528 209.131 531.926 210.87C525.146 213.433 516.831 209.749 509.891 209.749C510.357 212.526 514.311 215.452 515.976 217.548C518.962 221.306 521.531 225.336 523.932 229.486C528.624 237.591 533.615 245.709 536.946 254.494C538.621 258.914 540.053 263.472 541.26 268.041C541.953 270.668 541.941 274.594 543.348 276.917C545.095 279.803 547.778 278.137 549.992 280.4C553.182 283.665 549.853 285.383 548.847 288.261C547.757 291.374 549.126 296.648 548.71 300.07C548.088 305.209 547.428 310.384 546.575 315.489C545.017 324.821 541.709 333.453 539.497 342.563C537.396 351.205 543.08 360.343 544.955 368.702C547.134 378.405 548.398 388.221 550.634 397.906C552.995 408.13 554.091 418.66 555.72 429.018C557.309 439.137 559.599 449.133 561.153 459.259C564.114 478.557 565.995 498.208 568.329 517.584C569.553 527.74 570.493 538.029 570.584 548.265C570.668 557.849 572.021 567.209 572.218 576.775C572.428 586.915 572.547 597.062 572.985 607.194C573.417 617.215 572.174 627.194 571.72 637.201C571.503 641.971 571.343 646.748 571.414 651.523C571.472 655.553 572.578 660.269 571.578 664.213C569.604 672.01 558.63 676.694 551.742 678.963C543.321 681.737 534.432 683.654 525.811 685.703C521.611 686.701 517.357 687.551 513.087 688.178C511.427 688.422 509.502 688.323 507.951 689.029C505.616 690.092 506.076 689.557 505.952 692.214C505.752 696.507 507.009 701.209 507.664 705.416C508.266 709.291 507.499 715.661 508.996 719.133C510.7 723.083 522.708 726.318 525.647 723.639C527.719 721.749 528.312 718.177 530.754 716.587C534.269 714.293 535.885 717.506 535.868 720.956C535.855 723.556 533.888 726.693 536.253 728.593C538.302 730.239 542.622 729.377 544.602 728.021C547.901 725.762 554.745 711.777 556.42 723.672C556.814 726.474 555.606 729.738 557.981 731.865C560.208 733.859 565.576 733.769 568.384 734.125C572.867 734.693 576.791 734.883 581.315 734.786C586.366 734.677 591.138 735.863 596.103 736.086C603.84 736.433 611.603 737.481 619.515 737.633C627.591 737.791 636.393 739.9 642.605 745.38C649.737 751.672 648.269 759.45 646.909 767.877C646.01 773.45 653.12 779.47 645.943 784.344C643.065 786.298 638.283 785.886 634.973 785.915C629.317 785.968 623.722 785.309 618.059 785.624C576.807 787.921 535.398 786.209 494.155 784.848C484.52 784.531 474.513 784.973 464.96 783.808C460.703 783.29 456.48 782.549 452.215 782.093C448.566 781.703 444.21 782.346 440.725 781.16C432.095 778.225 441.329 769.296 442.017 764.196C443.353 754.296 442.787 743.806 442.852 733.831C442.92 723.226 442.852 712.62 442.852 702.015C438.263 702.334 425.388 705.733 421.791 701.795C418.818 698.538 423.877 691.74 424.126 687.83C425.137 671.894 424.796 655.942 425.998 639.992C427.238 623.543 427.086 607.241 427.602 590.79C428.153 573.217 429.4 555.707 429.4 538.108C416.562 551.699 404.301 566.624 390.027 578.739C383.912 583.928 377.253 588.418 370.868 593.257C363.673 598.708 356.974 604.773 349.822 610.276C336.515 620.515 320.691 626.5 306.633 635.603C292.422 644.805 277.258 652.384 260.898 656.938C243.014 661.918 224.049 663.573 205.543 662.618C196.664 662.161 187.829 661.02 179.085 659.425C175.44 658.759 171.831 657.891 168.185 657.238C163.027 656.313 160.513 657.177 155.684 658.122C149.339 659.363 147.759 650.094 145.878 645.638C142.409 637.419 140.907 628.438 137.837 620.032C132.468 605.331 127.521 590.796 122.771 575.847C121.693 572.455 120.975 566.572 116.931 566.094C114.201 565.772 109.499 568.817 106.822 569.658C102.168 571.119 97.7571 571.776 92.9101 571.897C88.8246 571.997 88.3363 573.529 85.7824 576.436C83.4414 579.101 79.2143 580.629 80.0091 584.498C80.4795 586.79 82.913 588.559 83.3678 591.147C84.9999 600.436 75.6749 592.405 72.3975 590.376C70.4122 594.754 85.4112 599.616 79.9455 605.816C77.269 608.851 71.6886 604.24 69.0254 603.061C62.814 600.311 61.8698 607.789 60.2155 612.635C57.18 621.531 55.1478 630.866 52.8213 639.968C50.5807 648.739 48.7581 657.702 45.2221 666.075C42.0706 673.537 36.5827 678.409 32.6632 685.148C30.7347 688.464 28.6044 690.853 24.4352 691.01C21.6149 691.117 16.3978 690.007 13.7336 688.932C11.2176 687.916 8.48977 684.823 6.73068 682.882C4.28826 680.187 4.77095 677.581 2.79337 674.283C2.87921 675.939 3.24819 677.48 3.33737 679.098C-0.272205 676.256 3.32622 671.787 2.67075 668.184C2.46452 667.043 1.28845 666.087 1.22157 664.89C1.19258 664.4 2.24045 663.272 2.31068 662.588C2.39429 661.779 2.46006 659.428 2.23042 658.828C2.06432 658.396 0.675336 656.199 0.705435 656.597C0.684254 656.306 0.193762 655.847 0.456844 654.887C0.854812 653.437 3.16235 653.179 2.97842 651.236Z" fill="black"/>
</svg>
