<svg width="127" height="33" viewBox="0 0 127 33" fill="none" xmlns="http://www.w3.org/2000/svg">
<path opacity="0.64" d="M12.9307 24.4229C12.394 24.4229 11.8693 24.5821 11.4231 24.8803C10.9768 25.1784 10.629 25.6022 10.4236 26.0981C10.2182 26.5939 10.1645 27.1396 10.2692 27.666C10.3739 28.1924 10.6323 28.6759 11.0119 29.0555C11.3913 29.4349 11.8749 29.6934 12.4013 29.7981C12.9277 29.9028 13.4733 29.8491 13.9692 29.6437C14.4651 29.4383 14.8889 29.0905 15.1871 28.6442C15.4852 28.198 15.6444 27.6733 15.6444 27.1365C15.6444 26.4169 15.3585 25.7266 14.8496 25.2177C14.3407 24.7088 13.6504 24.4229 12.9307 24.4229Z" fill="#542DED"/>
<path opacity="0.64" d="M23.7989 24.4229C23.2621 24.4229 22.7375 24.5821 22.2913 24.8803C21.845 25.1784 21.4972 25.6022 21.2918 26.0981C21.0864 26.5939 21.0326 27.1396 21.1373 27.666C21.242 28.1924 21.5005 28.6759 21.88 29.0555C22.2595 29.4349 22.7431 29.6934 23.2695 29.7981C23.7959 29.9028 24.3415 29.8491 24.8374 29.6437C25.3332 29.4383 25.757 29.0905 26.0552 28.6442C26.3534 28.198 26.5125 27.6733 26.5125 27.1365C26.5125 26.4169 26.2266 25.7266 25.7177 25.2177C25.2088 24.7088 24.5186 24.4229 23.7989 24.4229Z" fill="#542DED"/>
<path d="M26.4584 5.42725H8.73804C8.5705 5.43305 8.41093 5.50072 8.29028 5.61721L11.004 17.4489C11.004 17.5438 11.004 17.6252 11.0989 17.7202C11.4153 18.1044 11.8132 18.4133 12.2638 18.6246C12.7144 18.8358 13.2065 18.944 13.7041 18.9413H23.7989C25.4008 18.9237 26.9318 18.2786 28.0632 17.1445C29.1947 16.0106 29.8363 14.4781 29.8505 12.8763V8.80577C29.8469 7.90849 29.4879 7.04917 28.8522 6.41597C28.2164 5.78276 27.3557 5.42725 26.4584 5.42725Z" fill="#542DED"/>
<path opacity="0.8" d="M24.613 22.7811H15.3865C13.9552 22.7871 12.5649 22.3031 11.4467 21.4097C10.3285 20.5161 9.54983 19.2668 9.23998 17.8694L6.52634 5.88842C6.43542 5.48602 6.21227 5.12569 5.89253 4.86498C5.5728 4.60427 5.17492 4.45823 4.76245 4.45017H3.582C3.35169 4.45017 3.13082 4.35868 2.96797 4.19584C2.80511 4.03299 2.71362 3.81211 2.71362 3.5818C2.71362 3.35149 2.80511 3.13062 2.96797 2.96777C3.13082 2.80491 3.35169 2.71342 3.582 2.71342H4.76245C5.57741 2.70955 6.36913 2.98474 7.006 3.49324C7.64285 4.00174 8.08647 4.71292 8.26306 5.50851L10.9768 17.4894C11.2025 18.5004 11.7667 19.4039 12.5761 20.0504C13.3855 20.6969 14.3914 21.0476 15.4272 21.0444H24.6537C24.884 21.0444 25.1049 21.1358 25.2677 21.2987C25.4306 21.4615 25.522 21.6824 25.522 21.9127C25.522 22.143 25.4306 22.3639 25.2677 22.5268C25.1049 22.6896 24.884 22.7811 24.6537 22.7811H24.613Z" fill="#542DED"/>
<path d="M46.9086 14.8162C45.8014 14.8162 44.9168 14.4743 44.2546 13.7905C43.5925 13.0958 43.2289 12.1514 43.1637 10.9574L43.1475 10.4038L43.1637 9.8665C43.2289 8.69419 43.5925 7.76068 44.2546 7.06599C44.9168 6.37129 45.8014 6.02393 46.9086 6.02393C48.1027 6.02393 49.0253 6.40385 49.6766 7.16368C50.3387 7.9235 50.6698 8.9547 50.6698 10.2572V10.5503C50.6698 10.6588 50.6317 10.7512 50.5558 10.8271C50.4907 10.8922 50.4038 10.9248 50.2953 10.9248H44.6454V11.0714C44.678 11.7769 44.8951 12.3794 45.2967 12.8787C45.6983 13.3779 46.2302 13.6276 46.8923 13.6276C47.4025 13.6276 47.815 13.5299 48.1298 13.3346C48.4554 13.1283 48.6996 12.9167 48.8625 12.6996C48.9602 12.5693 49.0361 12.4933 49.0904 12.4716C49.1447 12.439 49.2369 12.4228 49.3672 12.4228H50.0836C50.1813 12.4228 50.2627 12.4499 50.3278 12.5042C50.4038 12.5585 50.4418 12.629 50.4418 12.7158C50.4418 12.9546 50.2953 13.2423 50.0022 13.5788C49.7091 13.9153 49.2912 14.2083 48.7485 14.458C48.2166 14.6968 47.6033 14.8162 46.9086 14.8162ZM49.1881 9.81765V9.76881C49.1881 9.009 48.9819 8.39029 48.5694 7.91265C48.1569 7.43504 47.6033 7.19624 46.9086 7.19624C46.203 7.19624 45.6494 7.43504 45.2478 7.91265C44.8463 8.39029 44.6454 9.009 44.6454 9.76881V9.81765H49.1881ZM55.385 14.8162C54.2235 14.8162 53.3172 14.4906 52.6659 13.8393C52.0146 13.1772 51.6727 12.2545 51.6401 11.0714L51.6238 10.4201L51.6401 9.76881C51.6727 8.58567 52.0146 7.66842 52.6659 7.01714C53.3172 6.355 54.2235 6.02393 55.385 6.02393C56.1665 6.02393 56.8232 6.16504 57.3551 6.44727C57.8978 6.71863 58.2995 7.06056 58.56 7.47304C58.8313 7.88552 58.9778 8.29797 58.9996 8.71047C59.0104 8.80816 58.9724 8.89503 58.8856 8.97099C58.8096 9.04694 58.7228 9.08496 58.6251 9.08496H57.9087C57.8001 9.08496 57.7187 9.06322 57.6645 9.01983C57.6102 8.96553 57.5559 8.87329 57.5016 8.74304C57.3062 8.21118 57.0348 7.83667 56.6875 7.61957C56.351 7.39163 55.9223 7.27765 55.4013 7.27765C54.7174 7.27765 54.1746 7.48932 53.773 7.91265C53.3714 8.33599 53.1543 8.98181 53.1218 9.85022L53.1055 10.4201L53.1218 10.9899C53.1543 11.8583 53.3714 12.5042 53.773 12.9275C54.1746 13.3508 54.7174 13.5625 55.4013 13.5625C55.9331 13.5625 56.3673 13.454 56.7038 13.2369C57.0403 13.0089 57.3062 12.629 57.5016 12.0971C57.5559 11.9669 57.6102 11.88 57.6645 11.8366C57.7187 11.7823 57.8001 11.7552 57.9087 11.7552H58.6251C58.7228 11.7552 58.8096 11.7932 58.8856 11.8692C58.9724 11.9451 59.0104 12.032 58.9996 12.1297C58.9778 12.5313 58.8313 12.9383 58.56 13.3508C58.2995 13.7633 57.8978 14.1106 57.3551 14.3929C56.8232 14.6751 56.1665 14.8162 55.385 14.8162ZM63.7345 14.8162C62.5404 14.8162 61.6178 14.4798 60.9665 13.8067C60.3261 13.1337 59.9842 12.2382 59.9408 11.1202L59.9245 10.4201L59.9408 9.71996C59.9842 8.60195 60.3315 7.70642 60.9828 7.03342C61.6449 6.36043 62.5622 6.02393 63.7345 6.02393C64.9068 6.02393 65.8186 6.36043 66.4699 7.03342C67.132 7.70642 67.4847 8.60195 67.5282 9.71996C67.5499 9.95874 67.5608 10.1921 67.5608 10.4201C67.5608 10.648 67.5499 10.8814 67.5282 11.1202C67.4847 12.2382 67.1374 13.1337 66.4862 13.8067C65.8457 14.4798 64.9285 14.8162 63.7345 14.8162ZM63.7345 13.5951C64.4292 13.5951 64.9773 13.3779 65.379 12.9438C65.7914 12.4987 66.014 11.8637 66.0465 11.0388C66.0574 10.9303 66.0628 10.724 66.0628 10.4201C66.0628 10.1162 66.0574 9.90989 66.0465 9.80137C66.014 8.97644 65.7914 8.34681 65.379 7.91265C64.9773 7.46761 64.4292 7.24509 63.7345 7.24509C63.0397 7.24509 62.4861 7.46761 62.0737 7.91265C61.672 8.34681 61.455 8.97644 61.4224 9.80137L61.4062 10.4201L61.4224 11.0388C61.455 11.8637 61.672 12.4987 62.0737 12.9438C62.4861 13.3779 63.0397 13.5951 63.7345 13.5951ZM69.3398 14.6534C69.2312 14.6534 69.139 14.6208 69.063 14.5557C68.9979 14.4798 68.9653 14.3874 68.9653 14.2789V6.56124C68.9653 6.4527 68.9979 6.36586 69.063 6.30073C69.139 6.22475 69.2312 6.18675 69.3398 6.18675H70.0237C70.1322 6.18675 70.2191 6.22475 70.2842 6.30073C70.3493 6.36586 70.3819 6.4527 70.3819 6.56124V7.11483C70.968 6.38757 71.7604 6.02393 72.7591 6.02393C73.953 6.02393 74.7997 6.52325 75.2991 7.52188C75.5596 7.06599 75.9286 6.70235 76.4062 6.43099C76.8947 6.15962 77.4374 6.02393 78.0344 6.02393C78.9245 6.02393 79.6517 6.32786 80.2162 6.93573C80.7807 7.5436 81.0629 8.42285 81.0629 9.57342V14.2789C81.0629 14.3874 81.0249 14.4798 80.9489 14.5557C80.8838 14.6208 80.7969 14.6534 80.6884 14.6534H79.9883C79.8797 14.6534 79.7875 14.6208 79.7115 14.5557C79.6464 14.4798 79.6138 14.3874 79.6138 14.2789V9.71996C79.6138 8.85156 79.4347 8.23284 79.0765 7.86381C78.7183 7.48389 78.2461 7.29393 77.66 7.29393C77.1389 7.29393 76.6884 7.48932 76.3085 7.88009C75.9394 8.26003 75.755 8.87329 75.755 9.71996V14.2789C75.755 14.3874 75.7169 14.4798 75.641 14.5557C75.5759 14.6208 75.489 14.6534 75.3805 14.6534H74.6641C74.5555 14.6534 74.4632 14.6208 74.3873 14.5557C74.3221 14.4798 74.2896 14.3874 74.2896 14.2789V9.71996C74.2896 8.86247 74.0996 8.24375 73.7197 7.86381C73.3506 7.48389 72.8893 7.29393 72.3357 7.29393C71.8147 7.29393 71.3642 7.48389 70.9843 7.86381C70.6152 8.24375 70.4307 8.85701 70.4307 9.70368V14.2789C70.4307 14.3874 70.3927 14.4798 70.3167 14.5557C70.2516 14.6208 70.1648 14.6534 70.0562 14.6534H69.3398ZM83.1419 14.6534C83.0336 14.6534 82.9416 14.6208 82.8651 14.5557C82.8 14.4798 82.7674 14.3874 82.7674 14.2789V6.56124C82.7674 6.4527 82.8 6.36586 82.8651 6.30073C82.9416 6.22475 83.0336 6.18675 83.1419 6.18675H83.8257C83.9348 6.18675 84.0211 6.22475 84.0862 6.30073C84.1514 6.36586 84.1839 6.4527 84.1839 6.56124V7.11483C84.7701 6.38757 85.563 6.02393 86.5611 6.02393C87.7554 6.02393 88.6021 6.52325 89.1011 7.52188C89.3616 7.06599 89.7312 6.70235 90.2083 6.43099C90.6968 6.15962 91.2398 6.02393 91.8365 6.02393C92.7271 6.02393 93.4541 6.32786 94.0183 6.93573C94.5833 7.5436 94.865 8.42285 94.865 9.57342V14.2789C94.865 14.3874 94.8275 14.4798 94.751 14.5557C94.6859 14.6208 94.5996 14.6534 94.4905 14.6534H93.7903C93.6821 14.6534 93.5901 14.6208 93.5135 14.5557C93.4484 14.4798 93.4159 14.3874 93.4159 14.2789V9.71996C93.4159 8.85156 93.2367 8.23284 92.8785 7.86381C92.5203 7.48389 92.0482 7.29393 91.462 7.29393C90.941 7.29393 90.4908 7.48932 90.1106 7.88009C89.7418 8.26003 89.557 8.87329 89.557 9.71996V14.2789C89.557 14.3874 89.5196 14.4798 89.443 14.5557C89.3779 14.6208 89.2916 14.6534 89.1825 14.6534H88.4661C88.3578 14.6534 88.2658 14.6208 88.1893 14.5557C88.1242 14.4798 88.0916 14.3874 88.0916 14.2789V9.71996C88.0916 8.86247 87.9019 8.24375 87.5218 7.86381C87.153 7.48389 86.6914 7.29393 86.1378 7.29393C85.6168 7.29393 85.1666 7.48389 84.7864 7.86381C84.4176 8.24375 84.2328 8.85701 84.2328 9.70368V14.2789C84.2328 14.3874 84.1953 14.4798 84.1188 14.5557C84.0537 14.6208 83.9674 14.6534 83.8583 14.6534H83.1419ZM99.9238 14.8162C98.8166 14.8162 97.9317 14.4743 97.2698 13.7905C96.608 13.0958 96.244 12.1514 96.1789 10.9574L96.1626 10.4038L96.1789 9.8665C96.244 8.69419 96.608 7.76068 97.2698 7.06599C97.9317 6.37129 98.8166 6.02393 99.9238 6.02393C101.118 6.02393 102.04 6.40385 102.692 7.16368C103.354 7.9235 103.685 8.9547 103.685 10.2572V10.5503C103.685 10.6588 103.647 10.7512 103.571 10.8271C103.506 10.8922 103.419 10.9248 103.31 10.9248H97.6606V11.0714C97.6931 11.7769 97.9105 12.3794 98.3119 12.8787C98.7132 13.3779 99.2456 13.6276 99.9075 13.6276C100.418 13.6276 100.83 13.5299 101.145 13.3346C101.471 13.1283 101.715 12.9167 101.878 12.6996C101.975 12.5693 102.051 12.4933 102.106 12.4716C102.16 12.439 102.252 12.4228 102.382 12.4228H103.099C103.196 12.4228 103.278 12.4499 103.343 12.5042C103.419 12.5585 103.457 12.629 103.457 12.7158C103.457 12.9546 103.31 13.2423 103.017 13.5788C102.724 13.9153 102.307 14.2083 101.764 14.458C101.232 14.6968 100.618 14.8162 99.9238 14.8162ZM102.203 9.81765V9.76881C102.203 9.009 101.997 8.39029 101.585 7.91265C101.172 7.43504 100.618 7.19624 99.9238 7.19624C99.218 7.19624 98.6644 7.43504 98.263 7.91265C97.8617 8.39029 97.6606 9.009 97.6606 9.76881V9.81765H102.203ZM105.388 14.6534C105.28 14.6534 105.187 14.6208 105.111 14.5557C105.046 14.4798 105.014 14.3874 105.014 14.2789V6.57752C105.014 6.46898 105.046 6.37671 105.111 6.30073C105.187 6.22475 105.28 6.18675 105.388 6.18675H106.072C106.192 6.18675 106.284 6.22475 106.349 6.30073C106.424 6.36586 106.463 6.45812 106.463 6.57752V7.29393C106.908 6.55581 107.662 6.18675 108.726 6.18675H109.361C109.481 6.18675 109.573 6.21932 109.638 6.28445C109.703 6.34957 109.735 6.44184 109.735 6.56124V7.16368C109.735 7.27222 109.703 7.36449 109.638 7.44047C109.573 7.5056 109.481 7.53816 109.361 7.53816H108.433C107.836 7.53816 107.364 7.71184 107.016 8.05919C106.68 8.40657 106.512 8.87875 106.512 9.47573V14.2789C106.512 14.3874 106.473 14.4798 106.398 14.5557C106.322 14.6208 106.229 14.6534 106.121 14.6534H105.388ZM113.711 14.8162C112.551 14.8162 111.644 14.4906 110.992 13.8393C110.341 13.1772 109.999 12.2545 109.967 11.0714L109.95 10.4201L109.967 9.76881C109.999 8.58567 110.341 7.66842 110.992 7.01714C111.644 6.355 112.551 6.02393 113.711 6.02393C114.493 6.02393 115.15 6.16504 115.682 6.44727C116.225 6.71863 116.626 7.06056 116.886 7.47304C117.158 7.88552 117.305 8.29797 117.326 8.71047C117.337 8.80816 117.299 8.89503 117.212 8.97099C117.136 9.04694 117.049 9.08496 116.952 9.08496H116.235C116.127 9.08496 116.045 9.06322 115.991 9.01983C115.937 8.96553 115.883 8.87329 115.828 8.74304C115.633 8.21118 115.362 7.83667 115.014 7.61957C114.678 7.39163 114.249 7.27765 113.728 7.27765C113.044 7.27765 112.502 7.48932 112.1 7.91265C111.698 8.33599 111.481 8.98181 111.448 9.85022L111.432 10.4201L111.448 10.9899C111.481 11.8583 111.698 12.5042 112.1 12.9275C112.502 13.3508 113.044 13.5625 113.728 13.5625C114.26 13.5625 114.694 13.454 115.03 13.2369C115.367 13.0089 115.633 12.629 115.828 12.0971C115.883 11.9669 115.937 11.88 115.991 11.8366C116.045 11.7823 116.127 11.7552 116.235 11.7552H116.952C117.049 11.7552 117.136 11.7932 117.212 11.8692C117.299 11.9451 117.337 12.032 117.326 12.1297C117.305 12.5313 117.158 12.9383 116.886 13.3508C116.626 13.7633 116.225 14.1106 115.682 14.3929C115.15 14.6751 114.493 14.8162 113.711 14.8162ZM121.979 14.8162C120.872 14.8162 119.988 14.4743 119.325 13.7905C118.664 13.0958 118.3 12.1514 118.235 10.9574L118.218 10.4038L118.235 9.8665C118.3 8.69419 118.664 7.76068 119.325 7.06599C119.988 6.37129 120.872 6.02393 121.979 6.02393C123.174 6.02393 124.096 6.40385 124.747 7.16368C125.41 7.9235 125.741 8.9547 125.741 10.2572V10.5503C125.741 10.6588 125.703 10.7512 125.627 10.8271C125.562 10.8922 125.475 10.9248 125.366 10.9248H119.716V11.0714C119.749 11.7769 119.966 12.3794 120.368 12.8787C120.77 13.3779 121.301 13.6276 121.963 13.6276C122.474 13.6276 122.886 13.5299 123.201 13.3346C123.526 13.1283 123.77 12.9167 123.933 12.6996C124.031 12.5693 124.108 12.4933 124.161 12.4716C124.216 12.439 124.308 12.4228 124.438 12.4228H125.154C125.252 12.4228 125.334 12.4499 125.399 12.5042C125.475 12.5585 125.513 12.629 125.513 12.7158C125.513 12.9546 125.366 13.2423 125.073 13.5788C124.78 13.9153 124.362 14.2083 123.819 14.458C123.288 14.6968 122.675 14.8162 121.979 14.8162ZM124.259 9.81765V9.76881C124.259 9.009 124.053 8.39029 123.64 7.91265C123.228 7.43504 122.675 7.19624 121.979 7.19624C121.274 7.19624 120.721 7.43504 120.319 7.91265C119.917 8.39029 119.716 9.009 119.716 9.76881V9.81765H124.259Z" fill="#030303"/>
<path fill-rule="evenodd" clip-rule="evenodd" d="M77.3396 17.9102H47.8284L42.3333 25.2371L47.8284 32.564H74.0831L77.3396 17.9102ZM78.9679 17.9102L75.7115 32.564H80.7995L86.2948 25.2371L80.7995 17.9102H78.9679Z" fill="#B6A4FB"/>
<path d="M48.773 28.4933C48.7079 28.4933 48.6525 28.4705 48.607 28.4249C48.5614 28.3793 48.5386 28.324 48.5386 28.2588V21.8991C48.5386 21.8274 48.5581 21.7688 48.5972 21.7232C48.6428 21.6776 48.7014 21.6548 48.773 21.6548H49.6718C49.7434 21.6548 49.8021 21.6776 49.8476 21.7232C49.8932 21.7688 49.916 21.8274 49.916 21.8991V24.4098H52.7687V21.8991C52.7687 21.8274 52.7914 21.7688 52.837 21.7232C52.8826 21.6776 52.938 21.6548 53.0031 21.6548H53.9117C53.9833 21.6548 54.0387 21.6776 54.0777 21.7232C54.1233 21.7688 54.1461 21.8274 54.1461 21.8991V28.2588C54.1461 28.324 54.1233 28.3793 54.0777 28.4249C54.0387 28.4705 53.9833 28.4933 53.9117 28.4933H53.0031C52.938 28.4933 52.8826 28.4705 52.837 28.4249C52.7914 28.3793 52.7687 28.324 52.7687 28.2588V25.6504H49.916V28.2588C49.916 28.324 49.8932 28.3793 49.8476 28.4249C49.8021 28.4705 49.7434 28.4933 49.6718 28.4933H48.773ZM57.0228 28.4933C56.9577 28.4933 56.9023 28.4705 56.8567 28.4249C56.8112 28.3793 56.7884 28.324 56.7884 28.2588V22.876H54.9811C54.9159 22.876 54.8606 22.8532 54.815 22.8076C54.7694 22.762 54.7466 22.7034 54.7466 22.6318V21.8991C54.7466 21.8274 54.7661 21.7688 54.8052 21.7232C54.8508 21.6776 54.9094 21.6548 54.9811 21.6548H59.9731C60.0448 21.6548 60.1034 21.6776 60.149 21.7232C60.1946 21.7688 60.2174 21.8274 60.2174 21.8991V22.6318C60.2174 22.7034 60.1946 22.762 60.149 22.8076C60.1034 22.8532 60.0448 22.876 59.9731 22.876H58.1756V28.2588C58.1756 28.324 58.1528 28.3793 58.1072 28.4249C58.0681 28.4705 58.0128 28.4933 57.9411 28.4933H57.0228ZM61.0521 28.4933C60.987 28.4933 60.9317 28.4705 60.8861 28.4249C60.8405 28.3793 60.8177 28.324 60.8177 28.2588V21.8991C60.8177 21.8274 60.8372 21.7688 60.8763 21.7232C60.9219 21.6776 60.9805 21.6548 61.0521 21.6548H61.8435C61.9672 21.6548 62.0649 21.7167 62.1365 21.8404L64.022 25.3378L65.9075 21.8404C65.9791 21.7167 66.0768 21.6548 66.2005 21.6548H66.9821C67.0537 21.6548 67.1123 21.6776 67.1579 21.7232C67.2035 21.7688 67.2263 21.8274 67.2263 21.8991V28.2588C67.2263 28.3305 67.2035 28.3891 67.1579 28.4347C67.1123 28.4738 67.0537 28.4933 66.9821 28.4933H66.1419C66.0768 28.4933 66.0214 28.4705 65.9758 28.4249C65.9302 28.3793 65.9075 28.324 65.9075 28.2588V24.0581L64.5495 26.6371C64.4779 26.7804 64.3704 26.8521 64.2271 26.8521H63.8168C63.6801 26.8521 63.5694 26.7804 63.4847 26.6371L62.1268 24.0581V28.2588C62.1268 28.324 62.104 28.3793 62.0584 28.4249C62.0193 28.4705 61.9639 28.4933 61.8923 28.4933H61.0521ZM68.5893 28.4933C68.5241 28.4933 68.4688 28.4705 68.4232 28.4249C68.3776 28.3793 68.3548 28.324 68.3548 28.2588V21.8893C68.3548 21.8176 68.3776 21.7623 68.4232 21.7232C68.4688 21.6776 68.5241 21.6548 68.5893 21.6548H69.5076C69.5792 21.6548 69.6346 21.6776 69.6737 21.7232C69.7192 21.7623 69.742 21.8176 69.742 21.8893V27.321H72.8389C72.9105 27.321 72.9691 27.3438 73.0147 27.3894C73.0603 27.435 73.0831 27.4903 73.0831 27.5554V28.2588C73.0831 28.324 73.0603 28.3793 73.0147 28.4249C72.9691 28.4705 72.9105 28.4933 72.8389 28.4933H68.5893Z" fill="white"/>
</svg>
