<svg width="172" height="40" viewBox="0 0 172 40" fill="none" xmlns="http://www.w3.org/2000/svg">
<path d="M64.9559 27.3992H62.1711V12.1545H67.89C68.5807 12.1441 69.2653 12.2857 69.8952 12.5693C70.4743 12.8318 70.9958 13.2063 71.4299 13.6711C71.8535 14.1239 72.1888 14.6519 72.4185 15.2281C72.8204 16.2154 72.8822 17.3086 72.594 18.335C72.4761 18.7586 72.2987 19.1632 72.0673 19.537C71.5737 20.327 70.8703 20.9641 70.0357 21.3769C70.7802 22.3926 71.5206 23.3984 72.2569 24.3942C72.9932 25.39 73.7377 26.3917 74.4904 27.3992H72.3026C72.123 27.395 71.9452 27.3623 71.7758 27.3026C71.556 27.2302 71.3469 27.1285 71.1542 27.0003C70.9149 26.8456 70.6904 26.6691 70.4835 26.4731C70.2319 26.2266 70.006 25.9551 69.8092 25.663L67.0349 21.9182H64.9559V27.3992ZM67.976 19.1117C68.2422 19.1102 68.5047 19.0502 68.7451 18.936C68.9862 18.8267 69.2034 18.6708 69.3843 18.4773C69.5669 18.284 69.7126 18.0589 69.8145 17.8131C69.9196 17.5664 69.974 17.301 69.9742 17.0328C69.9745 16.76 69.9202 16.49 69.8145 16.2385C69.7118 15.9932 69.5661 15.7682 69.3843 15.5743C69.2029 15.3818 68.9858 15.2266 68.7451 15.1174C68.505 15.0024 68.2423 14.9423 67.976 14.9416H64.9559V19.1012L67.976 19.1117Z" fill="#070707"/>
<path d="M81.9286 12.154H84.4533L91.1215 27.3991H89.385C89.0011 27.4025 88.6244 27.2958 88.2994 27.0916C87.9741 26.8878 87.7178 26.5907 87.564 26.2393L86.6579 24.1761H79.724L78.8302 26.2393C78.757 26.411 78.6559 26.5695 78.5311 26.7085C78.4032 26.8498 78.2564 26.9728 78.0948 27.074C77.9311 27.1783 77.7534 27.2588 77.567 27.313C77.3824 27.3702 77.1902 27.3992 76.9969 27.3991H75.2604L81.9286 12.154ZM80.9591 21.3767H85.4228L83.4311 16.7601C83.3462 16.573 83.2836 16.3765 83.2446 16.1749C83.2129 15.9991 83.1918 15.862 83.1848 15.7707C83.1718 15.9083 83.1506 16.045 83.1215 16.1801C83.082 16.3787 83.023 16.573 82.9455 16.7601L80.9591 21.3767Z" fill="#070707"/>
<path d="M99.1377 27.3992H96.3363V20.9411C96.3401 20.7297 96.2892 20.5209 96.1887 20.3349C96.0687 20.1257 95.9372 19.9233 95.795 19.7286L90.1976 12.1546H92.3364C92.7656 12.1454 93.1906 12.2401 93.5754 12.4305C93.9353 12.6158 94.2416 12.8905 94.4647 13.2283L97.4752 17.3035C97.5635 17.4216 97.629 17.5551 97.6685 17.6971C97.7036 17.8307 97.723 17.9168 97.73 17.952C97.7432 17.8673 97.7632 17.7839 97.7898 17.7024C97.8322 17.5572 97.9026 17.4217 97.9971 17.3035L100.997 13.2389C101.215 12.893 101.522 12.612 101.886 12.4252C102.272 12.2383 102.697 12.1455 103.125 12.1546H105.289L99.6772 19.7391C99.5929 19.8534 99.5173 19.957 99.4558 20.0537C99.3923 20.1442 99.3336 20.2381 99.2801 20.3349C99.2314 20.426 99.1942 20.5228 99.1693 20.6231C99.1432 20.727 99.1308 20.8339 99.1324 20.9411L99.1377 27.3992Z" fill="#070707"/>
<path d="M120.688 20.0815V25.9384C120.343 26.256 119.954 26.5228 119.533 26.7308C119.102 26.943 118.65 27.1105 118.184 27.2304C117.695 27.3548 117.197 27.4398 116.694 27.4846C116.182 27.5302 115.66 27.553 115.133 27.553C114.083 27.5604 113.044 27.3521 112.08 26.9412C111.15 26.5482 110.303 25.9829 109.586 25.2758C108.872 24.5682 108.301 23.7307 107.906 22.8093C107.5 21.8498 107.291 20.8197 107.291 19.7791C107.291 18.7386 107.5 17.7085 107.906 16.749C108.303 15.8245 108.876 14.9847 109.593 14.2755C110.311 13.5688 111.157 13.0037 112.087 12.6101C114.019 11.8077 116.192 11.7964 118.132 12.5785C119.046 12.9569 119.879 13.5022 120.589 14.1861L120.483 14.2825C120.358 14.4082 120.211 14.5104 120.05 14.584C119.885 14.6527 119.708 14.6867 119.53 14.6839C119.284 14.6856 119.044 14.6114 118.843 14.4718C118.313 14.1107 117.733 13.8267 117.121 13.6286C116.481 13.4244 115.812 13.3226 115.14 13.3271C114.555 13.3248 113.974 13.4014 113.41 13.555C112.866 13.702 112.344 13.9213 111.859 14.2071C111.379 14.4881 110.936 14.8266 110.54 15.2151C110.144 15.6044 109.803 16.0435 109.523 16.5211C109.239 17.0064 109.018 17.5253 108.865 18.0655C108.706 18.6228 108.627 19.1993 108.629 19.7783C108.627 20.3582 108.708 20.9355 108.87 21.4927C109.186 22.5743 109.78 23.556 110.594 24.3414C110.998 24.7317 111.449 25.0709 111.937 25.3512C112.433 25.6358 112.965 25.855 113.518 26.0033C114.084 26.1565 114.669 26.2332 115.257 26.2312C115.984 26.2336 116.709 26.1357 117.409 25.9402C118.105 25.7432 118.768 25.448 119.379 25.0637V21.4068H118.019C117.844 21.4099 117.671 21.377 117.51 21.3103C117.348 21.2437 117.203 21.1446 117.082 21.0194C116.971 20.9007 116.884 20.762 116.825 20.611C116.765 20.4548 116.735 20.289 116.735 20.1219V20.0798L120.688 20.0815Z" fill="#070707"/>
<path d="M126.502 27.3992H125.154V12.1541H130.564C131.146 12.1495 131.722 12.2632 132.258 12.488C132.77 12.7044 133.236 13.0151 133.63 13.4036C134.025 13.7927 134.34 14.2534 134.558 14.7603C134.786 15.2843 134.901 15.8491 134.898 16.4192C134.899 16.9383 134.807 17.4534 134.627 17.9411C134.455 18.4182 134.204 18.8641 133.885 19.2609C133.568 19.6499 133.181 19.9766 132.742 20.2239C132.295 20.476 131.799 20.6334 131.287 20.6861L136.395 27.3992H135.76C135.021 27.3992 134.472 27.1286 134.122 26.5926L129.626 20.6861H126.502V27.3992ZM126.502 13.4827V19.3558H130.564C130.962 19.3583 131.357 19.2806 131.723 19.1273C132.078 18.9797 132.4 18.7661 132.672 18.4982C132.944 18.2293 133.161 17.912 133.313 17.5633C133.472 17.2024 133.553 16.8127 133.55 16.4192C133.553 16.028 133.472 15.6406 133.313 15.2822C133.005 14.579 132.437 14.0187 131.723 13.7164C131.358 13.5598 130.963 13.4802 130.564 13.4827H126.502Z" fill="#070707"/>
<path d="M141.169 27.3992H139.937V12.154H141.169V27.3992Z" fill="#070707"/>
<path d="M146.405 27.3991V12.1541H152.014C153.366 12.1487 154.694 12.5088 155.858 13.1962C156.989 13.8633 157.932 14.8059 158.6 15.9359C159.286 17.1016 159.648 18.4294 159.648 19.7819C159.648 21.1343 159.286 22.4622 158.6 23.6279C158.267 24.1901 157.865 24.7085 157.403 25.1708C156.471 26.1034 155.312 26.7775 154.041 27.1268C153.381 27.3104 152.699 27.402 152.014 27.3991H146.405ZM152.014 26.0688C152.859 26.0756 153.697 25.9075 154.475 25.575C155.22 25.2563 155.899 24.7996 156.475 24.2289C157.051 23.6559 157.51 22.9767 157.827 22.229C158.153 21.4543 158.321 20.6223 158.321 19.7819C158.321 18.9414 158.153 18.1094 157.827 17.3348C157.509 16.5859 157.05 15.9051 156.475 15.3296C155.9 14.7567 155.221 14.2981 154.475 13.9782C153.697 13.6451 152.86 13.4764 152.014 13.4826H147.735V26.0688H152.014Z" fill="#070707"/>
<path d="M169.302 14.1672C169.138 14.0549 168.993 13.9479 168.87 13.8496C168.612 13.6435 168.311 13.4983 167.988 13.425C167.756 13.3779 167.519 13.3567 167.282 13.3619C166.882 13.3596 166.483 13.4298 166.108 13.5689C165.753 13.699 165.422 13.8876 165.13 14.1269C164.856 14.3527 164.629 14.6307 164.464 14.9445C164.302 15.2487 164.217 15.588 164.218 15.9323C164.208 16.2649 164.26 16.5966 164.374 16.9096C164.487 17.1767 164.67 17.4091 164.903 17.5834C165.2 17.8082 165.527 17.9907 165.875 18.1256C166.277 18.2917 166.774 18.4776 167.365 18.6835C167.679 18.8005 167.973 18.9069 168.247 19.0029C168.517 19.1011 168.777 19.2029 169.016 19.3046C169.248 19.402 169.474 19.5116 169.694 19.6327C169.904 19.7509 170.106 19.8841 170.297 20.031C170.778 20.3879 171.146 20.8753 171.355 21.4347C171.563 22.0182 171.666 22.6335 171.659 23.2524C171.669 23.8731 171.533 24.4876 171.264 25.0474C171.008 25.5689 170.645 26.0306 170.197 26.4019C169.731 26.7834 169.196 27.0734 168.621 27.2564C167.997 27.4589 167.343 27.559 166.686 27.5529C165.355 27.5529 164.234 27.1599 163.322 26.3738C163.093 26.1664 162.881 25.9411 162.687 25.7001C162.533 25.5058 162.392 25.3012 162.266 25.0877L162.425 24.993C162.628 24.8684 162.86 24.7988 163.098 24.7912C163.264 24.7904 163.429 24.8135 163.589 24.8596C163.747 24.9069 163.891 24.9932 164.007 25.1105C164.251 25.3424 164.518 25.5504 164.802 25.7317C165.013 25.8631 165.239 25.9702 165.474 26.051C165.672 26.1152 165.876 26.1558 166.083 26.1721C166.278 26.1861 166.479 26.1966 166.686 26.2037C167.12 26.2173 167.553 26.1689 167.972 26.0598C168.39 25.9582 168.785 25.7796 169.136 25.5334C169.483 25.289 169.772 24.9715 169.981 24.6035C170.208 24.191 170.321 23.726 170.308 23.256C170.328 22.775 170.241 22.2956 170.052 21.8523C169.891 21.5142 169.648 21.2208 169.346 20.9978C169.017 20.7643 168.655 20.5799 168.272 20.4504C167.859 20.3042 167.414 20.1392 166.937 19.9556C166.332 19.7152 165.78 19.4906 165.282 19.2871C164.825 19.1048 164.396 18.8597 164.007 18.5589C163.655 18.2819 163.373 17.9275 163.183 17.5237C162.969 17.0204 162.87 16.4765 162.89 15.9306C162.883 15.368 163.019 14.8126 163.285 14.3164C163.542 13.8421 163.888 13.4215 164.305 13.0776C164.725 12.733 165.203 12.4634 165.716 12.2811C166.221 12.0979 166.754 12.0029 167.291 12.0003C167.706 11.9951 168.119 12.0543 168.515 12.1758C168.866 12.285 169.202 12.4346 169.517 12.6214C169.813 12.7959 170.089 13.0005 170.341 13.232C170.586 13.459 170.812 13.6824 171.019 13.9023L170.687 14.1356C170.597 14.2008 170.499 14.2528 170.394 14.29C170.264 14.3316 170.128 14.3512 169.992 14.348C169.749 14.3565 169.509 14.2936 169.302 14.1672V14.1672Z" fill="#070707"/>
<path d="M57.649 19.2465V25.6367C57.2782 26.0082 56.8572 26.3265 56.3981 26.5825C55.9505 26.8315 55.4764 27.0302 54.9846 27.175C54.4832 27.3213 53.9692 27.4208 53.4492 27.4721C52.9145 27.5264 52.3772 27.5534 51.8397 27.5529C50.7934 27.5612 49.7566 27.3553 48.7936 26.9482C47.8647 26.5542 47.0184 25.9901 46.2989 25.2851C45.5835 24.5769 45.0119 23.7384 44.6151 22.8152C44.202 21.8568 43.9926 20.8237 44.0002 19.7809C43.9923 18.4008 44.3585 17.044 45.0603 15.8536C45.404 15.2765 45.8196 14.7449 46.2971 14.2714C47.2583 13.3191 48.4516 12.6316 49.7601 12.2761C50.438 12.0902 51.1383 11.9974 51.8414 12.0001C52.4065 11.9992 52.9697 12.0635 53.5199 12.1917C54.0685 12.3186 54.6017 12.5043 55.1101 12.7454C55.6215 12.9923 56.1084 13.2866 56.5642 13.6244C57.0301 13.9677 57.4636 14.3525 57.8593 14.7742L57.2161 15.4229C57.034 15.6214 56.8109 15.7785 56.562 15.8832C56.3131 15.9879 56.0445 16.0377 55.7744 16.0294C55.3837 16.0326 55.0019 15.9139 54.6825 15.6901C54.2754 15.4116 53.8304 15.1926 53.3609 15.0396C52.8725 14.8821 52.3619 14.8032 51.8485 14.8058C51.1804 14.8034 50.5189 14.9374 49.905 15.1996C48.6965 15.7019 47.729 16.6482 47.2035 17.8418C46.9356 18.4515 46.799 19.1102 46.8024 19.7756C46.7971 20.4525 46.9394 21.1224 47.2194 21.7393C47.632 22.6426 48.2972 23.4086 49.1357 23.9457C49.9741 24.4828 50.9502 24.7684 51.9474 24.7683C52.2875 24.7603 52.6268 24.7315 52.9634 24.6822C53.2811 24.6347 53.5956 24.5677 53.9051 24.4817C54.2286 24.3929 54.5383 24.2604 54.8256 24.088V21.945L53.9422 21.9292C53.677 21.9302 53.4147 21.8738 53.1736 21.7639C52.9382 21.6495 52.748 21.4602 52.633 21.226C52.4767 20.8735 52.407 20.489 52.4298 20.1044V19.2517L57.649 19.2465Z" fill="#070707"/>
<path d="M37.7317 22.2683C38.9844 12.4754 32.0613 3.5211 22.2683 2.26834C12.4754 1.01557 3.5211 7.93874 2.26833 17.7317C1.01557 27.5246 7.93874 36.4789 17.7317 37.7317C27.5246 38.9844 36.4789 32.0613 37.7317 22.2683Z" fill="#070707"/>
<path d="M20.6625 19.7186V21.4323H24.415V24.2985H20.6889V24.2883C20.5893 24.2883 20.4856 24.2985 20.386 24.2985C19.8325 24.3 19.2843 24.19 18.774 23.9753C18.0326 23.6617 17.3973 23.1408 16.9446 22.4751C16.3885 21.6511 16.1476 20.6546 16.2658 19.6676C16.384 18.6807 16.8535 17.7692 17.5884 17.0999C18.3233 16.4307 19.2746 16.0482 20.2683 16.0225C21.262 15.9969 22.2317 16.3297 23.0002 16.9602H30.3181C30.2246 16.6675 30.1149 16.3788 29.999 16.0983C29.265 14.3595 28.0733 12.8523 26.5508 11.737C25.0283 10.6217 23.2318 9.94007 21.3527 9.76465C19.4735 9.58922 17.5819 9.92656 15.8793 10.7408C14.1766 11.555 12.7265 12.8156 11.6834 14.3885C10.6403 15.9613 10.0431 17.7876 9.95542 19.6729C9.86776 21.5582 10.2929 23.432 11.1856 25.0948C12.0782 26.7577 13.405 28.1474 15.0248 29.1161C16.6446 30.0849 18.4967 30.5963 20.384 30.596H30.7511V19.7146L20.6625 19.7186ZM24.415 28.8661H20.9593C20.8292 28.8661 20.695 28.8803 20.5527 28.8824H20.2519C18.7536 28.8614 17.286 28.4548 15.9906 27.7018C14.6951 26.9488 13.6155 25.8748 12.8557 24.5833C12.096 23.2918 11.6818 21.8263 11.653 20.3282C11.6242 18.8301 11.9818 17.3498 12.6914 16.0301C13.4009 14.7103 14.4385 13.5956 15.7041 12.7934C16.9696 11.9912 18.4205 11.5285 19.9168 11.45C21.4132 11.3715 22.9045 11.6797 24.2471 12.3451C25.5897 13.0104 26.7382 14.0104 27.582 15.2486H23.5612C22.7965 14.7552 21.9273 14.4469 21.0226 14.3481C20.1179 14.2493 19.2027 14.3628 18.3495 14.6796C17.4964 14.9964 16.7288 15.5077 16.1078 16.1729C15.4867 16.8381 15.0294 17.639 14.7719 18.5119C14.5145 19.3848 14.4641 20.3057 14.6248 21.2015C14.7855 22.0972 15.1528 22.9432 15.6975 23.6722C16.2423 24.4012 16.9495 24.9932 17.763 25.4012C18.5765 25.8091 19.4739 26.0218 20.384 26.0223H24.415V28.8661ZM29.0538 28.8824H26.1306L26.1469 28.8722H26.1306V26.0263H29.0538V28.8824ZM29.0538 24.3025H26.1306V21.4363H29.0538V24.3025Z" fill="#262626"/>
<path d="M20.1563 19.1779V20.8915H23.9108V23.7577H20.1807V23.7476C20.0811 23.7476 19.9774 23.7577 19.8799 23.7577C19.2012 23.759 18.5327 23.5926 17.9338 23.2735C17.3349 22.9543 16.824 22.4922 16.4465 21.9283C16.063 21.3567 15.8273 20.6989 15.7606 20.0138C15.6939 19.3287 15.7983 18.6378 16.0643 18.003C16.3775 17.2606 16.8993 16.6251 17.5666 16.1735C18.1372 15.7888 18.7948 15.5523 19.4798 15.4856C20.1648 15.4189 20.8556 15.524 21.4898 15.7913C21.8559 15.9452 22.1982 16.1505 22.5062 16.4012H29.8242C29.7286 16.1084 29.6209 15.8198 29.505 15.5393C28.7684 13.8035 27.5754 12.2997 26.0527 11.1876C24.5301 10.0755 22.7346 9.39663 20.857 9.22306C18.9795 9.0495 17.09 9.38774 15.3893 10.2019C13.6885 11.016 12.2401 12.2756 11.1978 13.8469C10.1554 15.4182 9.55821 17.2424 9.46949 19.1259C9.38078 21.0094 9.80389 22.8817 10.6939 24.544C11.5839 26.2063 12.9075 27.5964 14.5242 28.5668C16.1409 29.5372 17.9902 30.0516 19.8758 30.0553H30.2429V19.1678L20.1563 19.1779ZM23.9108 28.3254H20.4551C20.323 28.3254 20.1909 28.3396 20.0486 28.3416H19.7538C18.255 28.3228 16.7864 27.918 15.4895 27.1663C14.1927 26.4146 13.1114 25.3415 12.3501 24.0503C11.5887 22.7591 11.1729 21.2936 11.1428 19.7949C11.1127 18.2963 11.4693 16.8152 12.1782 15.4945C12.887 14.1738 13.9243 13.0581 15.1899 12.2549C16.4555 11.4518 17.9067 10.9883 19.4036 10.9092C20.9004 10.8302 22.3924 11.1382 23.7355 11.8036C25.0787 12.4689 26.2277 13.4692 27.0718 14.7079H23.055C22.2908 14.2106 21.4211 13.8988 20.515 13.7971C19.609 13.6954 18.6918 13.8068 17.8364 14.1223C16.981 14.4378 16.2111 14.9487 15.5881 15.6144C14.965 16.28 14.5061 17.0819 14.2478 17.9563C13.9895 18.8307 13.9389 19.7533 14.1002 20.6506C14.2615 21.5479 14.6301 22.3952 15.1767 23.1249C15.7233 23.8546 16.4328 24.4465 17.2486 24.8536C18.0645 25.2606 18.9641 25.4714 19.8758 25.4693H23.9068L23.9108 28.3254ZM28.5496 28.3416H25.6265L25.6407 28.3315H25.6265V25.4693H28.5496V28.3416ZM28.5496 23.7618H25.6265V20.8956H28.5496V23.7618Z" fill="white"/>
<path d="M23.9109 25.4714H25.6265V26.2865H23.9109V25.4714Z" fill="#999999"/>
<path d="M22.5225 20.8916H23.9108V21.7067H25.6245V20.8916H26.8827V20.8895H22.5225V20.8916Z" fill="#999999"/>
</svg>
