<svg width="238" height="41" viewBox="0 0 238 41" fill="none" xmlns="http://www.w3.org/2000/svg">
<path d="M32.6667 21C36.6 26.3333 40.6 31.6667 48.4667 31.6667C54.4667 31.6667 59.3335 26.8667 59.3335 21" stroke="url(#paint0_linear)" stroke-width="6" stroke-miterlimit="10"/>
<path d="M6 21.0001C6 15.1335 10.8666 10.3335 16.8666 10.3335C24.7333 10.3335 28.7333 15.6668 32.6666 21.0001" stroke="url(#paint1_linear)" stroke-width="6" stroke-miterlimit="10"/>
<path d="M59.3333 21.0001C59.3333 15.1335 54.4666 10.3335 48.4666 10.3335C40.6 10.3335 36.6 15.6668 32.6666 21.0001C28.7333 26.3335 24.7333 31.6668 16.8666 31.6668C10.8666 31.6668 6 26.8668 6 21.0001" stroke="url(#paint2_linear)" stroke-width="6" stroke-miterlimit="10"/>
<path d="M80.6667 34.9393V7H84.3287V31.295H95.7718V34.9393H80.6667ZM99.4477 12.8308V8.9436H103.11V12.8308H99.4477ZM99.4477 34.9393V14.7744H103.11V34.9393H99.4477ZM148.924 12.8308V8.9436H152.586V12.8308H148.924ZM148.924 34.9393V14.7744H152.586V34.9393H148.924ZM123.664 22.1236C123.55 21.3341 123.378 20.4837 123.092 19.6334C122.806 18.7831 122.348 17.9935 121.833 17.2646C121.261 16.5358 120.574 15.9284 119.659 15.5033C118.743 15.0781 117.656 14.8351 116.34 14.8351C114.624 14.8351 113.193 15.1996 111.992 15.9892C111.42 16.3536 110.962 16.7787 110.504 17.2646V14.8351H106.842V35H110.504V24.9783H110.561C110.561 23.7636 110.676 22.7918 110.962 21.9414C111.191 21.0911 111.534 20.423 111.992 19.9371C112.45 19.4512 112.964 19.0868 113.537 18.8438C114.109 18.6009 114.738 18.4794 115.425 18.4794C116.455 18.4794 117.256 18.7223 117.885 19.1475C118.515 19.5727 118.972 20.18 119.373 20.8482C119.716 21.577 119.945 22.3059 120.059 23.1562C120.174 24.0065 120.231 24.7961 120.231 25.5857V35H123.95V24.2495C123.836 23.6421 123.779 22.9132 123.664 22.1236ZM216.137 22.1236C216.023 21.3341 215.851 20.4837 215.565 19.6334C215.279 18.7831 214.821 17.9935 214.306 17.2646C213.734 16.5358 213.048 15.9284 212.132 15.5033C211.217 15.0781 210.13 14.8351 208.814 14.8351C207.097 14.8351 205.667 15.1996 204.465 15.9892C203.893 16.3536 203.435 16.7787 202.977 17.2646V14.8351H199.315V35H202.977V24.9783H203.035C203.035 23.7636 203.149 22.7918 203.435 21.9414C203.664 21.0911 204.007 20.423 204.465 19.9371C204.923 19.4512 205.438 19.0868 206.01 18.8438C206.582 18.6009 207.211 18.4794 207.898 18.4794C208.928 18.4794 209.729 18.7223 210.358 19.1475C210.988 19.5727 211.446 20.18 211.789 20.8482C212.132 21.577 212.361 22.3059 212.475 23.1562C212.59 24.0065 212.647 24.7961 212.647 25.5857V35H216.366V24.2495C216.309 23.6421 216.252 22.9132 216.137 22.1236ZM143.761 25.8894H145.592C145.706 23.5813 145.477 21.6377 144.791 19.9371C144.104 18.2972 143.074 16.961 141.758 16.1106C140.385 15.1996 138.726 14.7744 136.838 14.7744C135.007 14.7744 133.347 15.1996 131.974 16.0499C130.601 16.9002 129.514 18.0542 128.713 19.6334C127.912 21.1518 127.568 22.974 127.568 25.039C127.568 26.9826 127.969 28.744 128.77 30.2625C129.571 31.7809 130.658 32.9349 132.089 33.7245C133.519 34.5748 135.178 35 137.066 35C138.897 35 140.557 34.5141 142.102 33.603C143.589 32.692 144.734 31.3558 145.477 29.6551L141.873 28.5011C141.415 29.4729 140.728 30.2625 139.927 30.7484C139.069 31.295 138.096 31.538 136.952 31.538C135.178 31.538 133.862 30.9913 132.947 29.8373C132.203 28.8655 131.745 27.59 131.631 26.0108H142.102H143.761V25.8894ZM132.775 19.8156C133.691 18.6616 135.064 18.0542 136.895 18.0542C138.554 18.0542 139.813 18.6009 140.614 19.6334C141.186 20.3623 141.587 21.4555 141.758 22.7918H131.516C131.745 21.577 132.203 20.6052 132.775 19.8156ZM165.073 34.9393C163.127 34.9393 161.468 34.5141 160.095 33.603C158.721 32.7527 157.691 31.538 156.948 30.0195C156.204 28.5011 155.861 26.7397 155.861 24.8568C155.861 22.9132 156.261 21.1518 157.005 19.6334C157.749 18.115 158.779 16.9002 160.152 16.0499C161.525 15.1996 163.184 14.7744 165.073 14.7744C167.132 14.7744 168.906 15.321 170.394 16.3536C171.881 17.3861 172.854 18.8438 173.312 20.6052L169.65 21.6377C169.307 20.5445 168.677 19.7549 167.876 19.1475C167.075 18.5401 166.103 18.2364 165.015 18.2364C163.814 18.2364 162.841 18.5401 162.04 19.0868C161.239 19.6334 160.667 20.423 160.324 21.4555C159.923 22.4273 159.751 23.5813 159.751 24.8568C159.751 26.8004 160.209 28.4403 161.125 29.6551C161.983 30.8699 163.299 31.4772 165.073 31.4772C166.274 31.4772 167.19 31.1735 167.933 30.6269C168.677 30.0803 169.249 29.2907 169.593 28.2581L173.312 29.1692C172.683 31.0521 171.653 32.449 170.222 33.4816C168.849 34.4534 167.075 34.9393 165.073 34.9393ZM186.314 34.9393C184.425 34.9393 182.766 34.5141 181.393 33.6638C180.02 32.8134 178.933 31.5987 178.189 30.0803C177.445 28.5618 177.044 26.8004 177.044 24.8568C177.044 22.8525 177.445 21.0911 178.189 19.5727C178.99 18.0542 180.02 16.9002 181.45 16.0499C182.823 15.1996 184.483 14.7744 186.314 14.7744C188.202 14.7744 189.861 15.1996 191.234 16.0499C192.608 16.9002 193.695 18.115 194.496 19.6334C195.24 21.1518 195.64 22.9132 195.64 24.8568C195.64 26.8612 195.24 28.6226 194.496 30.141C193.752 31.6594 192.665 32.8135 191.234 33.7245C189.804 34.5141 188.202 34.9393 186.314 34.9393ZM186.314 31.4772C188.145 31.4772 189.461 30.8699 190.376 29.6551C191.292 28.4403 191.749 26.8612 191.749 24.8568C191.749 22.8525 191.292 21.2733 190.376 20.0586C189.461 18.8438 188.145 18.2364 186.314 18.2364C185.055 18.2364 184.082 18.5401 183.281 19.0868C182.48 19.6334 181.908 20.423 181.507 21.3948C181.107 22.3666 180.935 23.5206 180.935 24.7961C180.935 26.8004 181.393 28.3796 182.308 29.5944C183.167 30.8699 184.54 31.4772 186.314 31.4772ZM228.224 34.9393C225.935 34.9393 224.047 34.4534 222.559 33.4208C221.129 32.3883 220.213 30.9306 219.87 29.1085L223.646 28.5011C223.875 29.4729 224.447 30.2625 225.248 30.8699C226.107 31.4165 227.137 31.7202 228.395 31.7202C229.54 31.7202 230.455 31.4772 231.085 30.9913C231.714 30.5054 232.057 29.8981 232.057 29.0477C232.057 28.5618 231.943 28.1974 231.714 27.8937C231.485 27.59 231.027 27.2863 230.284 27.0434C229.54 26.8004 228.453 26.436 226.965 26.0108C225.363 25.5857 224.047 25.0998 223.074 24.6139C222.101 24.128 221.415 23.5206 221.014 22.9132C220.614 22.2451 220.385 21.4555 220.385 20.5445C220.385 19.3905 220.671 18.3579 221.3 17.5076C221.93 16.6573 222.788 15.9892 223.875 15.5033C224.962 15.0174 226.278 14.7744 227.766 14.7744C229.196 14.7744 230.512 15.0174 231.657 15.4425C232.801 15.9284 233.717 16.5358 234.403 17.3861C235.09 18.2364 235.548 19.2082 235.662 20.3623L231.886 21.0304C231.771 20.1193 231.313 19.3905 230.627 18.8438C229.883 18.2972 228.968 17.9935 227.823 17.9935C226.736 17.9328 225.821 18.115 225.134 18.5401C224.447 18.9653 224.104 19.5119 224.104 20.2408C224.104 20.6659 224.218 21.0304 224.505 21.3341C224.791 21.6377 225.306 21.9414 226.049 22.1844C226.793 22.4273 227.938 22.7918 229.425 23.1562C231.027 23.5813 232.286 24.0065 233.202 24.5531C234.117 25.039 234.804 25.6464 235.204 26.3145C235.605 26.9826 235.834 27.833 235.834 28.8048C235.834 30.6876 235.147 32.2061 233.774 33.2386C232.515 34.3926 230.627 34.9393 228.224 34.9393Z" fill="black"/>
<defs>
<linearGradient id="paint0_linear" x1="32.6663" y1="26.35" x2="59.3335" y2="26.35" gradientUnits="userSpaceOnUse">
<stop stop-color="#003FFF"/>
<stop offset="0.6883" stop-color="#690AFF"/>
</linearGradient>
<linearGradient id="paint1_linear" x1="6" y1="15.6668" x2="32.6871" y2="15.6668" gradientUnits="userSpaceOnUse">
<stop offset="0.2862" stop-color="#E843A1"/>
<stop offset="1" stop-color="#003FFF"/>
</linearGradient>
<linearGradient id="paint2_linear" x1="6" y1="21.0001" x2="59.3541" y2="21.0001" gradientUnits="userSpaceOnUse">
<stop offset="0.16" stop-color="#E843A1"/>
<stop offset="0.84" stop-color="#690AFF"/>
</linearGradient>
</defs>
</svg>
