<svg width="150" height="39" viewBox="0 0 150 39" fill="none" xmlns="http://www.w3.org/2000/svg">
<path d="M138.071 23.8163L149.927 9.5184H144.107L133.477 22.3352V22.2531L128.66 28.0933L127.612 29.364C127.582 29.4146 127.553 29.4666 127.522 29.5172L125.716 31.6945C125.381 31.9986 125.027 32.2811 124.654 32.537C123.07 33.6223 121.176 34.2531 119.117 34.2537V34.3281C117.747 34.3257 116.453 34.0452 115.273 33.5389C113.498 32.7764 111.981 31.4982 110.912 29.8919C109.844 28.283 109.222 26.3603 109.221 24.2692C109.221 22.8733 109.498 21.5561 109.998 20.3544C110.749 18.5511 112.008 17.011 113.591 15.9255C115.175 14.8408 117.069 14.2103 119.129 14.2094C121.306 14.2103 123.301 14.915 124.937 16.1169L127.549 12.4569C125.188 10.7164 122.267 9.6875 119.129 9.6881C117.152 9.6881 115.258 10.0964 113.538 10.8352C110.958 11.9432 108.77 13.7894 107.221 16.115C105.673 18.4392 104.767 21.2571 104.768 24.2692C104.768 24.3189 104.772 24.3695 104.772 24.4198H104.694C104.694 25.8142 104.417 27.1323 103.916 28.334C103.165 30.136 101.907 31.6771 100.325 32.762C98.7406 33.8467 96.8461 34.4777 94.7869 34.4789C93.4119 34.4781 92.1148 34.1973 90.9304 33.6886C89.1557 32.9273 87.6384 31.6487 86.5687 30.0419C86.0688 29.2888 85.667 28.4651 85.381 27.5886C85.1967 27.497 84.9977 27.394 84.787 27.2799C83.7721 26.7281 82.5002 25.9229 81.4571 24.8661C81.0201 24.4222 80.6284 23.9837 80.277 23.5594C80.3001 23.8423 80.3136 24.129 80.3136 24.4198C80.3136 25.8142 80.0373 27.1323 79.536 28.334C78.7861 30.136 77.5264 31.6771 75.9443 32.762C74.36 33.8467 72.4653 34.4777 70.4064 34.4789C69.0317 34.4781 67.7343 34.1973 66.5499 33.6886C64.7747 32.9273 63.2578 31.6487 62.1892 30.0419C61.1202 28.4336 60.4987 26.5097 60.4983 24.4198C60.4983 23.0246 60.7755 21.7064 61.2759 20.5042C62.0259 18.702 63.2854 17.1619 64.8677 16.0764C66.4521 14.9917 68.3459 14.3603 70.4064 14.3599C71.78 14.3599 73.0778 14.6417 74.2621 15.1496C76.0374 15.9116 77.5541 17.1898 78.6231 18.7963C78.6473 18.8329 78.67 18.8698 78.6934 18.9069L78.7003 18.9043L78.7006 18.9075L78.7073 18.9241C78.7078 18.9266 78.7101 18.9309 78.7112 18.9345C78.7523 18.9986 78.7906 19.0655 78.8303 19.13C78.9302 19.3581 79.1292 19.7905 79.4437 20.3546C79.4754 20.411 79.5092 20.4704 79.5432 20.5299C79.5689 20.5925 79.5977 20.6536 79.6219 20.7166C79.914 21.1999 80.2861 21.7554 80.7457 22.351C80.7708 22.3838 80.7939 22.4157 80.8195 22.4481C81.2213 22.9728 81.6937 23.5201 82.2347 24.0566C82.238 24.0606 82.2412 24.0637 82.2441 24.0667C82.2484 24.0712 82.2528 24.0746 82.2567 24.0791C82.3425 24.1642 82.4291 24.2477 82.5189 24.3315C82.554 24.3637 82.5885 24.3961 82.6238 24.428C83.1905 24.9507 83.8262 25.4561 84.5466 25.9102C85.3561 26.4209 86.2683 26.8644 87.2783 27.1833C88.2886 27.5031 89.3965 27.6968 90.5805 27.7152H90.5819C90.6841 27.7169 90.784 27.718 90.8835 27.718C92.7917 27.7184 94.5027 27.4156 96.005 26.8762C97.1325 26.4724 98.1394 25.9375 99.023 25.3178C100.349 24.3866 101.395 23.2704 102.21 22.1266C103.025 20.9805 103.612 19.806 104.04 18.722C104.367 17.8923 104.535 17.068 104.535 16.2787C104.535 15.8245 104.48 15.386 104.377 14.9774C104.198 14.2619 103.878 13.6507 103.522 13.1698C102.984 12.4451 102.382 11.9936 101.914 11.7006C101.441 11.4091 101.089 11.2743 100.984 11.2358L100.976 11.2613C99.0998 10.3508 96.9968 9.8388 94.7869 9.8392C92.8098 9.8388 90.9152 10.2465 89.1956 10.9856C87.5128 11.709 85.9981 12.7467 84.7166 14.0262V0.0241699H80.2648V12.2206C80.5368 12.485 80.8195 12.7718 81.1128 13.0849C82.239 14.287 82.9687 15.4486 83.6091 16.517C84.2507 17.5884 84.8047 18.5593 85.583 19.4455C85.7012 19.5812 85.8268 19.7147 85.9577 19.8473C86.7227 18.328 87.8613 17.0277 89.2486 16.0764C90.8316 14.9917 92.7267 14.3603 94.7869 14.3599C96.5929 14.3603 98.27 14.8455 99.7267 15.6973L99.7442 15.666C99.8395 15.7416 99.9265 15.8291 99.975 15.9043C100.011 15.9574 100.034 16.0033 100.051 16.0562C100.067 16.109 100.082 16.1707 100.082 16.2787C100.082 16.4236 100.054 16.6638 99.9054 17.0428C99.6257 17.7528 99.256 18.5018 98.7827 19.213C98.4278 19.7464 98.0146 20.2593 97.5382 20.7265C96.8204 21.4277 95.964 22.0298 94.8895 22.4713C93.8152 22.9119 92.514 23.1963 90.8835 23.1967C90.807 23.1967 90.731 23.1963 90.6549 23.1952H90.6538C89.9803 23.1836 89.3738 23.0876 88.8104 22.9292C87.828 22.6519 86.9744 22.18 86.2245 21.6001C85.9625 21.3977 85.715 21.1804 85.4809 20.9558C85.4809 20.9547 85.4813 20.9519 85.4828 20.9498C85.3703 20.8446 85.2626 20.7381 85.1574 20.632C84.5418 19.9875 84.0388 19.3057 83.6698 18.7185C83.3881 18.2716 83.0982 17.8992 82.9672 17.6343C82.9019 17.5012 82.7717 17.2948 82.7717 17.2948C82.1056 16.1795 81.4132 15.0461 80.3068 13.864C80.2923 13.8483 80.2778 13.8354 80.2648 13.8196V13.8204C79.6961 13.2757 79.0866 12.7756 78.4364 12.3299C76.1473 10.7587 73.3725 9.838 70.4064 9.8392C68.4293 9.8388 66.5353 10.2465 64.8153 10.9856C62.2353 12.0943 60.047 13.9403 58.4989 16.2656C56.9511 18.5897 56.0443 21.4072 56.0452 24.4198C56.0443 26.4263 56.4466 28.3501 57.1744 30.0952C58.266 32.7151 60.0841 34.9363 62.3751 36.5081C64.6643 38.0804 67.4392 39.0005 70.4064 39C72.3827 39.0002 74.2776 38.5918 75.9969 37.8526C78.5769 36.7443 80.7647 34.8986 82.3134 32.5732C82.4103 32.4264 82.5052 32.2787 82.5972 32.1281C83.6672 33.8688 85.085 35.3617 86.7548 36.5081C89.0445 38.0804 91.8193 39.0005 94.7869 39C96.7625 39.0002 98.6574 38.5918 100.377 37.8526C102.955 36.7443 105.145 34.8986 106.692 32.5732C106.8 32.4121 106.904 32.2483 107.004 32.0816C108.067 33.7773 109.46 35.2342 111.099 36.3575C113.388 37.9293 116.162 38.8494 119.129 38.8491C121.104 38.8494 123.001 38.4413 124.719 37.7023C126.327 37.0122 127.781 36.0353 129.024 34.8347V38.9053H133.477V29.3546L135.148 27.341L144.29 38.9053H150L138.071 23.8163ZM133.477 0.0241699H129.024V24.1991C129.024 24.8549 128.961 25.4929 128.842 26.1113L133.477 20.4926V0.0241699Z" fill="#252F3F"/>
<path d="M25.5142 10.395V22.243C25.5142 27.7624 22.1766 31.0961 17.1171 31.0961C12.0571 31.0961 8.50493 27.7624 8.50493 22.243V0H0V22.243C0 32.3533 6.67409 38.6383 17.1171 38.6383C27.5057 38.6383 34.0192 32.3533 34.0192 22.243V0H33.8698C29.3846 1.46211 26.0386 5.4973 25.5142 10.395Z" fill="url(#paint0_linear)"/>
<path d="M41.2999 0H41.1538V38.2563H49.6589V10.4027C49.5786 6.15139 45.7877 1.46305 41.2999 0Z" fill="url(#paint1_linear)"/>
<path d="M25.5142 10.395V22.243C25.5142 22.2501 25.5137 22.2572 25.5137 22.2651C25.5157 22.3829 25.522 22.4998 25.522 22.6185C25.522 30.5978 19.6029 37.1699 11.9807 38.0654C13.567 38.4406 15.2828 38.6383 17.1171 38.6383C27.5057 38.6383 34.0192 32.3533 34.0192 22.243V0H33.8698C29.3846 1.46211 26.0386 5.4973 25.5142 10.395Z" fill="url(#paint2_linear)"/>
<path d="M8.50493 10.4142V0H0V0.001688C4.52178 1.46643 7.91016 5.50068 8.50493 10.4142Z" fill="url(#paint3_linear)"/>
<path d="M41.1538 26.9194V38.2562H49.5551C44.8701 36.5777 41.4535 32.1739 41.1538 26.9194Z" fill="url(#paint4_linear)"/>
<defs>
<linearGradient id="paint0_linear" x1="29.1059" y1="34.9037" x2="6.43529" y2="-3.77219" gradientUnits="userSpaceOnUse">
<stop stop-color="#2535C5"/>
<stop offset="0.169697" stop-color="#36409B"/>
<stop offset="0.575758" stop-color="#475BC6"/>
<stop offset="1" stop-color="#7075E4"/>
</linearGradient>
<linearGradient id="paint1_linear" x1="45.4064" y1="0" x2="45.4064" y2="38.2564" gradientUnits="userSpaceOnUse">
<stop stop-color="#375AD8"/>
<stop offset="0.472727" stop-color="#3C56DD"/>
<stop offset="1" stop-color="#2A1A8F"/>
</linearGradient>
<linearGradient id="paint2_linear" x1="22.9998" y1="0" x2="22.9998" y2="38.6385" gradientUnits="userSpaceOnUse">
<stop stop-color="#233593"/>
<stop offset="0.472727" stop-color="#4957D7"/>
<stop offset="0.890909" stop-color="#5465FF"/>
<stop offset="1" stop-color="#6A67FF"/>
</linearGradient>
<linearGradient id="paint3_linear" x1="3.21444" y1="6.5464" x2="8.56956" y2="-0.156003" gradientUnits="userSpaceOnUse">
<stop stop-color="#3A4A9C"/>
<stop offset="0.327273" stop-color="#475BC6"/>
<stop offset="1" stop-color="#7090E4"/>
</linearGradient>
<linearGradient id="paint4_linear" x1="45.6745" y1="32.1957" x2="40.4974" y2="38.3496" gradientUnits="userSpaceOnUse">
<stop stop-color="#2D3792"/>
<stop offset="0.193939" stop-color="#3F2BB8"/>
<stop offset="1" stop-color="#3C38FF"/>
</linearGradient>
</defs>
</svg>
